<?xml version="1.0" encoding="utf-8" standalone="no"?>
<!DOCTYPE svg PUBLIC "-//W3C//DTD SVG 1.1//EN"
  "http://www.w3.org/Graphics/SVG/1.1/DTD/svg11.dtd">
<svg xmlns:xlink="http://www.w3.org/1999/xlink" width="567.884151pt" height="280.12pt" viewBox="0 0 567.884151 280.12" xmlns="http://www.w3.org/2000/svg" version="1.1">
 <metadata>
  <rdf:RDF xmlns:dc="http://purl.org/dc/elements/1.1/" xmlns:cc="http://creativecommons.org/ns#" xmlns:rdf="http://www.w3.org/1999/02/22-rdf-syntax-ns#">
   <cc:Work>
    <dc:type rdf:resource="http://purl.org/dc/dcmitype/StillImage"/>
    <dc:date>2025-09-26T12:32:16.473874</dc:date>
    <dc:format>image/svg+xml</dc:format>
    <dc:creator>
     <cc:Agent>
      <dc:title>Matplotlib v3.10.3, https://matplotlib.org/</dc:title>
     </cc:Agent>
    </dc:creator>
   </cc:Work>
  </rdf:RDF>
 </metadata>
 <defs>
  <style type="text/css">*{stroke-linejoin: round; stroke-linecap: butt}</style>
 </defs>
 <g id="figure_1">
  <g id="patch_1">
   <path d="M 0 280.12 
L 567.884151 280.12 
L 567.884151 0 
L 0 0 
z
" style="fill: #ffffff"/>
  </g>
  <g id="axes_1">
   <g id="patch_2">
    <path d="M 52.303125 256.52 
L 555.058958 256.52 
L 555.058958 43.7325 
L 52.303125 43.7325 
z
" style="fill: #ffffff"/>
   </g>
   <g id="line2d_1">
    <path d="M 193.439249 256.52 
L 193.439249 43.7325 
" clip-path="url(#p7853005c7a)" style="fill: none; stroke-dasharray: 2.59,1.12; stroke-dashoffset: 0; stroke: #2f2f2f; stroke-opacity: 0.7; stroke-width: 0.7"/>
   </g>
   <g id="matplotlib.axis_1">
    <g id="xtick_1">
     <g id="line2d_2">
      <defs>
       <path id="m5959c4bd1f" d="M 0 0 
L 0 3.5 
" style="stroke: #000000; stroke-width: 0.8"/>
      </defs>
      <g>
       <use xlink:href="#m5959c4bd1f" x="62.160978" y="256.52" style="stroke: #000000; stroke-width: 0.8"/>
      </g>
     </g>
     <g id="text_1">
      <!-- 2000 -->
      <g transform="translate(49.020353 270.72) scale(0.1 -0.1)">
       <defs>
        <path id="DMSans-Regular-32" d="M 410 0 
L 410 378 
Q 864 736 1277 1101 
Q 1690 1466 2010 1827 
Q 2330 2189 2512 2534 
Q 2694 2880 2694 3200 
Q 2694 3437 2611 3638 
Q 2528 3840 2345 3968 
Q 2163 4096 1856 4096 
Q 1555 4096 1356 3965 
Q 1158 3834 1059 3619 
Q 960 3405 960 3149 
L 442 3149 
Q 448 3590 630 3907 
Q 813 4224 1133 4390 
Q 1453 4557 1862 4557 
Q 2266 4557 2573 4406 
Q 2880 4256 3056 3961 
Q 3232 3667 3232 3219 
Q 3232 2906 3101 2592 
Q 2970 2278 2752 1980 
Q 2534 1683 2268 1408 
Q 2003 1133 1724 889 
Q 1446 646 1203 448 
L 3386 448 
L 3386 0 
L 410 0 
z
" transform="scale(0.015625)"/>
        <path id="DMSans-Regular-30" d="M 2195 -77 
Q 1606 -77 1184 214 
Q 762 506 534 1027 
Q 307 1549 307 2240 
Q 307 2931 534 3452 
Q 762 3974 1184 4265 
Q 1606 4557 2195 4557 
Q 2784 4557 3203 4265 
Q 3622 3974 3846 3452 
Q 4070 2931 4070 2240 
Q 4070 1549 3846 1027 
Q 3622 506 3203 214 
Q 2784 -77 2195 -77 
z
M 2195 397 
Q 2573 397 2873 617 
Q 3174 838 3347 1251 
Q 3520 1664 3520 2240 
Q 3520 2816 3347 3229 
Q 3174 3642 2873 3859 
Q 2573 4077 2195 4077 
Q 1805 4077 1501 3859 
Q 1197 3642 1027 3229 
Q 858 2816 858 2240 
Q 858 1664 1027 1251 
Q 1197 838 1501 617 
Q 1805 397 2195 397 
z
" transform="scale(0.015625)"/>
       </defs>
       <use xlink:href="#DMSans-Regular-32"/>
       <use xlink:href="#DMSans-Regular-30" transform="translate(57.599991 0)"/>
       <use xlink:href="#DMSans-Regular-30" transform="translate(125.999985 0)"/>
       <use xlink:href="#DMSans-Regular-30" transform="translate(194.399979 0)"/>
      </g>
     </g>
    </g>
    <g id="xtick_2">
     <g id="line2d_3">
      <g>
       <use xlink:href="#m5959c4bd1f" x="159.408086" y="256.52" style="stroke: #000000; stroke-width: 0.8"/>
      </g>
     </g>
     <g id="text_2">
      <!-- 2005 -->
      <g transform="translate(146.633086 270.72) scale(0.1 -0.1)">
       <defs>
        <path id="DMSans-Regular-35" d="M 1990 -77 
Q 1536 -77 1197 89 
Q 858 256 662 544 
Q 467 832 416 1190 
L 941 1190 
Q 1018 832 1293 608 
Q 1568 384 1997 384 
Q 2317 384 2544 534 
Q 2771 685 2896 937 
Q 3021 1190 3021 1504 
Q 3021 1837 2896 2083 
Q 2771 2330 2544 2470 
Q 2317 2611 2022 2611 
Q 1651 2611 1395 2451 
Q 1139 2291 1011 2035 
L 493 2035 
L 870 4480 
L 3232 4480 
L 3232 4013 
L 1286 4013 
L 1030 2643 
Q 1190 2822 1459 2944 
Q 1728 3066 2080 3066 
Q 2406 3066 2675 2947 
Q 2944 2829 3136 2617 
Q 3328 2406 3433 2124 
Q 3539 1843 3539 1510 
Q 3539 1190 3436 902 
Q 3334 614 3132 393 
Q 2931 173 2646 48 
Q 2362 -77 1990 -77 
z
" transform="scale(0.015625)"/>
       </defs>
       <use xlink:href="#DMSans-Regular-32"/>
       <use xlink:href="#DMSans-Regular-30" transform="translate(57.599991 0)"/>
       <use xlink:href="#DMSans-Regular-30" transform="translate(125.999985 0)"/>
       <use xlink:href="#DMSans-Regular-35" transform="translate(194.399979 0)"/>
      </g>
     </g>
    </g>
    <g id="xtick_3">
     <g id="line2d_4">
      <g>
       <use xlink:href="#m5959c4bd1f" x="256.655195" y="256.52" style="stroke: #000000; stroke-width: 0.8"/>
      </g>
     </g>
     <g id="text_3">
      <!-- 2010 -->
      <g transform="translate(245.374726 270.72) scale(0.1 -0.1)">
       <defs>
        <path id="DMSans-Regular-31" d="M 973 0 
L 973 3878 
L 205 3686 
L 205 4070 
L 1152 4480 
L 1517 4480 
L 1517 0 
L 973 0 
z
" transform="scale(0.015625)"/>
       </defs>
       <use xlink:href="#DMSans-Regular-32"/>
       <use xlink:href="#DMSans-Regular-30" transform="translate(57.599991 0)"/>
       <use xlink:href="#DMSans-Regular-31" transform="translate(125.999985 0)"/>
       <use xlink:href="#DMSans-Regular-30" transform="translate(157.199982 0)"/>
      </g>
     </g>
    </g>
    <g id="xtick_4">
     <g id="line2d_5">
      <g>
       <use xlink:href="#m5959c4bd1f" x="353.902303" y="256.52" style="stroke: #000000; stroke-width: 0.8"/>
      </g>
     </g>
     <g id="text_4">
      <!-- 2015 -->
      <g transform="translate(342.987459 270.72) scale(0.1 -0.1)">
       <use xlink:href="#DMSans-Regular-32"/>
       <use xlink:href="#DMSans-Regular-30" transform="translate(57.599991 0)"/>
       <use xlink:href="#DMSans-Regular-31" transform="translate(125.999985 0)"/>
       <use xlink:href="#DMSans-Regular-35" transform="translate(157.199982 0)"/>
      </g>
     </g>
    </g>
    <g id="xtick_5">
     <g id="line2d_6">
      <g>
       <use xlink:href="#m5959c4bd1f" x="451.202668" y="256.52" style="stroke: #000000; stroke-width: 0.8"/>
      </g>
     </g>
     <g id="text_5">
      <!-- 2020 -->
      <g transform="translate(438.602668 270.72) scale(0.1 -0.1)">
       <use xlink:href="#DMSans-Regular-32"/>
       <use xlink:href="#DMSans-Regular-30" transform="translate(57.599991 0)"/>
       <use xlink:href="#DMSans-Regular-32" transform="translate(125.999985 0)"/>
       <use xlink:href="#DMSans-Regular-30" transform="translate(183.599976 0)"/>
      </g>
     </g>
    </g>
    <g id="xtick_6">
     <g id="line2d_7">
      <g>
       <use xlink:href="#m5959c4bd1f" x="548.449776" y="256.52" style="stroke: #000000; stroke-width: 0.8"/>
      </g>
     </g>
     <g id="text_6">
      <!-- 2025 -->
      <g transform="translate(536.215401 270.72) scale(0.1 -0.1)">
       <use xlink:href="#DMSans-Regular-32"/>
       <use xlink:href="#DMSans-Regular-30" transform="translate(57.599991 0)"/>
       <use xlink:href="#DMSans-Regular-32" transform="translate(125.999985 0)"/>
       <use xlink:href="#DMSans-Regular-35" transform="translate(183.599976 0)"/>
      </g>
     </g>
    </g>
   </g>
   <g id="matplotlib.axis_2">
    <g id="ytick_1">
     <g id="line2d_8">
      <path d="M 52.303125 231.236961 
L 555.058958 231.236961 
" clip-path="url(#p7853005c7a)" style="fill: none; stroke: #b0b0b0; stroke-opacity: 0.3; stroke-width: 0.8; stroke-linecap: square"/>
     </g>
     <g id="line2d_9">
      <defs>
       <path id="mfa93623afc" d="M 0 0 
L -3.5 0 
" style="stroke: #000000; stroke-width: 0.8"/>
      </defs>
      <g>
       <use xlink:href="#mfa93623afc" x="52.303125" y="231.236961" style="stroke: #000000; stroke-width: 0.8"/>
      </g>
     </g>
     <g id="text_7">
      <!-- $0.01 -->
      <g transform="translate(20.721875 234.836961) scale(0.1 -0.1)">
       <defs>
        <path id="DMSans-Regular-24" d="M 1632 -557 
L 1632 5062 
L 2074 5062 
L 2074 -557 
L 1632 -557 
z
M 1907 -77 
Q 1414 -77 1049 102 
Q 685 282 486 602 
Q 288 922 288 1344 
L 851 1344 
Q 851 1082 972 861 
Q 1094 640 1328 509 
Q 1562 378 1907 378 
Q 2208 378 2422 477 
Q 2637 576 2749 749 
Q 2861 922 2861 1139 
Q 2861 1402 2749 1565 
Q 2637 1728 2445 1830 
Q 2253 1933 2000 2013 
Q 1747 2093 1472 2189 
Q 941 2368 691 2633 
Q 442 2899 442 3328 
Q 442 3693 611 3968 
Q 781 4243 1097 4400 
Q 1414 4557 1850 4557 
Q 2278 4557 2595 4397 
Q 2912 4237 3091 3958 
Q 3270 3680 3270 3315 
L 2707 3315 
Q 2707 3501 2611 3680 
Q 2515 3859 2320 3977 
Q 2125 4096 1830 4096 
Q 1587 4102 1398 4016 
Q 1210 3930 1104 3770 
Q 998 3610 998 3379 
Q 998 3162 1091 3027 
Q 1184 2893 1360 2800 
Q 1536 2707 1773 2630 
Q 2010 2554 2298 2458 
Q 2624 2349 2877 2192 
Q 3130 2035 3274 1792 
Q 3418 1549 3418 1171 
Q 3418 851 3248 566 
Q 3078 282 2745 102 
Q 2413 -77 1907 -77 
z
" transform="scale(0.015625)"/>
        <path id="DMSans-Regular-2e" d="M 640 -32 
Q 480 -32 374 73 
Q 269 179 269 333 
Q 269 486 374 592 
Q 480 698 640 698 
Q 800 698 902 592 
Q 1005 486 1005 333 
Q 1005 179 902 73 
Q 800 -32 640 -32 
z
" transform="scale(0.015625)"/>
       </defs>
       <use xlink:href="#DMSans-Regular-24"/>
       <use xlink:href="#DMSans-Regular-30" transform="translate(57.999985 0)"/>
       <use xlink:href="#DMSans-Regular-2e" transform="translate(126.399979 0)"/>
       <use xlink:href="#DMSans-Regular-30" transform="translate(146.199966 0)"/>
       <use xlink:href="#DMSans-Regular-31" transform="translate(214.59996 0)"/>
      </g>
     </g>
    </g>
    <g id="ytick_2">
     <g id="line2d_10">
      <path d="M 52.303125 201.38132 
L 555.058958 201.38132 
" clip-path="url(#p7853005c7a)" style="fill: none; stroke: #b0b0b0; stroke-opacity: 0.3; stroke-width: 0.8; stroke-linecap: square"/>
     </g>
     <g id="line2d_11">
      <g>
       <use xlink:href="#mfa93623afc" x="52.303125" y="201.38132" style="stroke: #000000; stroke-width: 0.8"/>
      </g>
     </g>
     <g id="text_8">
      <!-- $0.1 -->
      <g transform="translate(27.5625 204.98132) scale(0.1 -0.1)">
       <use xlink:href="#DMSans-Regular-24"/>
       <use xlink:href="#DMSans-Regular-30" transform="translate(57.999985 0)"/>
       <use xlink:href="#DMSans-Regular-2e" transform="translate(126.399979 0)"/>
       <use xlink:href="#DMSans-Regular-31" transform="translate(146.199966 0)"/>
      </g>
     </g>
    </g>
    <g id="ytick_3">
     <g id="line2d_12">
      <path d="M 52.303125 171.525679 
L 555.058958 171.525679 
" clip-path="url(#p7853005c7a)" style="fill: none; stroke: #b0b0b0; stroke-opacity: 0.3; stroke-width: 0.8; stroke-linecap: square"/>
     </g>
     <g id="line2d_13">
      <g>
       <use xlink:href="#mfa93623afc" x="52.303125" y="171.525679" style="stroke: #000000; stroke-width: 0.8"/>
      </g>
     </g>
     <g id="text_9">
      <!-- $1 -->
      <g transform="translate(36.382812 175.125679) scale(0.1 -0.1)">
       <use xlink:href="#DMSans-Regular-24"/>
       <use xlink:href="#DMSans-Regular-31" transform="translate(57.999985 0)"/>
      </g>
     </g>
    </g>
    <g id="ytick_4">
     <g id="line2d_14">
      <path d="M 52.303125 141.670038 
L 555.058958 141.670038 
" clip-path="url(#p7853005c7a)" style="fill: none; stroke: #b0b0b0; stroke-opacity: 0.3; stroke-width: 0.8; stroke-linecap: square"/>
     </g>
     <g id="line2d_15">
      <g>
       <use xlink:href="#mfa93623afc" x="52.303125" y="141.670038" style="stroke: #000000; stroke-width: 0.8"/>
      </g>
     </g>
     <g id="text_10">
      <!-- $10 -->
      <g transform="translate(29.542188 145.270038) scale(0.1 -0.1)">
       <use xlink:href="#DMSans-Regular-24"/>
       <use xlink:href="#DMSans-Regular-31" transform="translate(57.999985 0)"/>
       <use xlink:href="#DMSans-Regular-30" transform="translate(89.199982 0)"/>
      </g>
     </g>
    </g>
    <g id="ytick_5">
     <g id="line2d_16">
      <path d="M 52.303125 111.814397 
L 555.058958 111.814397 
" clip-path="url(#p7853005c7a)" style="fill: none; stroke: #b0b0b0; stroke-opacity: 0.3; stroke-width: 0.8; stroke-linecap: square"/>
     </g>
     <g id="line2d_17">
      <g>
       <use xlink:href="#mfa93623afc" x="52.303125" y="111.814397" style="stroke: #000000; stroke-width: 0.8"/>
      </g>
     </g>
     <g id="text_11">
      <!-- $100 -->
      <g transform="translate(22.701563 115.414397) scale(0.1 -0.1)">
       <use xlink:href="#DMSans-Regular-24"/>
       <use xlink:href="#DMSans-Regular-31" transform="translate(57.999985 0)"/>
       <use xlink:href="#DMSans-Regular-30" transform="translate(89.199982 0)"/>
       <use xlink:href="#DMSans-Regular-30" transform="translate(157.599976 0)"/>
      </g>
     </g>
    </g>
    <g id="ytick_6">
     <g id="line2d_18">
      <path d="M 52.303125 81.958756 
L 555.058958 81.958756 
" clip-path="url(#p7853005c7a)" style="fill: none; stroke: #b0b0b0; stroke-opacity: 0.3; stroke-width: 0.8; stroke-linecap: square"/>
     </g>
     <g id="line2d_19">
      <g>
       <use xlink:href="#mfa93623afc" x="52.303125" y="81.958756" style="stroke: #000000; stroke-width: 0.8"/>
      </g>
     </g>
     <g id="text_12">
      <!-- $1,000 -->
      <g transform="translate(14.040625 85.558756) scale(0.1 -0.1)">
       <defs>
        <path id="DMSans-Regular-2c" d="M 26 -787 
L 397 627 
L 954 627 
L 397 -787 
L 26 -787 
z
" transform="scale(0.015625)"/>
       </defs>
       <use xlink:href="#DMSans-Regular-24"/>
       <use xlink:href="#DMSans-Regular-31" transform="translate(57.999985 0)"/>
       <use xlink:href="#DMSans-Regular-2c" transform="translate(89.199982 0)"/>
       <use xlink:href="#DMSans-Regular-30" transform="translate(107.399979 0)"/>
       <use xlink:href="#DMSans-Regular-30" transform="translate(175.799973 0)"/>
       <use xlink:href="#DMSans-Regular-30" transform="translate(244.199966 0)"/>
      </g>
     </g>
    </g>
    <g id="ytick_7">
     <g id="line2d_20">
      <path d="M 52.303125 52.103115 
L 555.058958 52.103115 
" clip-path="url(#p7853005c7a)" style="fill: none; stroke: #b0b0b0; stroke-opacity: 0.3; stroke-width: 0.8; stroke-linecap: square"/>
     </g>
     <g id="line2d_21">
      <g>
       <use xlink:href="#mfa93623afc" x="52.303125" y="52.103115" style="stroke: #000000; stroke-width: 0.8"/>
      </g>
     </g>
     <g id="text_13">
      <!-- $10,000 -->
      <g transform="translate(7.2 55.703115) scale(0.1 -0.1)">
       <use xlink:href="#DMSans-Regular-24"/>
       <use xlink:href="#DMSans-Regular-31" transform="translate(57.999985 0)"/>
       <use xlink:href="#DMSans-Regular-30" transform="translate(89.199982 0)"/>
       <use xlink:href="#DMSans-Regular-2c" transform="translate(157.599976 0)"/>
       <use xlink:href="#DMSans-Regular-30" transform="translate(175.799973 0)"/>
       <use xlink:href="#DMSans-Regular-30" transform="translate(244.199966 0)"/>
       <use xlink:href="#DMSans-Regular-30" transform="translate(312.59996 0)"/>
      </g>
     </g>
    </g>
   </g>
   <g id="line2d_22">
    <path d="M 75.155663 53.404659 
L 84.795163 57.448965 
L 94.594433 59.278113 
L 104.233933 61.151561 
L 115.630911 65.130219 
L 120.530546 69.541676 
L 125.376924 74.081256 
L 130.223303 74.489732 
L 135.122938 75.544535 
L 140.022573 76.355997 
L 144.815694 77.507974 
L 149.662073 77.60921 
L 154.561708 79.777421 
L 159.461343 81.064411 
L 164.254465 82.087133 
L 169.100843 82.487421 
L 174.000478 83.694296 
L 178.900114 85.208344 
L 183.693235 85.806616 
L 188.539613 86.049994 
L 193.439249 88.985207 
L 198.338884 106.640047 
L 203.185262 131.548406 
L 208.031641 139.251529 
L 212.931276 149.472052 
L 217.830911 154.466364 
L 222.624032 159.752296 
L 227.470411 164.435535 
L 232.370046 170.062084 
L 237.269681 175.35659 
L 242.062803 180.553022 
L 246.909181 180.592381 
L 251.808816 181.829361 
L 256.708452 186.177517 
L 261.501573 188.740233 
L 266.347951 194.776446 
L 271.247587 198.521946 
L 276.147222 198.597841 
L 280.9936 201.909841 
L 285.839979 201.980823 
L 290.739614 202.045618 
L 295.639249 204.095769 
L 300.43237 204.123664 
L 305.278749 204.187062 
L 310.178384 204.255452 
L 315.078019 209.561864 
L 319.871141 206.741713 
L 324.717519 206.794906 
L 329.617154 204.443761 
L 334.51679 209.693979 
L 339.309911 206.874954 
L 344.156289 222.520161 
L 349.055925 223.414466 
L 360.399645 224.451936 
L 365.299281 221.006701 
L 370.198916 222.692149 
L 375.098551 226.779579 
L 379.838416 222.791941 
L 384.738051 224.713856 
L 389.637686 219.207762 
L 394.537321 223.91467 
L 399.277186 222.274627 
L 404.176821 222.330491 
L 409.076456 223.223057 
L 413.976092 227.283403 
L 418.715956 233.210742 
L 423.615591 228.627176 
L 428.515227 231.560744 
L 433.414862 233.351913 
L 438.207983 231.572648 
L 443.107619 231.685565 
L 448.007254 235.503491 
L 452.906889 230.409409 
L 457.646754 238.229972 
L 462.546389 236.059265 
L 467.446024 236.282866 
L 472.345659 236.543739 
L 477.085524 236.834647 
L 499.772965 239.741858 
L 519.264993 246.653977 
L 532.20642 246.847841 
" clip-path="url(#p7853005c7a)" style="fill: none; stroke: #08a4a4; stroke-width: 2; stroke-linecap: square"/>
    <defs>
     <path id="m7d4b76f40a" d="M 0 2 
C 0.530406 2 1.03916 1.789267 1.414214 1.414214 
C 1.789267 1.03916 2 0.530406 2 0 
C 2 -0.530406 1.789267 -1.03916 1.414214 -1.414214 
C 1.03916 -1.789267 0.530406 -2 0 -2 
C -0.530406 -2 -1.03916 -1.789267 -1.414214 -1.414214 
C -1.789267 -1.03916 -2 -0.530406 -2 0 
C -2 0.530406 -1.789267 1.03916 -1.414214 1.414214 
C -1.03916 1.789267 -0.530406 2 0 2 
z
" style="stroke: #08a4a4"/>
    </defs>
    <g clip-path="url(#p7853005c7a)">
     <use xlink:href="#m7d4b76f40a" x="75.155663" y="53.404659" style="fill: #08a4a4; stroke: #08a4a4"/>
     <use xlink:href="#m7d4b76f40a" x="84.795163" y="57.448965" style="fill: #08a4a4; stroke: #08a4a4"/>
     <use xlink:href="#m7d4b76f40a" x="94.594433" y="59.278113" style="fill: #08a4a4; stroke: #08a4a4"/>
     <use xlink:href="#m7d4b76f40a" x="104.233933" y="61.151561" style="fill: #08a4a4; stroke: #08a4a4"/>
     <use xlink:href="#m7d4b76f40a" x="115.630911" y="65.130219" style="fill: #08a4a4; stroke: #08a4a4"/>
     <use xlink:href="#m7d4b76f40a" x="120.530546" y="69.541676" style="fill: #08a4a4; stroke: #08a4a4"/>
     <use xlink:href="#m7d4b76f40a" x="125.376924" y="74.081256" style="fill: #08a4a4; stroke: #08a4a4"/>
     <use xlink:href="#m7d4b76f40a" x="130.223303" y="74.489732" style="fill: #08a4a4; stroke: #08a4a4"/>
     <use xlink:href="#m7d4b76f40a" x="135.122938" y="75.544535" style="fill: #08a4a4; stroke: #08a4a4"/>
     <use xlink:href="#m7d4b76f40a" x="140.022573" y="76.355997" style="fill: #08a4a4; stroke: #08a4a4"/>
     <use xlink:href="#m7d4b76f40a" x="144.815694" y="77.507974" style="fill: #08a4a4; stroke: #08a4a4"/>
     <use xlink:href="#m7d4b76f40a" x="149.662073" y="77.60921" style="fill: #08a4a4; stroke: #08a4a4"/>
     <use xlink:href="#m7d4b76f40a" x="154.561708" y="79.777421" style="fill: #08a4a4; stroke: #08a4a4"/>
     <use xlink:href="#m7d4b76f40a" x="159.461343" y="81.064411" style="fill: #08a4a4; stroke: #08a4a4"/>
     <use xlink:href="#m7d4b76f40a" x="164.254465" y="82.087133" style="fill: #08a4a4; stroke: #08a4a4"/>
     <use xlink:href="#m7d4b76f40a" x="169.100843" y="82.487421" style="fill: #08a4a4; stroke: #08a4a4"/>
     <use xlink:href="#m7d4b76f40a" x="174.000478" y="83.694296" style="fill: #08a4a4; stroke: #08a4a4"/>
     <use xlink:href="#m7d4b76f40a" x="178.900114" y="85.208344" style="fill: #08a4a4; stroke: #08a4a4"/>
     <use xlink:href="#m7d4b76f40a" x="183.693235" y="85.806616" style="fill: #08a4a4; stroke: #08a4a4"/>
     <use xlink:href="#m7d4b76f40a" x="188.539613" y="86.049994" style="fill: #08a4a4; stroke: #08a4a4"/>
     <use xlink:href="#m7d4b76f40a" x="193.439249" y="88.985207" style="fill: #08a4a4; stroke: #08a4a4"/>
     <use xlink:href="#m7d4b76f40a" x="198.338884" y="106.640047" style="fill: #08a4a4; stroke: #08a4a4"/>
     <use xlink:href="#m7d4b76f40a" x="203.185262" y="131.548406" style="fill: #08a4a4; stroke: #08a4a4"/>
     <use xlink:href="#m7d4b76f40a" x="208.031641" y="139.251529" style="fill: #08a4a4; stroke: #08a4a4"/>
     <use xlink:href="#m7d4b76f40a" x="212.931276" y="149.472052" style="fill: #08a4a4; stroke: #08a4a4"/>
     <use xlink:href="#m7d4b76f40a" x="217.830911" y="154.466364" style="fill: #08a4a4; stroke: #08a4a4"/>
     <use xlink:href="#m7d4b76f40a" x="222.624032" y="159.752296" style="fill: #08a4a4; stroke: #08a4a4"/>
     <use xlink:href="#m7d4b76f40a" x="227.470411" y="164.435535" style="fill: #08a4a4; stroke: #08a4a4"/>
     <use xlink:href="#m7d4b76f40a" x="232.370046" y="170.062084" style="fill: #08a4a4; stroke: #08a4a4"/>
     <use xlink:href="#m7d4b76f40a" x="237.269681" y="175.35659" style="fill: #08a4a4; stroke: #08a4a4"/>
     <use xlink:href="#m7d4b76f40a" x="242.062803" y="180.553022" style="fill: #08a4a4; stroke: #08a4a4"/>
     <use xlink:href="#m7d4b76f40a" x="246.909181" y="180.592381" style="fill: #08a4a4; stroke: #08a4a4"/>
     <use xlink:href="#m7d4b76f40a" x="251.808816" y="181.829361" style="fill: #08a4a4; stroke: #08a4a4"/>
     <use xlink:href="#m7d4b76f40a" x="256.708452" y="186.177517" style="fill: #08a4a4; stroke: #08a4a4"/>
     <use xlink:href="#m7d4b76f40a" x="261.501573" y="188.740233" style="fill: #08a4a4; stroke: #08a4a4"/>
     <use xlink:href="#m7d4b76f40a" x="266.347951" y="194.776446" style="fill: #08a4a4; stroke: #08a4a4"/>
     <use xlink:href="#m7d4b76f40a" x="271.247587" y="198.521946" style="fill: #08a4a4; stroke: #08a4a4"/>
     <use xlink:href="#m7d4b76f40a" x="276.147222" y="198.597841" style="fill: #08a4a4; stroke: #08a4a4"/>
     <use xlink:href="#m7d4b76f40a" x="280.9936" y="201.909841" style="fill: #08a4a4; stroke: #08a4a4"/>
     <use xlink:href="#m7d4b76f40a" x="285.839979" y="201.980823" style="fill: #08a4a4; stroke: #08a4a4"/>
     <use xlink:href="#m7d4b76f40a" x="290.739614" y="202.045618" style="fill: #08a4a4; stroke: #08a4a4"/>
     <use xlink:href="#m7d4b76f40a" x="295.639249" y="204.095769" style="fill: #08a4a4; stroke: #08a4a4"/>
     <use xlink:href="#m7d4b76f40a" x="300.43237" y="204.123664" style="fill: #08a4a4; stroke: #08a4a4"/>
     <use xlink:href="#m7d4b76f40a" x="305.278749" y="204.187062" style="fill: #08a4a4; stroke: #08a4a4"/>
     <use xlink:href="#m7d4b76f40a" x="310.178384" y="204.255452" style="fill: #08a4a4; stroke: #08a4a4"/>
     <use xlink:href="#m7d4b76f40a" x="315.078019" y="209.561864" style="fill: #08a4a4; stroke: #08a4a4"/>
     <use xlink:href="#m7d4b76f40a" x="319.871141" y="206.741713" style="fill: #08a4a4; stroke: #08a4a4"/>
     <use xlink:href="#m7d4b76f40a" x="324.717519" y="206.794906" style="fill: #08a4a4; stroke: #08a4a4"/>
     <use xlink:href="#m7d4b76f40a" x="329.617154" y="204.443761" style="fill: #08a4a4; stroke: #08a4a4"/>
     <use xlink:href="#m7d4b76f40a" x="334.51679" y="209.693979" style="fill: #08a4a4; stroke: #08a4a4"/>
     <use xlink:href="#m7d4b76f40a" x="339.309911" y="206.874954" style="fill: #08a4a4; stroke: #08a4a4"/>
     <use xlink:href="#m7d4b76f40a" x="344.156289" y="222.520161" style="fill: #08a4a4; stroke: #08a4a4"/>
     <use xlink:href="#m7d4b76f40a" x="349.055925" y="223.414466" style="fill: #08a4a4; stroke: #08a4a4"/>
     <use xlink:href="#m7d4b76f40a" x="360.399645" y="224.451936" style="fill: #08a4a4; stroke: #08a4a4"/>
     <use xlink:href="#m7d4b76f40a" x="365.299281" y="221.006701" style="fill: #08a4a4; stroke: #08a4a4"/>
     <use xlink:href="#m7d4b76f40a" x="370.198916" y="222.692149" style="fill: #08a4a4; stroke: #08a4a4"/>
     <use xlink:href="#m7d4b76f40a" x="375.098551" y="226.779579" style="fill: #08a4a4; stroke: #08a4a4"/>
     <use xlink:href="#m7d4b76f40a" x="379.838416" y="222.791941" style="fill: #08a4a4; stroke: #08a4a4"/>
     <use xlink:href="#m7d4b76f40a" x="384.738051" y="224.713856" style="fill: #08a4a4; stroke: #08a4a4"/>
     <use xlink:href="#m7d4b76f40a" x="389.637686" y="219.207762" style="fill: #08a4a4; stroke: #08a4a4"/>
     <use xlink:href="#m7d4b76f40a" x="394.537321" y="223.91467" style="fill: #08a4a4; stroke: #08a4a4"/>
     <use xlink:href="#m7d4b76f40a" x="399.277186" y="222.274627" style="fill: #08a4a4; stroke: #08a4a4"/>
     <use xlink:href="#m7d4b76f40a" x="404.176821" y="222.330491" style="fill: #08a4a4; stroke: #08a4a4"/>
     <use xlink:href="#m7d4b76f40a" x="409.076456" y="223.223057" style="fill: #08a4a4; stroke: #08a4a4"/>
     <use xlink:href="#m7d4b76f40a" x="413.976092" y="227.283403" style="fill: #08a4a4; stroke: #08a4a4"/>
     <use xlink:href="#m7d4b76f40a" x="418.715956" y="233.210742" style="fill: #08a4a4; stroke: #08a4a4"/>
     <use xlink:href="#m7d4b76f40a" x="423.615591" y="228.627176" style="fill: #08a4a4; stroke: #08a4a4"/>
     <use xlink:href="#m7d4b76f40a" x="428.515227" y="231.560744" style="fill: #08a4a4; stroke: #08a4a4"/>
     <use xlink:href="#m7d4b76f40a" x="433.414862" y="233.351913" style="fill: #08a4a4; stroke: #08a4a4"/>
     <use xlink:href="#m7d4b76f40a" x="438.207983" y="231.572648" style="fill: #08a4a4; stroke: #08a4a4"/>
     <use xlink:href="#m7d4b76f40a" x="443.107619" y="231.685565" style="fill: #08a4a4; stroke: #08a4a4"/>
     <use xlink:href="#m7d4b76f40a" x="448.007254" y="235.503491" style="fill: #08a4a4; stroke: #08a4a4"/>
     <use xlink:href="#m7d4b76f40a" x="452.906889" y="230.409409" style="fill: #08a4a4; stroke: #08a4a4"/>
     <use xlink:href="#m7d4b76f40a" x="457.646754" y="238.229972" style="fill: #08a4a4; stroke: #08a4a4"/>
     <use xlink:href="#m7d4b76f40a" x="462.546389" y="236.059265" style="fill: #08a4a4; stroke: #08a4a4"/>
     <use xlink:href="#m7d4b76f40a" x="467.446024" y="236.282866" style="fill: #08a4a4; stroke: #08a4a4"/>
     <use xlink:href="#m7d4b76f40a" x="472.345659" y="236.543739" style="fill: #08a4a4; stroke: #08a4a4"/>
     <use xlink:href="#m7d4b76f40a" x="477.085524" y="236.834647" style="fill: #08a4a4; stroke: #08a4a4"/>
     <use xlink:href="#m7d4b76f40a" x="499.772965" y="239.741858" style="fill: #08a4a4; stroke: #08a4a4"/>
     <use xlink:href="#m7d4b76f40a" x="519.264993" y="246.653977" style="fill: #08a4a4; stroke: #08a4a4"/>
     <use xlink:href="#m7d4b76f40a" x="532.20642" y="246.847841" style="fill: #08a4a4; stroke: #08a4a4"/>
    </g>
   </g>
   <g id="patch_3">
    <path d="M 52.303125 256.52 
L 52.303125 43.7325 
" style="fill: none; stroke: #000000; stroke-width: 0.8; stroke-linejoin: miter; stroke-linecap: square"/>
   </g>
   <g id="patch_4">
    <path d="M 52.303125 256.52 
L 555.058958 256.52 
" style="fill: none; stroke: #000000; stroke-width: 0.8; stroke-linejoin: miter; stroke-linecap: square"/>
   </g>
   <g id="text_14">
    <!-- Introduction of -->
    <g style="fill: #067a7a" transform="translate(201.534298 65.82338) scale(0.09 -0.09)">
     <defs>
      <path id="DMSans-Bold-49" d="M 442 0 
L 442 4480 
L 1306 4480 
L 1306 0 
L 442 0 
z
" transform="scale(0.015625)"/>
      <path id="DMSans-Bold-6e" d="M 422 0 
L 422 3226 
L 1184 3226 
L 1248 2701 
L 1248 2701 
Q 1395 2970 1667 3136 
Q 1939 3302 2317 3302 
Q 2720 3302 2995 3136 
Q 3270 2970 3414 2650 
Q 3558 2330 3558 1862 
L 3558 0 
L 2701 0 
L 2701 1779 
Q 2701 2163 2537 2368 
Q 2374 2573 2035 2573 
Q 1818 2573 1648 2470 
Q 1478 2368 1382 2179 
Q 1286 1990 1286 1722 
L 1286 0 
L 422 0 
z
" transform="scale(0.015625)"/>
      <path id="DMSans-Bold-74" d="M 1875 0 
Q 1536 0 1283 105 
Q 1030 211 889 457 
Q 749 704 749 1133 
L 749 2502 
L 198 2502 
L 198 3226 
L 749 3226 
L 845 4102 
L 1613 4102 
L 1613 3226 
L 2464 3226 
L 2464 2502 
L 1613 2502 
L 1613 1120 
Q 1613 902 1709 819 
Q 1805 736 2035 736 
L 2458 736 
L 2458 0 
L 1875 0 
z
" transform="scale(0.015625)"/>
      <path id="DMSans-Bold-72" d="M 422 0 
L 422 3226 
L 1190 3226 
L 1274 2630 
L 1274 2630 
Q 1389 2842 1565 2989 
Q 1741 3136 1968 3219 
Q 2195 3302 2470 3302 
L 2470 2387 
L 2176 2387 
Q 1984 2387 1821 2342 
Q 1658 2298 1536 2198 
Q 1414 2099 1350 1926 
Q 1286 1754 1286 1491 
L 1286 0 
L 422 0 
z
" transform="scale(0.015625)"/>
      <path id="DMSans-Bold-6f" d="M 1946 -77 
Q 1485 -77 1117 137 
Q 749 352 534 733 
Q 320 1114 320 1606 
Q 320 2112 534 2493 
Q 749 2874 1120 3088 
Q 1491 3302 1952 3302 
Q 2419 3302 2787 3088 
Q 3155 2874 3369 2493 
Q 3584 2112 3584 1613 
Q 3584 1114 3369 733 
Q 3155 352 2784 137 
Q 2413 -77 1946 -77 
z
M 1946 672 
Q 2163 672 2332 774 
Q 2502 877 2601 1088 
Q 2701 1299 2701 1613 
Q 2701 1926 2601 2134 
Q 2502 2342 2332 2448 
Q 2163 2554 1952 2554 
Q 1747 2554 1574 2448 
Q 1402 2342 1302 2134 
Q 1203 1926 1203 1613 
Q 1203 1299 1302 1088 
Q 1402 877 1571 774 
Q 1741 672 1946 672 
z
" transform="scale(0.015625)"/>
      <path id="DMSans-Bold-64" d="M 1856 -77 
Q 1414 -77 1065 140 
Q 717 358 518 742 
Q 320 1126 320 1606 
Q 320 2099 521 2480 
Q 723 2861 1078 3081 
Q 1434 3302 1875 3302 
Q 2221 3302 2483 3174 
Q 2746 3046 2906 2810 
L 2906 4608 
L 3770 4608 
L 3770 0 
L 3002 0 
L 2906 442 
L 2906 442 
Q 2810 307 2666 185 
Q 2522 64 2323 -6 
Q 2125 -77 1856 -77 
z
M 2061 678 
Q 2317 678 2512 796 
Q 2707 915 2816 1126 
Q 2925 1338 2925 1613 
Q 2925 1888 2816 2099 
Q 2707 2310 2512 2428 
Q 2317 2547 2061 2547 
Q 1818 2547 1619 2428 
Q 1421 2310 1309 2099 
Q 1197 1888 1197 1619 
Q 1197 1338 1309 1126 
Q 1421 915 1616 796 
Q 1811 678 2061 678 
z
" transform="scale(0.015625)"/>
      <path id="DMSans-Bold-75" d="M 1626 -77 
Q 1235 -77 956 86 
Q 678 250 531 566 
Q 384 883 384 1350 
L 384 3226 
L 1248 3226 
L 1248 1440 
Q 1248 1050 1411 851 
Q 1574 653 1914 653 
Q 2131 653 2297 752 
Q 2464 851 2563 1040 
Q 2662 1229 2662 1504 
L 2662 3226 
L 3520 3226 
L 3520 0 
L 2765 0 
L 2694 525 
L 2694 525 
Q 2554 250 2278 86 
Q 2003 -77 1626 -77 
z
" transform="scale(0.015625)"/>
      <path id="DMSans-Bold-63" d="M 1984 -77 
Q 1498 -77 1120 140 
Q 742 358 531 736 
Q 320 1114 320 1600 
Q 320 2099 531 2480 
Q 742 2861 1120 3081 
Q 1498 3302 1984 3302 
Q 2605 3302 3027 2976 
Q 3450 2650 3565 2080 
L 2650 2080 
Q 2592 2304 2409 2432 
Q 2227 2560 1978 2560 
Q 1754 2560 1578 2448 
Q 1402 2336 1302 2121 
Q 1203 1907 1203 1613 
Q 1203 1389 1260 1213 
Q 1318 1037 1420 912 
Q 1523 787 1667 723 
Q 1811 659 1978 659 
Q 2144 659 2281 716 
Q 2419 774 2515 880 
Q 2611 986 2650 1139 
L 3565 1139 
Q 3450 582 3024 252 
Q 2598 -77 1984 -77 
z
" transform="scale(0.015625)"/>
      <path id="DMSans-Bold-69" d="M 442 0 
L 442 3226 
L 1306 3226 
L 1306 0 
L 442 0 
z
M 877 3667 
Q 646 3667 496 3804 
Q 346 3942 346 4154 
Q 346 4365 496 4502 
Q 646 4640 877 4640 
Q 1114 4640 1264 4502 
Q 1414 4365 1414 4154 
Q 1414 3942 1264 3804 
Q 1114 3667 877 3667 
z
" transform="scale(0.015625)"/>
      <path id="DMSans-Bold-20" transform="scale(0.015625)"/>
      <path id="DMSans-Bold-66" d="M 570 0 
L 570 3514 
Q 570 3917 704 4153 
Q 838 4390 1091 4499 
Q 1344 4608 1683 4608 
L 2080 4608 
L 2080 3872 
L 1811 3872 
Q 1606 3872 1520 3792 
Q 1434 3712 1434 3514 
L 1434 0 
L 570 0 
z
M 128 2502 
L 128 3226 
L 2131 3226 
L 2131 2502 
L 128 2502 
z
" transform="scale(0.015625)"/>
     </defs>
     <use xlink:href="#DMSans-Bold-49"/>
     <use xlink:href="#DMSans-Bold-6e" transform="translate(27.199997 0)"/>
     <use xlink:href="#DMSans-Bold-74" transform="translate(88.899994 0)"/>
     <use xlink:href="#DMSans-Bold-72" transform="translate(132.199982 0)"/>
     <use xlink:href="#DMSans-Bold-6f" transform="translate(173.099976 0)"/>
     <use xlink:href="#DMSans-Bold-64" transform="translate(234.09996 0)"/>
     <use xlink:href="#DMSans-Bold-75" transform="translate(299.599945 0)"/>
     <use xlink:href="#DMSans-Bold-63" transform="translate(361.199936 0)"/>
     <use xlink:href="#DMSans-Bold-74" transform="translate(421.899933 0)"/>
     <use xlink:href="#DMSans-Bold-69" transform="translate(465.199921 0)"/>
     <use xlink:href="#DMSans-Bold-6f" transform="translate(492.599915 0)"/>
     <use xlink:href="#DMSans-Bold-6e" transform="translate(553.599899 0)"/>
     <use xlink:href="#DMSans-Bold-20" transform="translate(615.299896 0)"/>
     <use xlink:href="#DMSans-Bold-6f" transform="translate(638.799881 0)"/>
     <use xlink:href="#DMSans-Bold-66" transform="translate(699.799866 0)"/>
    </g>
    <!-- Next-Gen Sequencing -->
    <g style="fill: #067a7a" transform="translate(201.534298 75.63338) scale(0.09 -0.09)">
     <defs>
      <path id="DMSans-Bold-4e" d="M 442 0 
L 442 4480 
L 1306 4480 
L 3366 1389 
L 3366 1389 
L 3366 4480 
L 4230 4480 
L 4230 0 
L 3366 0 
L 1306 3085 
L 1306 3085 
L 1306 0 
L 442 0 
z
" transform="scale(0.015625)"/>
      <path id="DMSans-Bold-65" d="M 1971 -77 
Q 1485 -77 1110 131 
Q 736 339 528 713 
Q 320 1088 320 1581 
Q 320 2086 525 2473 
Q 730 2861 1104 3081 
Q 1478 3302 1971 3302 
Q 2451 3302 2809 3091 
Q 3168 2880 3366 2521 
Q 3565 2163 3565 1709 
Q 3565 1645 3565 1565 
Q 3565 1485 3552 1402 
L 934 1402 
L 934 1926 
L 2694 1926 
Q 2675 2240 2473 2419 
Q 2272 2598 1971 2598 
Q 1754 2598 1568 2499 
Q 1382 2400 1276 2195 
Q 1171 1990 1171 1677 
L 1171 1491 
Q 1171 1229 1270 1033 
Q 1370 838 1549 732 
Q 1728 627 1965 627 
Q 2202 627 2358 729 
Q 2515 832 2592 992 
L 3475 992 
Q 3386 691 3174 448 
Q 2963 205 2656 64 
Q 2349 -77 1971 -77 
z
" transform="scale(0.015625)"/>
      <path id="DMSans-Bold-78" d="M 122 0 
L 1280 1613 
L 122 3226 
L 1056 3226 
L 1830 2118 
L 1830 2118 
L 2605 3226 
L 3533 3226 
L 2374 1613 
L 3533 0 
L 2605 0 
L 1830 1114 
L 1830 1114 
L 1056 0 
L 122 0 
z
" transform="scale(0.015625)"/>
      <path id="DMSans-Bold-2d" d="M 490 1523 
L 490 2246 
L 3190 2246 
L 3190 1523 
L 490 1523 
z
" transform="scale(0.015625)"/>
      <path id="DMSans-Bold-47" d="M 2406 -77 
Q 1766 -77 1292 208 
Q 819 493 556 1008 
Q 294 1523 294 2208 
Q 294 2899 563 3427 
Q 832 3955 1337 4256 
Q 1843 4557 2547 4557 
Q 3334 4557 3856 4179 
Q 4378 3802 4531 3130 
L 3565 3130 
Q 3469 3424 3209 3593 
Q 2950 3763 2541 3763 
Q 2106 3763 1798 3571 
Q 1491 3379 1331 3033 
Q 1171 2688 1171 2208 
Q 1171 1722 1331 1382 
Q 1491 1043 1788 867 
Q 2086 691 2490 691 
Q 3078 691 3382 1008 
Q 3686 1325 3744 1830 
L 2643 1830 
L 2643 2477 
L 4614 2477 
L 4614 0 
L 3814 0 
L 3750 570 
L 3750 570 
Q 3610 358 3421 214 
Q 3232 70 2982 -3 
Q 2733 -77 2406 -77 
z
" transform="scale(0.015625)"/>
      <path id="DMSans-Bold-53" d="M 1984 -77 
Q 1498 -77 1117 89 
Q 736 256 515 576 
Q 294 896 288 1350 
L 1203 1350 
Q 1210 1152 1306 992 
Q 1402 832 1571 739 
Q 1741 646 1978 646 
Q 2182 646 2332 713 
Q 2483 781 2566 902 
Q 2650 1024 2650 1190 
Q 2650 1382 2557 1510 
Q 2464 1638 2301 1728 
Q 2138 1818 1923 1891 
Q 1709 1965 1472 2048 
Q 941 2221 662 2509 
Q 384 2797 384 3270 
Q 384 3674 579 3962 
Q 774 4250 1120 4403 
Q 1466 4557 1907 4557 
Q 2362 4557 2704 4400 
Q 3046 4243 3248 3948 
Q 3450 3654 3456 3258 
L 2534 3258 
Q 2528 3405 2448 3536 
Q 2368 3667 2227 3747 
Q 2086 3827 1894 3827 
Q 1728 3834 1590 3776 
Q 1453 3718 1373 3606 
Q 1293 3494 1293 3328 
Q 1293 3168 1373 3059 
Q 1453 2950 1593 2870 
Q 1734 2790 1926 2723 
Q 2118 2656 2342 2586 
Q 2675 2470 2956 2313 
Q 3238 2157 3404 1907 
Q 3571 1658 3571 1248 
Q 3571 896 3385 595 
Q 3200 294 2851 108 
Q 2502 -77 1984 -77 
z
" transform="scale(0.015625)"/>
      <path id="DMSans-Bold-71" d="M 2906 -1408 
L 2906 448 
Q 2752 218 2499 70 
Q 2246 -77 1875 -77 
Q 1427 -77 1075 144 
Q 723 365 521 749 
Q 320 1133 320 1613 
Q 320 2099 521 2480 
Q 723 2861 1078 3081 
Q 1434 3302 1875 3302 
Q 2118 3302 2310 3241 
Q 2502 3181 2652 3069 
Q 2803 2957 2906 2803 
L 2906 2803 
L 3002 3226 
L 3770 3226 
L 3770 -1408 
L 2906 -1408 
z
M 2061 678 
Q 2317 678 2512 796 
Q 2707 915 2816 1126 
Q 2925 1338 2925 1613 
Q 2925 1888 2816 2099 
Q 2707 2310 2512 2428 
Q 2317 2547 2061 2547 
Q 1818 2547 1619 2428 
Q 1421 2310 1309 2099 
Q 1197 1888 1197 1619 
Q 1197 1338 1309 1126 
Q 1421 915 1616 796 
Q 1811 678 2061 678 
z
" transform="scale(0.015625)"/>
      <path id="DMSans-Bold-67" d="M 1811 -1485 
Q 1350 -1485 1004 -1373 
Q 659 -1261 470 -1033 
Q 282 -806 282 -474 
Q 282 -250 397 -51 
Q 512 147 733 310 
Q 954 474 1286 589 
L 1613 166 
Q 1318 70 1187 -74 
Q 1056 -218 1056 -384 
Q 1056 -531 1155 -633 
Q 1254 -736 1424 -784 
Q 1594 -832 1805 -832 
Q 2010 -832 2160 -781 
Q 2310 -730 2396 -630 
Q 2483 -531 2483 -397 
Q 2483 -224 2361 -115 
Q 2240 -6 1875 19 
Q 1549 45 1296 93 
Q 1043 141 851 208 
Q 659 275 528 358 
Q 397 442 314 525 
L 314 672 
L 998 1408 
L 1619 1210 
L 813 416 
L 1056 838 
Q 1126 800 1193 765 
Q 1261 730 1363 701 
Q 1466 672 1632 646 
Q 1798 621 2054 602 
Q 2477 563 2749 441 
Q 3021 320 3149 118 
Q 3277 -83 3277 -378 
Q 3277 -666 3120 -918 
Q 2963 -1171 2636 -1328 
Q 2310 -1485 1811 -1485 
z
M 1811 954 
Q 1408 954 1117 1110 
Q 826 1267 669 1532 
Q 512 1798 512 2125 
Q 512 2451 669 2716 
Q 826 2982 1117 3142 
Q 1408 3302 1811 3302 
Q 2221 3302 2512 3142 
Q 2803 2982 2956 2716 
Q 3110 2451 3110 2125 
Q 3110 1798 2956 1532 
Q 2803 1267 2512 1110 
Q 2221 954 1811 954 
z
M 1811 1613 
Q 2061 1613 2214 1741 
Q 2368 1869 2368 2118 
Q 2368 2368 2214 2499 
Q 2061 2630 1811 2630 
Q 1568 2630 1411 2499 
Q 1254 2368 1254 2118 
Q 1254 1869 1411 1741 
Q 1568 1613 1811 1613 
z
M 2349 2611 
L 2208 3226 
L 3533 3226 
L 3533 2714 
L 2349 2611 
z
" transform="scale(0.015625)"/>
     </defs>
     <use xlink:href="#DMSans-Bold-4e"/>
     <use xlink:href="#DMSans-Bold-65" transform="translate(72.899994 0)"/>
     <use xlink:href="#DMSans-Bold-78" transform="translate(133.099991 0)"/>
     <use xlink:href="#DMSans-Bold-74" transform="translate(190.199982 0)"/>
     <use xlink:href="#DMSans-Bold-2d" transform="translate(233.499969 0)"/>
     <use xlink:href="#DMSans-Bold-47" transform="translate(291.09996 0)"/>
     <use xlink:href="#DMSans-Bold-65" transform="translate(368.899948 0)"/>
     <use xlink:href="#DMSans-Bold-6e" transform="translate(429.099945 0)"/>
     <use xlink:href="#DMSans-Bold-20" transform="translate(490.799942 0)"/>
     <use xlink:href="#DMSans-Bold-53" transform="translate(514.299927 0)"/>
     <use xlink:href="#DMSans-Bold-65" transform="translate(574.699921 0)"/>
     <use xlink:href="#DMSans-Bold-71" transform="translate(634.899918 0)"/>
     <use xlink:href="#DMSans-Bold-75" transform="translate(700.399902 0)"/>
     <use xlink:href="#DMSans-Bold-65" transform="translate(761.999893 0)"/>
     <use xlink:href="#DMSans-Bold-6e" transform="translate(822.19989 0)"/>
     <use xlink:href="#DMSans-Bold-63" transform="translate(883.899887 0)"/>
     <use xlink:href="#DMSans-Bold-69" transform="translate(944.599884 0)"/>
     <use xlink:href="#DMSans-Bold-6e" transform="translate(971.999878 0)"/>
     <use xlink:href="#DMSans-Bold-67" transform="translate(1033.699875 0)"/>
    </g>
   </g>
   <g id="text_15">
    <!-- 3-million-fold cost reduction (2001-2025) -->
    <g transform="translate(52.303125 37.7325) scale(0.11 -0.11)">
     <defs>
      <path id="DMSans-Regular-33" d="M 1875 -77 
Q 1446 -77 1097 80 
Q 749 237 544 550 
Q 339 864 326 1331 
L 870 1331 
Q 877 1075 995 860 
Q 1114 646 1338 518 
Q 1562 390 1875 390 
Q 2189 390 2400 512 
Q 2611 634 2720 835 
Q 2829 1037 2829 1286 
Q 2829 1600 2678 1795 
Q 2528 1990 2275 2086 
Q 2022 2182 1722 2182 
L 1389 2182 
L 1389 2637 
L 1722 2637 
Q 2163 2637 2412 2838 
Q 2662 3040 2662 3398 
Q 2662 3693 2467 3891 
Q 2272 4090 1875 4090 
Q 1498 4090 1274 3872 
Q 1050 3654 1018 3315 
L 474 3315 
Q 493 3680 672 3961 
Q 851 4243 1158 4400 
Q 1466 4557 1882 4557 
Q 2317 4557 2611 4403 
Q 2906 4250 3056 3994 
Q 3206 3738 3206 3430 
Q 3206 3206 3123 3001 
Q 3040 2797 2873 2643 
Q 2707 2490 2451 2432 
Q 2714 2374 2922 2227 
Q 3130 2080 3251 1843 
Q 3373 1606 3373 1286 
Q 3373 922 3203 611 
Q 3034 301 2701 112 
Q 2368 -77 1875 -77 
z
" transform="scale(0.015625)"/>
      <path id="DMSans-Regular-2d" d="M 469 1664 
L 469 2118 
L 3003 2118 
L 3003 1664 
L 469 1664 
z
" transform="scale(0.015625)"/>
      <path id="DMSans-Regular-6d" d="M 448 0 
L 448 3226 
L 934 3226 
L 966 2765 
L 966 2765 
Q 1120 3014 1379 3158 
Q 1638 3302 1946 3302 
Q 2195 3302 2396 3235 
Q 2598 3168 2755 3030 
Q 2912 2893 3002 2682 
L 3002 2682 
Q 3168 2976 3462 3139 
Q 3757 3302 4083 3302 
Q 4461 3302 4736 3152 
Q 5011 3002 5164 2698 
Q 5318 2394 5318 1926 
L 5318 0 
L 4787 0 
L 4787 1869 
Q 4787 2355 4588 2598 
Q 4390 2842 4026 2842 
Q 3776 2842 3577 2710 
Q 3379 2579 3264 2329 
Q 3149 2080 3149 1715 
L 3149 0 
L 2611 0 
L 2611 1869 
Q 2611 2355 2412 2598 
Q 2214 2842 1856 2842 
Q 1613 2842 1414 2710 
Q 1216 2579 1101 2329 
Q 986 2080 986 1715 
L 986 0 
L 448 0 
z
" transform="scale(0.015625)"/>
      <path id="DMSans-Regular-69" d="M 499 0 
L 499 3226 
L 1037 3226 
L 1037 0 
L 499 0 
z
M 768 3910 
Q 608 3910 502 4016 
Q 397 4122 397 4282 
Q 397 4442 502 4541 
Q 608 4640 768 4640 
Q 922 4640 1030 4541 
Q 1139 4442 1139 4282 
Q 1139 4122 1030 4016 
Q 922 3910 768 3910 
z
" transform="scale(0.015625)"/>
      <path id="DMSans-Regular-6c" d="M 448 0 
L 448 4608 
L 986 4608 
L 986 0 
L 448 0 
z
" transform="scale(0.015625)"/>
      <path id="DMSans-Regular-6f" d="M 1888 -77 
Q 1440 -77 1081 131 
Q 723 339 518 720 
Q 314 1101 314 1606 
Q 314 2125 522 2505 
Q 730 2886 1091 3094 
Q 1453 3302 1901 3302 
Q 2362 3302 2717 3094 
Q 3072 2886 3280 2505 
Q 3488 2125 3488 1613 
Q 3488 1101 3277 720 
Q 3066 339 2707 131 
Q 2349 -77 1888 -77 
z
M 1894 384 
Q 2170 384 2406 521 
Q 2643 659 2790 934 
Q 2938 1210 2938 1613 
Q 2938 2022 2794 2294 
Q 2650 2566 2416 2704 
Q 2182 2842 1901 2842 
Q 1632 2842 1392 2704 
Q 1152 2566 1008 2294 
Q 864 2022 864 1613 
Q 864 1210 1008 934 
Q 1152 659 1385 521 
Q 1619 384 1894 384 
z
" transform="scale(0.015625)"/>
      <path id="DMSans-Regular-6e" d="M 448 0 
L 448 3226 
L 934 3226 
L 960 2662 
L 960 2662 
Q 1114 2963 1398 3132 
Q 1683 3302 2048 3302 
Q 2426 3302 2701 3152 
Q 2976 3002 3129 2698 
Q 3283 2394 3283 1926 
L 3283 0 
L 2746 0 
L 2746 1869 
Q 2746 2355 2531 2598 
Q 2317 2842 1926 2842 
Q 1658 2842 1446 2710 
Q 1235 2579 1110 2332 
Q 986 2086 986 1722 
L 986 0 
L 448 0 
z
" transform="scale(0.015625)"/>
      <path id="DMSans-Regular-66" d="M 627 0 
L 627 3725 
Q 627 4032 729 4227 
Q 832 4422 1033 4515 
Q 1235 4608 1530 4608 
L 1894 4608 
L 1894 4147 
L 1613 4147 
Q 1376 4147 1270 4051 
Q 1165 3955 1165 3712 
L 1165 0 
L 627 0 
z
M 134 2771 
L 134 3226 
L 1978 3226 
L 1978 2771 
L 134 2771 
z
" transform="scale(0.015625)"/>
      <path id="DMSans-Regular-64" d="M 1875 -77 
Q 1408 -77 1053 144 
Q 698 365 506 749 
Q 314 1133 314 1619 
Q 314 2106 506 2486 
Q 698 2867 1053 3084 
Q 1408 3302 1882 3302 
Q 2272 3302 2569 3142 
Q 2867 2982 3034 2694 
L 3034 4608 
L 3571 4608 
L 3571 0 
L 3085 0 
L 3034 531 
L 3034 531 
Q 2931 371 2771 233 
Q 2611 96 2390 9 
Q 2170 -77 1875 -77 
z
M 1933 390 
Q 2253 390 2496 544 
Q 2739 698 2876 970 
Q 3014 1242 3014 1613 
Q 3014 1978 2876 2253 
Q 2739 2528 2496 2681 
Q 2253 2835 1933 2835 
Q 1626 2835 1379 2681 
Q 1133 2528 998 2253 
Q 864 1978 864 1613 
Q 864 1242 998 970 
Q 1133 698 1379 544 
Q 1626 390 1933 390 
z
" transform="scale(0.015625)"/>
      <path id="DMSans-Regular-20" transform="scale(0.015625)"/>
      <path id="DMSans-Regular-63" d="M 1901 -77 
Q 1446 -77 1084 134 
Q 723 346 518 726 
Q 314 1107 314 1606 
Q 314 2118 518 2496 
Q 723 2874 1084 3088 
Q 1446 3302 1901 3302 
Q 2477 3302 2861 3004 
Q 3245 2707 3347 2208 
L 2797 2208 
Q 2733 2509 2483 2675 
Q 2234 2842 1894 2842 
Q 1619 2842 1385 2704 
Q 1152 2566 1008 2291 
Q 864 2016 864 1613 
Q 864 1312 947 1078 
Q 1030 845 1171 691 
Q 1312 538 1501 458 
Q 1690 378 1894 378 
Q 2125 378 2310 451 
Q 2496 525 2624 672 
Q 2752 819 2797 1018 
L 3347 1018 
Q 3245 531 2857 227 
Q 2470 -77 1901 -77 
z
" transform="scale(0.015625)"/>
      <path id="DMSans-Regular-73" d="M 1664 -77 
Q 1267 -77 966 57 
Q 666 192 490 432 
Q 314 672 275 998 
L 826 998 
Q 858 832 960 691 
Q 1062 550 1238 464 
Q 1414 378 1670 378 
Q 1894 378 2041 445 
Q 2189 512 2262 627 
Q 2336 742 2336 877 
Q 2336 1075 2243 1177 
Q 2150 1280 1971 1341 
Q 1792 1402 1536 1446 
Q 1325 1485 1120 1549 
Q 915 1613 755 1718 
Q 595 1824 502 1977 
Q 410 2131 410 2355 
Q 410 2630 554 2844 
Q 698 3059 960 3180 
Q 1222 3302 1574 3302 
Q 2093 3302 2413 3052 
Q 2733 2803 2790 2330 
L 2259 2330 
Q 2227 2573 2051 2710 
Q 1875 2848 1568 2848 
Q 1267 2848 1110 2726 
Q 954 2605 954 2406 
Q 954 2278 1040 2179 
Q 1126 2080 1299 2009 
Q 1472 1939 1715 1894 
Q 2035 1837 2297 1741 
Q 2560 1645 2723 1456 
Q 2886 1267 2886 922 
Q 2886 621 2736 397 
Q 2586 173 2310 48 
Q 2035 -77 1664 -77 
z
" transform="scale(0.015625)"/>
      <path id="DMSans-Regular-74" d="M 1715 0 
Q 1427 0 1216 89 
Q 1005 179 893 393 
Q 781 608 781 973 
L 781 2771 
L 218 2771 
L 218 3226 
L 781 3226 
L 851 4006 
L 1318 4006 
L 1318 3226 
L 2253 3226 
L 2253 2771 
L 1318 2771 
L 1318 973 
Q 1318 672 1440 566 
Q 1562 461 1869 461 
L 2214 461 
L 2214 0 
L 1715 0 
z
" transform="scale(0.015625)"/>
      <path id="DMSans-Regular-72" d="M 448 0 
L 448 3226 
L 934 3226 
L 973 2611 
L 973 2611 
Q 1082 2829 1251 2982 
Q 1421 3136 1661 3219 
Q 1901 3302 2208 3302 
L 2208 2739 
L 2010 2739 
Q 1805 2739 1619 2684 
Q 1434 2630 1290 2508 
Q 1146 2387 1066 2179 
Q 986 1971 986 1664 
L 986 0 
L 448 0 
z
" transform="scale(0.015625)"/>
      <path id="DMSans-Regular-65" d="M 1862 -77 
Q 1414 -77 1062 134 
Q 710 346 512 726 
Q 314 1107 314 1613 
Q 314 2125 509 2502 
Q 704 2880 1059 3091 
Q 1414 3302 1875 3302 
Q 2349 3302 2681 3091 
Q 3014 2880 3190 2537 
Q 3366 2195 3366 1786 
Q 3366 1722 3366 1651 
Q 3366 1581 3360 1491 
L 717 1491 
L 717 1907 
L 2835 1907 
Q 2816 2349 2544 2598 
Q 2272 2848 1862 2848 
Q 1594 2848 1357 2723 
Q 1120 2598 979 2358 
Q 838 2118 838 1760 
L 838 1581 
Q 838 1184 982 915 
Q 1126 646 1360 512 
Q 1594 378 1862 378 
Q 2202 378 2422 528 
Q 2643 678 2746 941 
L 3277 941 
Q 3194 646 3002 419 
Q 2810 192 2525 57 
Q 2240 -77 1862 -77 
z
" transform="scale(0.015625)"/>
      <path id="DMSans-Regular-75" d="M 1619 -77 
Q 1248 -77 969 70 
Q 691 218 540 525 
Q 390 832 390 1293 
L 390 3226 
L 928 3226 
L 928 1350 
Q 928 870 1139 627 
Q 1350 384 1734 384 
Q 2003 384 2220 515 
Q 2438 646 2563 892 
Q 2688 1139 2688 1504 
L 2688 3226 
L 3226 3226 
L 3226 0 
L 2739 0 
L 2707 563 
L 2707 563 
Q 2560 262 2272 92 
Q 1984 -77 1619 -77 
z
" transform="scale(0.015625)"/>
      <path id="DMSans-Regular-28" d="M 1594 -928 
Q 1248 -595 953 -137 
Q 659 320 483 889 
Q 307 1459 307 2131 
Q 307 2803 483 3372 
Q 659 3942 953 4403 
Q 1248 4864 1594 5190 
L 2144 5190 
L 2144 5139 
Q 1754 4755 1462 4281 
Q 1171 3808 1008 3267 
Q 845 2726 845 2131 
Q 845 1536 1008 995 
Q 1171 454 1465 -19 
Q 1760 -493 2144 -877 
L 2144 -928 
L 1594 -928 
z
" transform="scale(0.015625)"/>
      <path id="DMSans-Regular-29" d="M 794 -928 
L 243 -928 
L 243 -877 
Q 634 -493 925 -19 
Q 1216 454 1379 995 
Q 1542 1536 1542 2131 
Q 1542 2726 1379 3267 
Q 1216 3808 925 4281 
Q 634 4755 243 5139 
L 243 5190 
L 794 5190 
Q 1146 4864 1437 4403 
Q 1728 3942 1904 3372 
Q 2080 2803 2080 2131 
Q 2080 1459 1904 889 
Q 1728 320 1437 -137 
Q 1146 -595 794 -928 
z
" transform="scale(0.015625)"/>
     </defs>
     <use xlink:href="#DMSans-Regular-33"/>
     <use xlink:href="#DMSans-Regular-2d" transform="translate(59.099991 0)"/>
     <use xlink:href="#DMSans-Regular-6d" transform="translate(113.199982 0)"/>
     <use xlink:href="#DMSans-Regular-69" transform="translate(202.299973 0)"/>
     <use xlink:href="#DMSans-Regular-6c" transform="translate(226.299957 0)"/>
     <use xlink:href="#DMSans-Regular-6c" transform="translate(248.599945 0)"/>
     <use xlink:href="#DMSans-Regular-69" transform="translate(270.899933 0)"/>
     <use xlink:href="#DMSans-Regular-6f" transform="translate(294.899918 0)"/>
     <use xlink:href="#DMSans-Regular-6e" transform="translate(354.199905 0)"/>
     <use xlink:href="#DMSans-Regular-2d" transform="translate(411.599899 0)"/>
     <use xlink:href="#DMSans-Regular-66" transform="translate(465.69989 0)"/>
     <use xlink:href="#DMSans-Regular-6f" transform="translate(499.699875 0)"/>
     <use xlink:href="#DMSans-Regular-6c" transform="translate(558.999863 0)"/>
     <use xlink:href="#DMSans-Regular-64" transform="translate(581.29985 0)"/>
     <use xlink:href="#DMSans-Regular-20" transform="translate(643.999847 0)"/>
     <use xlink:href="#DMSans-Regular-63" transform="translate(670.599838 0)"/>
     <use xlink:href="#DMSans-Regular-6f" transform="translate(727.799835 0)"/>
     <use xlink:href="#DMSans-Regular-73" transform="translate(787.099823 0)"/>
     <use xlink:href="#DMSans-Regular-74" transform="translate(837.29982 0)"/>
     <use xlink:href="#DMSans-Regular-20" transform="translate(876.499817 0)"/>
     <use xlink:href="#DMSans-Regular-72" transform="translate(903.099808 0)"/>
     <use xlink:href="#DMSans-Regular-65" transform="translate(940.099792 0)"/>
     <use xlink:href="#DMSans-Regular-64" transform="translate(996.89978 0)"/>
     <use xlink:href="#DMSans-Regular-75" transform="translate(1059.599777 0)"/>
     <use xlink:href="#DMSans-Regular-63" transform="translate(1116.899765 0)"/>
     <use xlink:href="#DMSans-Regular-74" transform="translate(1174.099762 0)"/>
     <use xlink:href="#DMSans-Regular-69" transform="translate(1213.299759 0)"/>
     <use xlink:href="#DMSans-Regular-6f" transform="translate(1237.299744 0)"/>
     <use xlink:href="#DMSans-Regular-6e" transform="translate(1296.599731 0)"/>
     <use xlink:href="#DMSans-Regular-20" transform="translate(1353.999725 0)"/>
     <use xlink:href="#DMSans-Regular-28" transform="translate(1380.599716 0)"/>
     <use xlink:href="#DMSans-Regular-32" transform="translate(1417.899704 0)"/>
     <use xlink:href="#DMSans-Regular-30" transform="translate(1475.499695 0)"/>
     <use xlink:href="#DMSans-Regular-30" transform="translate(1543.899689 0)"/>
     <use xlink:href="#DMSans-Regular-31" transform="translate(1612.299683 0)"/>
     <use xlink:href="#DMSans-Regular-2d" transform="translate(1643.49968 0)"/>
     <use xlink:href="#DMSans-Regular-32" transform="translate(1697.59967 0)"/>
     <use xlink:href="#DMSans-Regular-30" transform="translate(1755.199661 0)"/>
     <use xlink:href="#DMSans-Regular-32" transform="translate(1823.599655 0)"/>
     <use xlink:href="#DMSans-Regular-35" transform="translate(1881.199646 0)"/>
     <use xlink:href="#DMSans-Regular-29" transform="translate(1942.299637 0)"/>
    </g>
   </g>
  </g>
  <g id="text_16">
   <!-- Sequencing Cost ($ per Raw Megabase of DNA Sequence) -->
   <g transform="translate(52.080125 16.93125) scale(0.12 -0.12)">
    <defs>
     <path id="DMSans-Bold-43" d="M 2451 -77 
Q 1779 -77 1296 214 
Q 813 506 553 1027 
Q 294 1549 294 2234 
Q 294 2918 553 3443 
Q 813 3968 1296 4262 
Q 1779 4557 2451 4557 
Q 3264 4557 3782 4153 
Q 4301 3750 4429 3014 
L 3488 3014 
Q 3405 3373 3139 3574 
Q 2874 3776 2445 3776 
Q 2048 3776 1763 3587 
Q 1478 3398 1324 3056 
Q 1171 2714 1171 2234 
Q 1171 1760 1324 1414 
Q 1478 1069 1763 883 
Q 2048 698 2445 698 
Q 2874 698 3136 886 
Q 3398 1075 3482 1414 
L 4429 1414 
Q 4301 717 3782 320 
Q 3264 -77 2451 -77 
z
" transform="scale(0.015625)"/>
     <path id="DMSans-Bold-73" d="M 1741 -77 
Q 1299 -77 972 64 
Q 646 205 460 454 
Q 275 704 250 1018 
L 1107 1018 
Q 1139 896 1216 797 
Q 1293 698 1421 640 
Q 1549 582 1728 582 
Q 1901 582 2009 630 
Q 2118 678 2172 761 
Q 2227 845 2227 934 
Q 2227 1069 2150 1142 
Q 2074 1216 1926 1261 
Q 1779 1306 1568 1350 
Q 1338 1395 1117 1462 
Q 896 1530 723 1632 
Q 550 1734 448 1894 
Q 346 2054 346 2291 
Q 346 2579 499 2806 
Q 653 3034 947 3168 
Q 1242 3302 1658 3302 
Q 2240 3302 2579 3040 
Q 2918 2778 2982 2317 
L 2170 2317 
Q 2131 2464 2000 2550 
Q 1869 2637 1651 2637 
Q 1421 2637 1299 2553 
Q 1178 2470 1178 2336 
Q 1178 2246 1258 2176 
Q 1338 2106 1485 2058 
Q 1632 2010 1843 1965 
Q 2214 1888 2496 1789 
Q 2778 1690 2938 1507 
Q 3098 1325 3098 979 
Q 3098 672 2931 432 
Q 2765 192 2461 57 
Q 2157 -77 1741 -77 
z
" transform="scale(0.015625)"/>
     <path id="DMSans-Bold-28" d="M 1530 -928 
Q 1171 -563 889 -92 
Q 608 378 451 941 
Q 294 1504 294 2131 
Q 294 2765 451 3325 
Q 608 3885 889 4358 
Q 1171 4832 1530 5190 
L 2387 5190 
L 2387 5107 
Q 2003 4704 1724 4224 
Q 1446 3744 1292 3216 
Q 1139 2688 1139 2131 
Q 1139 1574 1292 1046 
Q 1446 518 1728 41 
Q 2010 -435 2387 -845 
L 2387 -928 
L 1530 -928 
z
" transform="scale(0.015625)"/>
     <path id="DMSans-Bold-24" d="M 1715 -557 
L 1715 5069 
L 2138 5069 
L 2138 -557 
L 1715 -557 
z
M 1984 -77 
Q 1498 -77 1117 89 
Q 736 256 515 576 
Q 294 896 288 1350 
L 1203 1350 
Q 1210 1152 1306 992 
Q 1402 832 1571 739 
Q 1741 646 1978 646 
Q 2182 646 2332 713 
Q 2483 781 2566 902 
Q 2650 1024 2650 1190 
Q 2650 1382 2557 1510 
Q 2464 1638 2301 1728 
Q 2138 1818 1923 1891 
Q 1709 1965 1472 2048 
Q 941 2221 662 2509 
Q 384 2797 384 3270 
Q 384 3674 579 3962 
Q 774 4250 1120 4403 
Q 1466 4557 1907 4557 
Q 2362 4557 2704 4400 
Q 3046 4243 3248 3948 
Q 3450 3654 3456 3258 
L 2534 3258 
Q 2528 3405 2448 3536 
Q 2368 3667 2227 3747 
Q 2086 3827 1894 3827 
Q 1728 3834 1590 3776 
Q 1453 3718 1373 3606 
Q 1293 3494 1293 3328 
Q 1293 3168 1373 3059 
Q 1453 2950 1593 2870 
Q 1734 2790 1926 2723 
Q 2118 2656 2342 2586 
Q 2675 2470 2956 2313 
Q 3238 2157 3404 1907 
Q 3571 1658 3571 1248 
Q 3571 896 3385 595 
Q 3200 294 2851 108 
Q 2502 -77 1984 -77 
z
" transform="scale(0.015625)"/>
     <path id="DMSans-Bold-70" d="M 422 -1408 
L 422 3226 
L 1190 3226 
L 1286 2778 
L 1286 2778 
Q 1389 2918 1529 3036 
Q 1670 3155 1865 3228 
Q 2061 3302 2323 3302 
Q 2778 3302 3123 3078 
Q 3469 2854 3670 2473 
Q 3872 2093 3872 1606 
Q 3872 1120 3667 739 
Q 3462 358 3116 140 
Q 2771 -77 2330 -77 
Q 1971 -77 1712 54 
Q 1453 186 1286 416 
L 1286 -1408 
L 422 -1408 
z
M 2125 678 
Q 2381 678 2576 793 
Q 2771 909 2880 1120 
Q 2989 1331 2989 1606 
Q 2989 1882 2880 2096 
Q 2771 2310 2576 2428 
Q 2381 2547 2125 2547 
Q 1875 2547 1680 2428 
Q 1485 2310 1373 2099 
Q 1261 1888 1261 1613 
Q 1261 1338 1373 1123 
Q 1485 909 1680 793 
Q 1875 678 2125 678 
z
" transform="scale(0.015625)"/>
     <path id="DMSans-Bold-52" d="M 442 0 
L 442 4480 
L 2112 4480 
Q 2656 4480 3008 4294 
Q 3360 4109 3533 3798 
Q 3706 3488 3706 3110 
Q 3706 2752 3539 2441 
Q 3373 2131 3017 1942 
Q 2662 1754 2106 1754 
L 1306 1754 
L 1306 0 
L 442 0 
z
M 2765 0 
L 1843 1971 
L 2778 1971 
L 3750 0 
L 2765 0 
z
M 1306 2381 
L 2061 2381 
Q 2451 2381 2636 2573 
Q 2822 2765 2822 3078 
Q 2822 3392 2640 3574 
Q 2458 3757 2061 3757 
L 1306 3757 
L 1306 2381 
z
" transform="scale(0.015625)"/>
     <path id="DMSans-Bold-61" d="M 1510 -77 
Q 1107 -77 844 54 
Q 582 186 457 406 
Q 333 627 333 896 
Q 333 1190 483 1414 
Q 634 1638 938 1766 
Q 1242 1894 1702 1894 
L 2502 1894 
Q 2502 2131 2438 2288 
Q 2374 2445 2240 2521 
Q 2106 2598 1882 2598 
Q 1638 2598 1468 2492 
Q 1299 2387 1261 2170 
L 422 2170 
Q 454 2515 649 2768 
Q 845 3021 1168 3161 
Q 1491 3302 1888 3302 
Q 2342 3302 2675 3148 
Q 3008 2995 3187 2707 
Q 3366 2419 3366 1997 
L 3366 0 
L 2637 0 
L 2541 493 
L 2541 493 
Q 2470 365 2374 262 
Q 2278 160 2150 83 
Q 2022 6 1862 -35 
Q 1702 -77 1510 -77 
z
M 1715 589 
Q 1882 589 2013 649 
Q 2144 710 2240 816 
Q 2336 922 2390 1059 
Q 2445 1197 2464 1357 
L 2464 1363 
L 1805 1363 
Q 1606 1363 1481 1315 
Q 1357 1267 1299 1177 
Q 1242 1088 1242 973 
Q 1242 845 1299 761 
Q 1357 678 1465 633 
Q 1574 589 1715 589 
z
" transform="scale(0.015625)"/>
     <path id="DMSans-Bold-77" d="M 1056 0 
L 109 3226 
L 960 3226 
L 1587 608 
L 1427 614 
L 2144 3226 
L 3104 3226 
L 3821 614 
L 3654 608 
L 4288 3226 
L 5139 3226 
L 4192 0 
L 3296 0 
L 2534 2688 
L 2714 2688 
L 1952 0 
L 1056 0 
z
" transform="scale(0.015625)"/>
     <path id="DMSans-Bold-4d" d="M 442 0 
L 442 4480 
L 1472 4480 
L 2842 1683 
L 2842 1683 
L 4198 4480 
L 5229 4480 
L 5229 0 
L 4365 0 
L 4365 3008 
L 4365 3008 
L 3181 627 
L 2496 627 
L 1306 3008 
L 1306 3008 
L 1306 0 
L 442 0 
z
" transform="scale(0.015625)"/>
     <path id="DMSans-Bold-62" d="M 2330 -77 
Q 2080 -77 1885 -13 
Q 1690 51 1539 163 
Q 1389 275 1286 416 
L 1286 416 
L 1190 0 
L 422 0 
L 422 4608 
L 1286 4608 
L 1286 2778 
Q 1440 3002 1693 3152 
Q 1946 3302 2323 3302 
Q 2771 3302 3120 3081 
Q 3469 2861 3670 2480 
Q 3872 2099 3872 1606 
Q 3872 1126 3670 742 
Q 3469 358 3123 140 
Q 2778 -77 2330 -77 
z
M 2125 678 
Q 2381 678 2576 796 
Q 2771 915 2880 1123 
Q 2989 1331 2989 1606 
Q 2989 1882 2880 2096 
Q 2771 2310 2576 2428 
Q 2381 2547 2125 2547 
Q 1875 2547 1680 2428 
Q 1485 2310 1373 2099 
Q 1261 1888 1261 1613 
Q 1261 1338 1373 1123 
Q 1485 909 1680 793 
Q 1875 678 2125 678 
z
" transform="scale(0.015625)"/>
     <path id="DMSans-Bold-44" d="M 442 0 
L 442 4480 
L 1939 4480 
Q 2720 4480 3229 4201 
Q 3738 3923 3984 3420 
Q 4230 2918 4230 2240 
Q 4230 1562 3984 1059 
Q 3738 557 3232 278 
Q 2726 0 1939 0 
L 442 0 
z
M 1306 742 
L 1894 742 
Q 2445 742 2761 921 
Q 3078 1101 3212 1437 
Q 3347 1773 3347 2240 
Q 3347 2714 3212 3050 
Q 3078 3386 2761 3565 
Q 2445 3744 1894 3744 
L 1306 3744 
L 1306 742 
z
" transform="scale(0.015625)"/>
     <path id="DMSans-Bold-41" d="M 141 0 
L 1779 4480 
L 2758 4480 
L 4390 0 
L 3475 0 
L 2266 3494 
L 2266 3494 
L 1050 0 
L 141 0 
z
M 864 1018 
L 1094 1690 
L 3373 1690 
L 3597 1018 
L 864 1018 
z
" transform="scale(0.015625)"/>
     <path id="DMSans-Bold-29" d="M 1062 -928 
L 198 -928 
L 198 -845 
Q 582 -435 864 41 
Q 1146 518 1296 1046 
Q 1446 1574 1446 2131 
Q 1446 2688 1296 3216 
Q 1146 3744 864 4224 
Q 582 4704 198 5107 
L 198 5190 
L 1062 5190 
Q 1421 4832 1699 4358 
Q 1978 3885 2138 3325 
Q 2298 2765 2298 2131 
Q 2298 1504 2138 941 
Q 1978 378 1699 -92 
Q 1421 -563 1062 -928 
z
" transform="scale(0.015625)"/>
    </defs>
    <use xlink:href="#DMSans-Bold-53"/>
    <use xlink:href="#DMSans-Bold-65" transform="translate(60.399994 0)"/>
    <use xlink:href="#DMSans-Bold-71" transform="translate(120.599991 0)"/>
    <use xlink:href="#DMSans-Bold-75" transform="translate(186.099976 0)"/>
    <use xlink:href="#DMSans-Bold-65" transform="translate(247.699966 0)"/>
    <use xlink:href="#DMSans-Bold-6e" transform="translate(307.899963 0)"/>
    <use xlink:href="#DMSans-Bold-63" transform="translate(369.59996 0)"/>
    <use xlink:href="#DMSans-Bold-69" transform="translate(430.299957 0)"/>
    <use xlink:href="#DMSans-Bold-6e" transform="translate(457.699951 0)"/>
    <use xlink:href="#DMSans-Bold-67" transform="translate(519.399948 0)"/>
    <use xlink:href="#DMSans-Bold-20" transform="translate(578.999939 0)"/>
    <use xlink:href="#DMSans-Bold-43" transform="translate(602.499924 0)"/>
    <use xlink:href="#DMSans-Bold-6f" transform="translate(676.299911 0)"/>
    <use xlink:href="#DMSans-Bold-73" transform="translate(737.299896 0)"/>
    <use xlink:href="#DMSans-Bold-74" transform="translate(790.499893 0)"/>
    <use xlink:href="#DMSans-Bold-20" transform="translate(833.799881 0)"/>
    <use xlink:href="#DMSans-Bold-28" transform="translate(857.299866 0)"/>
    <use xlink:href="#DMSans-Bold-24" transform="translate(897.79985 0)"/>
    <use xlink:href="#DMSans-Bold-20" transform="translate(958.199844 0)"/>
    <use xlink:href="#DMSans-Bold-70" transform="translate(981.699829 0)"/>
    <use xlink:href="#DMSans-Bold-65" transform="translate(1047.199814 0)"/>
    <use xlink:href="#DMSans-Bold-72" transform="translate(1107.399811 0)"/>
    <use xlink:href="#DMSans-Bold-20" transform="translate(1148.299805 0)"/>
    <use xlink:href="#DMSans-Bold-52" transform="translate(1171.799789 0)"/>
    <use xlink:href="#DMSans-Bold-61" transform="translate(1234.89978 0)"/>
    <use xlink:href="#DMSans-Bold-77" transform="translate(1293.499771 0)"/>
    <use xlink:href="#DMSans-Bold-20" transform="translate(1375.499756 0)"/>
    <use xlink:href="#DMSans-Bold-4d" transform="translate(1398.999741 0)"/>
    <use xlink:href="#DMSans-Bold-65" transform="translate(1487.599731 0)"/>
    <use xlink:href="#DMSans-Bold-67" transform="translate(1547.799728 0)"/>
    <use xlink:href="#DMSans-Bold-61" transform="translate(1607.399719 0)"/>
    <use xlink:href="#DMSans-Bold-62" transform="translate(1665.99971 0)"/>
    <use xlink:href="#DMSans-Bold-61" transform="translate(1731.499695 0)"/>
    <use xlink:href="#DMSans-Bold-73" transform="translate(1790.099686 0)"/>
    <use xlink:href="#DMSans-Bold-65" transform="translate(1843.299683 0)"/>
    <use xlink:href="#DMSans-Bold-20" transform="translate(1903.49968 0)"/>
    <use xlink:href="#DMSans-Bold-6f" transform="translate(1926.999664 0)"/>
    <use xlink:href="#DMSans-Bold-66" transform="translate(1987.999649 0)"/>
    <use xlink:href="#DMSans-Bold-20" transform="translate(2025.09964 0)"/>
    <use xlink:href="#DMSans-Bold-44" transform="translate(2048.599625 0)"/>
    <use xlink:href="#DMSans-Bold-4e" transform="translate(2119.299606 0)"/>
    <use xlink:href="#DMSans-Bold-41" transform="translate(2192.1996 0)"/>
    <use xlink:href="#DMSans-Bold-20" transform="translate(2263.099594 0)"/>
    <use xlink:href="#DMSans-Bold-53" transform="translate(2286.599579 0)"/>
    <use xlink:href="#DMSans-Bold-65" transform="translate(2346.999573 0)"/>
    <use xlink:href="#DMSans-Bold-71" transform="translate(2407.19957 0)"/>
    <use xlink:href="#DMSans-Bold-75" transform="translate(2472.699554 0)"/>
    <use xlink:href="#DMSans-Bold-65" transform="translate(2534.299545 0)"/>
    <use xlink:href="#DMSans-Bold-6e" transform="translate(2594.499542 0)"/>
    <use xlink:href="#DMSans-Bold-63" transform="translate(2656.199539 0)"/>
    <use xlink:href="#DMSans-Bold-65" transform="translate(2716.899536 0)"/>
    <use xlink:href="#DMSans-Bold-29" transform="translate(2777.099533 0)"/>
   </g>
  </g>
 </g>
 <defs>
  <clipPath id="p7853005c7a">
   <rect x="52.303125" y="43.7325" width="502.755833" height="212.7875"/>
  </clipPath>
 </defs>
</svg>
