<?xml version="1.0" encoding="utf-8" standalone="no"?>
<!DOCTYPE svg PUBLIC "-//W3C//DTD SVG 1.1//EN"
  "http://www.w3.org/Graphics/SVG/1.1/DTD/svg11.dtd">
<svg xmlns:xlink="http://www.w3.org/1999/xlink" width="718.588312pt" height="351.022187pt" viewBox="0 0 718.588312 351.022187" xmlns="http://www.w3.org/2000/svg" version="1.1">
 <metadata>
  <rdf:RDF xmlns:dc="http://purl.org/dc/elements/1.1/" xmlns:cc="http://creativecommons.org/ns#" xmlns:rdf="http://www.w3.org/1999/02/22-rdf-syntax-ns#">
   <cc:Work>
    <dc:type rdf:resource="http://purl.org/dc/dcmitype/StillImage"/>
    <dc:date>2024-08-05T16:11:07.813669</dc:date>
    <dc:format>image/svg+xml</dc:format>
    <dc:creator>
     <cc:Agent>
      <dc:title>Matplotlib v3.8.1, https://matplotlib.org/</dc:title>
     </cc:Agent>
    </dc:creator>
   </cc:Work>
  </rdf:RDF>
 </metadata>
 <defs>
  <style type="text/css">*{stroke-linejoin: round; stroke-linecap: butt}</style>
 </defs>
 <g id="figure_1">
  <g id="patch_1">
   <path d="M 0 351.022187 
L 718.588312 351.022187 
L 718.588312 0 
L 0 0 
z
" style="fill: #ffffff"/>
  </g>
  <g id="axes_1">
   <g id="patch_2">
    <path d="M 158.22425 162.585937 
L 645.39925 162.585937 
L 645.39925 13.335937 
L 158.22425 13.335937 
z
" style="fill: #ffffff"/>
   </g>
   <g id="line2d_1">
    <path d="M 158.22425 162.585937 
L 158.22425 13.335937 
" clip-path="url(#p257f90dfa7)" style="fill: none; stroke-dasharray: 1.11,0.48; stroke-dashoffset: 0; stroke: #000000; stroke-opacity: 0.2; stroke-width: 0.3"/>
   </g>
   <g id="line2d_2">
    <path d="M 206.94175 162.585937 
L 206.94175 13.335937 
" clip-path="url(#p257f90dfa7)" style="fill: none; stroke-dasharray: 1.11,0.48; stroke-dashoffset: 0; stroke: #000000; stroke-opacity: 0.2; stroke-width: 0.3"/>
   </g>
   <g id="line2d_3">
    <path d="M 255.65925 162.585937 
L 255.65925 13.335937 
" clip-path="url(#p257f90dfa7)" style="fill: none; stroke-dasharray: 1.11,0.48; stroke-dashoffset: 0; stroke: #000000; stroke-opacity: 0.2; stroke-width: 0.3"/>
   </g>
   <g id="line2d_4">
    <path d="M 304.37675 162.585937 
L 304.37675 13.335937 
" clip-path="url(#p257f90dfa7)" style="fill: none; stroke-dasharray: 1.11,0.48; stroke-dashoffset: 0; stroke: #000000; stroke-opacity: 0.2; stroke-width: 0.3"/>
   </g>
   <g id="line2d_5">
    <path d="M 353.09425 162.585937 
L 353.09425 13.335937 
" clip-path="url(#p257f90dfa7)" style="fill: none; stroke-dasharray: 1.11,0.48; stroke-dashoffset: 0; stroke: #000000; stroke-opacity: 0.2; stroke-width: 0.3"/>
   </g>
   <g id="line2d_6">
    <path d="M 401.81175 162.585937 
L 401.81175 13.335937 
" clip-path="url(#p257f90dfa7)" style="fill: none; stroke-dasharray: 1.11,0.48; stroke-dashoffset: 0; stroke: #000000; stroke-opacity: 0.2; stroke-width: 0.3"/>
   </g>
   <g id="line2d_7">
    <path d="M 450.52925 162.585937 
L 450.52925 13.335937 
" clip-path="url(#p257f90dfa7)" style="fill: none; stroke-dasharray: 1.11,0.48; stroke-dashoffset: 0; stroke: #000000; stroke-opacity: 0.2; stroke-width: 0.3"/>
   </g>
   <g id="line2d_8">
    <path d="M 499.24675 162.585937 
L 499.24675 13.335937 
" clip-path="url(#p257f90dfa7)" style="fill: none; stroke-dasharray: 1.11,0.48; stroke-dashoffset: 0; stroke: #000000; stroke-opacity: 0.2; stroke-width: 0.3"/>
   </g>
   <g id="line2d_9">
    <path d="M 547.96425 162.585937 
L 547.96425 13.335937 
" clip-path="url(#p257f90dfa7)" style="fill: none; stroke-dasharray: 1.11,0.48; stroke-dashoffset: 0; stroke: #000000; stroke-opacity: 0.2; stroke-width: 0.3"/>
   </g>
   <g id="line2d_10">
    <path d="M 596.68175 162.585937 
L 596.68175 13.335937 
" clip-path="url(#p257f90dfa7)" style="fill: none; stroke-dasharray: 1.11,0.48; stroke-dashoffset: 0; stroke: #000000; stroke-opacity: 0.2; stroke-width: 0.3"/>
   </g>
   <g id="line2d_11">
    <path d="M 645.39925 162.585937 
L 645.39925 13.335937 
" clip-path="url(#p257f90dfa7)" style="fill: none; stroke-dasharray: 1.11,0.48; stroke-dashoffset: 0; stroke: #000000; stroke-opacity: 0.2; stroke-width: 0.3"/>
   </g>
   <g id="PolyCollection_1">
    <defs>
     <path id="m173078150e" d="M 124.576187 -320.818904 
L 124.576187 -320.832089 
L 129.169988 -320.83507 
L 133.763788 -320.838971 
L 138.357589 -320.843947 
L 142.95139 -320.850159 
L 147.54519 -320.857755 
L 152.138991 -320.866847 
L 156.732791 -320.877474 
L 161.326592 -320.889584 
L 165.920392 -320.903026 
L 170.514193 -320.917589 
L 175.107993 -320.93309 
L 179.701794 -320.949486 
L 184.295595 -320.966998 
L 188.889395 -320.9862 
L 193.483196 -321.008033 
L 198.076996 -321.03375 
L 202.670797 -321.064793 
L 207.264597 -321.102652 
L 211.858398 -321.148739 
L 216.452198 -321.204286 
L 221.045999 -321.27027 
L 225.6398 -321.347354 
L 230.2336 -321.435832 
L 234.827401 -321.535583 
L 239.421201 -321.646033 
L 244.015002 -321.766138 
L 248.608802 -321.894424 
L 253.202603 -322.029147 
L 257.796403 -322.16862 
L 262.390204 -322.311725 
L 266.984004 -322.458498 
L 271.577805 -322.610579 
L 276.171606 -322.771298 
L 280.765406 -322.94522 
L 285.359207 -323.137166 
L 289.953007 -323.350955 
L 294.546808 -323.588201 
L 299.140608 -323.84757 
L 303.734409 -324.124726 
L 308.328209 -324.413038 
L 312.92201 -324.704866 
L 317.515811 -324.993138 
L 322.109611 -325.272832 
L 326.703412 -325.542055 
L 331.297212 -325.802491 
L 335.891013 -326.059141 
L 340.484813 -326.319392 
L 345.078614 -326.591573 
L 349.672414 -326.883239 
L 354.266215 -327.199522 
L 358.860016 -327.541884 
L 363.453816 -327.907556 
L 368.047617 -328.28974 
L 372.641417 -328.678477 
L 377.235218 -329.061915 
L 381.829018 -329.427736 
L 386.422819 -329.764535 
L 391.016619 -330.063036 
L 395.61042 -330.31699 
L 400.204221 -330.523545 
L 404.798021 -330.682913 
L 409.391822 -330.797343 
L 413.985622 -330.869698 
L 418.579423 -330.902159 
L 423.173223 -330.895562 
L 427.767024 -330.849569 
L 432.360824 -330.763532 
L 436.954625 -330.637568 
L 441.548425 -330.473377 
L 446.142226 -330.274454 
L 450.736027 -330.045652 
L 455.329827 -329.792298 
L 459.923628 -329.519191 
L 464.517428 -329.229874 
L 469.111229 -328.926428 
L 473.705029 -328.609892 
L 478.29883 -328.281139 
L 482.89263 -327.941854 
L 487.486431 -327.595184 
L 492.080232 -327.245756 
L 496.674032 -326.898992 
L 501.267833 -326.559904 
L 505.861633 -326.231708 
L 510.455434 -325.91465 
L 515.049234 -325.605346 
L 519.643035 -325.2969 
L 524.236835 -324.979963 
L 528.830636 -324.644728 
L 533.424437 -324.283613 
L 538.018237 -323.894002 
L 542.612038 -323.480203 
L 547.205838 -323.0538 
L 551.799639 -322.632032 
L 556.393439 -322.234492 
L 560.98724 -321.87913 
L 565.58104 -321.578775 
L 570.174841 -321.339187 
L 574.768642 -321.159014 
L 579.362442 -321.031356 
L 579.362442 -320.619637 
L 579.362442 -320.619637 
L 574.768642 -320.491979 
L 570.174841 -320.311806 
L 565.58104 -320.072217 
L 560.98724 -319.771863 
L 556.393439 -319.416501 
L 551.799639 -319.018961 
L 547.205838 -318.597193 
L 542.612038 -318.17079 
L 538.018237 -317.756991 
L 533.424437 -317.36738 
L 528.830636 -317.006265 
L 524.236835 -316.67103 
L 519.643035 -316.354092 
L 515.049234 -316.045647 
L 510.455434 -315.736343 
L 505.861633 -315.419285 
L 501.267833 -315.091089 
L 496.674032 -314.752 
L 492.080232 -314.405237 
L 487.486431 -314.055809 
L 482.89263 -313.709139 
L 478.29883 -313.369854 
L 473.705029 -313.041101 
L 469.111229 -312.724565 
L 464.517428 -312.421118 
L 459.923628 -312.131801 
L 455.329827 -311.858695 
L 450.736027 -311.605341 
L 446.142226 -311.376539 
L 441.548425 -311.177616 
L 436.954625 -311.013425 
L 432.360824 -310.887461 
L 427.767024 -310.801424 
L 423.173223 -310.755431 
L 418.579423 -310.748834 
L 413.985622 -310.781295 
L 409.391822 -310.85365 
L 404.798021 -310.96808 
L 400.204221 -311.127448 
L 395.61042 -311.334003 
L 391.016619 -311.587957 
L 386.422819 -311.886458 
L 381.829018 -312.223257 
L 377.235218 -312.589078 
L 372.641417 -312.972516 
L 368.047617 -313.361253 
L 363.453816 -313.743437 
L 358.860016 -314.109109 
L 354.266215 -314.451471 
L 349.672414 -314.767753 
L 345.078614 -315.05942 
L 340.484813 -315.3316 
L 335.891013 -315.591852 
L 331.297212 -315.848501 
L 326.703412 -316.108937 
L 322.109611 -316.378161 
L 317.515811 -316.657855 
L 312.92201 -316.946127 
L 308.328209 -317.237955 
L 303.734409 -317.526267 
L 299.140608 -317.803423 
L 294.546808 -318.062792 
L 289.953007 -318.300038 
L 285.359207 -318.513827 
L 280.765406 -318.705773 
L 276.171606 -318.879694 
L 271.577805 -319.040414 
L 266.984004 -319.192495 
L 262.390204 -319.339268 
L 257.796403 -319.482373 
L 253.202603 -319.621846 
L 248.608802 -319.756569 
L 244.015002 -319.884855 
L 239.421201 -320.00496 
L 234.827401 -320.11541 
L 230.2336 -320.215161 
L 225.6398 -320.303639 
L 221.045999 -320.380723 
L 216.452198 -320.446707 
L 211.858398 -320.502254 
L 207.264597 -320.548341 
L 202.670797 -320.5862 
L 198.076996 -320.617242 
L 193.483196 -320.642959 
L 188.889395 -320.664793 
L 184.295595 -320.683995 
L 179.701794 -320.701507 
L 175.107993 -320.717902 
L 170.514193 -320.733403 
L 165.920392 -320.747967 
L 161.326592 -320.761409 
L 156.732791 -320.773518 
L 152.138991 -320.784146 
L 147.54519 -320.793237 
L 142.95139 -320.800834 
L 138.357589 -320.807046 
L 133.763788 -320.812022 
L 129.169988 -320.815922 
L 124.576187 -320.818904 
z
"/>
    </defs>
    <g clip-path="url(#p257f90dfa7)">
     <use xlink:href="#m173078150e" x="0" y="351.022187" style="fill: #455681"/>
    </g>
   </g>
   <g id="PolyCollection_2">
    <defs>
     <path id="m9d530227f1" d="M 86.497281 -300.668858 
L 86.497281 -300.675484 
L 91.308892 -300.676706 
L 96.120502 -300.677953 
L 100.932113 -300.679094 
L 105.743724 -300.680042 
L 110.555335 -300.680808 
L 115.366946 -300.681538 
L 120.178557 -300.682531 
L 124.990168 -300.684217 
L 129.801779 -300.687093 
L 134.61339 -300.691589 
L 139.425001 -300.697908 
L 144.236612 -300.705917 
L 149.048223 -300.715147 
L 153.859834 -300.724954 
L 158.671445 -300.734779 
L 163.483056 -300.74439 
L 168.294667 -300.753987 
L 173.106277 -300.764105 
L 177.917888 -300.775377 
L 182.729499 -300.788275 
L 187.54111 -300.802973 
L 192.352721 -300.819405 
L 197.164332 -300.837462 
L 201.975943 -300.857205 
L 206.787554 -300.878976 
L 211.599165 -300.903378 
L 216.410776 -300.931174 
L 221.222387 -300.963207 
L 226.033998 -301.000358 
L 230.845609 -301.04351 
L 235.65722 -301.093477 
L 240.468831 -301.150885 
L 245.280442 -301.216066 
L 250.092053 -301.28902 
L 254.903663 -301.369481 
L 259.715274 -301.457115 
L 264.526885 -301.551867 
L 269.338496 -301.654476 
L 274.150107 -301.767014 
L 278.961718 -301.893119 
L 283.773329 -302.03754 
L 288.58494 -302.204876 
L 293.396551 -302.397871 
L 298.208162 -302.616029 
L 303.019773 -302.855304 
L 307.831384 -303.109197 
L 312.642995 -303.370898 
L 317.454606 -303.63572 
L 322.266217 -303.9029 
L 327.077828 -304.176124 
L 331.889438 -304.462556 
L 336.701049 -304.770654 
L 341.51266 -305.107511 
L 346.324271 -305.476554 
L 351.135882 -305.876252 
L 355.947493 -306.300034 
L 360.759104 -306.737328 
L 365.570715 -307.175472 
L 370.382326 -307.602161 
L 375.193937 -308.00787 
L 380.005548 -308.387462 
L 384.817159 -308.740321 
L 389.62877 -309.068939 
L 394.440381 -309.376526 
L 399.251992 -309.664608 
L 404.063603 -309.931445 
L 408.875214 -310.171736 
L 413.686824 -310.377739 
L 418.498435 -310.541522 
L 423.310046 -310.657689 
L 428.121657 -310.725438 
L 432.933268 -310.748834 
L 437.744879 -310.734798 
L 442.55649 -310.68958 
L 447.368101 -310.615379 
L 452.179712 -310.508787 
L 456.991323 -310.361655 
L 461.802934 -310.16381 
L 466.614545 -309.906515 
L 471.426156 -309.585742 
L 476.237767 -309.204581 
L 481.049378 -308.774064 
L 485.860989 -308.311679 
L 490.672599 -307.837461 
L 495.48421 -307.368599 
L 500.295821 -306.914307 
L 505.107432 -306.472743 
L 509.919043 -306.031137 
L 514.730654 -305.56957 
L 519.542265 -305.06803 
L 524.353876 -304.515147 
L 529.165487 -303.915603 
L 533.977098 -303.292648 
L 538.788709 -302.683634 
L 543.60032 -302.129731 
L 548.411931 -301.664097 
L 553.223542 -301.303593 
L 558.035153 -301.046994 
L 562.846764 -300.879202 
L 562.846764 -300.46514 
L 562.846764 -300.46514 
L 558.035153 -300.297348 
L 553.223542 -300.040749 
L 548.411931 -299.680245 
L 543.60032 -299.214611 
L 538.788709 -298.660708 
L 533.977098 -298.051694 
L 529.165487 -297.428739 
L 524.353876 -296.829195 
L 519.542265 -296.276312 
L 514.730654 -295.774772 
L 509.919043 -295.313205 
L 505.107432 -294.871599 
L 500.295821 -294.430035 
L 495.48421 -293.975743 
L 490.672599 -293.506881 
L 485.860989 -293.032663 
L 481.049378 -292.570278 
L 476.237767 -292.139761 
L 471.426156 -291.7586 
L 466.614545 -291.437827 
L 461.802934 -291.180532 
L 456.991323 -290.982687 
L 452.179712 -290.835555 
L 447.368101 -290.728963 
L 442.55649 -290.654762 
L 437.744879 -290.609544 
L 432.933268 -290.595508 
L 428.121657 -290.618904 
L 423.310046 -290.686653 
L 418.498435 -290.80282 
L 413.686824 -290.966604 
L 408.875214 -291.172606 
L 404.063603 -291.412898 
L 399.251992 -291.679734 
L 394.440381 -291.967817 
L 389.62877 -292.275403 
L 384.817159 -292.604021 
L 380.005548 -292.95688 
L 375.193937 -293.336472 
L 370.382326 -293.742181 
L 365.570715 -294.16887 
L 360.759104 -294.607014 
L 355.947493 -295.044308 
L 351.135882 -295.468091 
L 346.324271 -295.867788 
L 341.51266 -296.236831 
L 336.701049 -296.573688 
L 331.889438 -296.881787 
L 327.077828 -297.168218 
L 322.266217 -297.441442 
L 317.454606 -297.708622 
L 312.642995 -297.973444 
L 307.831384 -298.235145 
L 303.019773 -298.489038 
L 298.208162 -298.728314 
L 293.396551 -298.946471 
L 288.58494 -299.139466 
L 283.773329 -299.306803 
L 278.961718 -299.451223 
L 274.150107 -299.577328 
L 269.338496 -299.689866 
L 264.526885 -299.792475 
L 259.715274 -299.887227 
L 254.903663 -299.974861 
L 250.092053 -300.055323 
L 245.280442 -300.128276 
L 240.468831 -300.193457 
L 235.65722 -300.250865 
L 230.845609 -300.300832 
L 226.033998 -300.343984 
L 221.222387 -300.381135 
L 216.410776 -300.413168 
L 211.599165 -300.440964 
L 206.787554 -300.465366 
L 201.975943 -300.487137 
L 197.164332 -300.50688 
L 192.352721 -300.524937 
L 187.54111 -300.541369 
L 182.729499 -300.556067 
L 177.917888 -300.568965 
L 173.106277 -300.580237 
L 168.294667 -300.590356 
L 163.483056 -300.599952 
L 158.671445 -300.609563 
L 153.859834 -300.619388 
L 149.048223 -300.629195 
L 144.236612 -300.638425 
L 139.425001 -300.646434 
L 134.61339 -300.652753 
L 129.801779 -300.657249 
L 124.990168 -300.660125 
L 120.178557 -300.661812 
L 115.366946 -300.662804 
L 110.555335 -300.663534 
L 105.743724 -300.6643 
L 100.932113 -300.665249 
L 96.120502 -300.666389 
L 91.308892 -300.667636 
L 86.497281 -300.668858 
z
"/>
    </defs>
    <g clip-path="url(#p257f90dfa7)">
     <use xlink:href="#m9d530227f1" x="0" y="351.022187" style="fill: #2f837f"/>
    </g>
   </g>
   <g id="PolyCollection_3">
    <defs>
     <path id="mb61bf600f8" d="M 84.912009 -280.516228 
L 84.912009 -280.521463 
L 89.563753 -280.522437 
L 94.215497 -280.523204 
L 98.867241 -280.523606 
L 103.518984 -280.523675 
L 108.170728 -280.523607 
L 112.822472 -280.523597 
L 117.474216 -280.523666 
L 122.12596 -280.523646 
L 126.777703 -280.523332 
L 131.429447 -280.52267 
L 136.081191 -280.521828 
L 140.732935 -280.521116 
L 145.384679 -280.520846 
L 150.036422 -280.521236 
L 154.688166 -280.522388 
L 159.33991 -280.524319 
L 163.991654 -280.527007 
L 168.643398 -280.530443 
L 173.295141 -280.534622 
L 177.946885 -280.539463 
L 182.598629 -280.544669 
L 187.250373 -280.54967 
L 191.902117 -280.553777 
L 196.55386 -280.556543 
L 201.205604 -280.558153 
L 205.857348 -280.559565 
L 210.509092 -280.56227 
L 215.160836 -280.567749 
L 219.812579 -280.576903 
L 224.464323 -280.589698 
L 229.116067 -280.605182 
L 233.767811 -280.621929 
L 238.419555 -280.638697 
L 243.071298 -280.654966 
L 247.723042 -280.670982 
L 252.374786 -280.687345 
L 257.02653 -280.704638 
L 261.678274 -280.723667 
L 266.330017 -280.746213 
L 270.981761 -280.775375 
L 275.633505 -280.814657 
L 280.285249 -280.866128 
L 284.936993 -280.92902 
L 289.588736 -280.999933 
L 294.24048 -281.074491 
L 298.892224 -281.14932 
L 303.543968 -281.223328 
L 308.195712 -281.297941 
L 312.847455 -281.376599 
L 317.499199 -281.463972 
L 322.150943 -281.56536 
L 326.802687 -281.686257 
L 331.454431 -281.831549 
L 336.106174 -282.003944 
L 340.757918 -282.202539 
L 345.409662 -282.423366 
L 350.061406 -282.662803 
L 354.71315 -282.921991 
L 359.364893 -283.208724 
L 364.016637 -283.534548 
L 368.668381 -283.908383 
L 373.320125 -284.330881 
L 377.971869 -284.793359 
L 382.623612 -285.28155 
L 387.275356 -285.780901 
L 391.9271 -286.279993 
L 396.578844 -286.771617 
L 401.230588 -287.253184 
L 405.882331 -287.726897 
L 410.534075 -288.197872 
L 415.185819 -288.668811 
L 419.837563 -289.133207 
L 424.489307 -289.571848 
L 429.14105 -289.956551 
L 433.792794 -290.260284 
L 438.444538 -290.4674 
L 443.096282 -290.576671 
L 447.748026 -290.595508 
L 452.39977 -290.531704 
L 457.051513 -290.391039 
L 461.703257 -290.182328 
L 466.355001 -289.922921 
L 471.006745 -289.636671 
L 475.658489 -289.344111 
L 480.310232 -289.052599 
L 484.961976 -288.754366 
L 489.61372 -288.432709 
L 494.265464 -288.068964 
L 498.917208 -287.642954 
L 503.568951 -287.128214 
L 508.220695 -286.492534 
L 512.872439 -285.71329 
L 517.524183 -284.802676 
L 522.175927 -283.82297 
L 526.82767 -282.873991 
L 531.479414 -282.055988 
L 536.131158 -281.431539 
L 540.782902 -281.009774 
L 545.434646 -280.757459 
L 545.434646 -280.280233 
L 545.434646 -280.280233 
L 540.782902 -280.027918 
L 536.131158 -279.606153 
L 531.479414 -278.981703 
L 526.82767 -278.163701 
L 522.175927 -277.214721 
L 517.524183 -276.235015 
L 512.872439 -275.324401 
L 508.220695 -274.545157 
L 503.568951 -273.909477 
L 498.917208 -273.394737 
L 494.265464 -272.968728 
L 489.61372 -272.604983 
L 484.961976 -272.283326 
L 480.310232 -271.985092 
L 475.658489 -271.69358 
L 471.006745 -271.40102 
L 466.355001 -271.11477 
L 461.703257 -270.855363 
L 457.051513 -270.646653 
L 452.39977 -270.505988 
L 447.748026 -270.442183 
L 443.096282 -270.46102 
L 438.444538 -270.570291 
L 433.792794 -270.777407 
L 429.14105 -271.08114 
L 424.489307 -271.465843 
L 419.837563 -271.904484 
L 415.185819 -272.36888 
L 410.534075 -272.83982 
L 405.882331 -273.310794 
L 401.230588 -273.784508 
L 396.578844 -274.266075 
L 391.9271 -274.757698 
L 387.275356 -275.25679 
L 382.623612 -275.756141 
L 377.971869 -276.244332 
L 373.320125 -276.70681 
L 368.668381 -277.129309 
L 364.016637 -277.503143 
L 359.364893 -277.828967 
L 354.71315 -278.115701 
L 350.061406 -278.374888 
L 345.409662 -278.614325 
L 340.757918 -278.835153 
L 336.106174 -279.033747 
L 331.454431 -279.206143 
L 326.802687 -279.351434 
L 322.150943 -279.472331 
L 317.499199 -279.573719 
L 312.847455 -279.661092 
L 308.195712 -279.73975 
L 303.543968 -279.814364 
L 298.892224 -279.888371 
L 294.24048 -279.963201 
L 289.588736 -280.037758 
L 284.936993 -280.108671 
L 280.285249 -280.171564 
L 275.633505 -280.223034 
L 270.981761 -280.262317 
L 266.330017 -280.291478 
L 261.678274 -280.314025 
L 257.02653 -280.333054 
L 252.374786 -280.350346 
L 247.723042 -280.366709 
L 243.071298 -280.382725 
L 238.419555 -280.398994 
L 233.767811 -280.415763 
L 229.116067 -280.432509 
L 224.464323 -280.447994 
L 219.812579 -280.460788 
L 215.160836 -280.469943 
L 210.509092 -280.475421 
L 205.857348 -280.478126 
L 201.205604 -280.479539 
L 196.55386 -280.481149 
L 191.902117 -280.483915 
L 187.250373 -280.488022 
L 182.598629 -280.493023 
L 177.946885 -280.498228 
L 173.295141 -280.503069 
L 168.643398 -280.507249 
L 163.991654 -280.510684 
L 159.33991 -280.513372 
L 154.688166 -280.515303 
L 150.036422 -280.516456 
L 145.384679 -280.516846 
L 140.732935 -280.516576 
L 136.081191 -280.515863 
L 131.429447 -280.515022 
L 126.777703 -280.51436 
L 122.12596 -280.514046 
L 117.474216 -280.514025 
L 112.822472 -280.514094 
L 108.170728 -280.514084 
L 103.518984 -280.514017 
L 98.867241 -280.514085 
L 94.215497 -280.514487 
L 89.563753 -280.515254 
L 84.912009 -280.516228 
z
"/>
    </defs>
    <g clip-path="url(#p257f90dfa7)">
     <use xlink:href="#mb61bf600f8" x="0" y="351.022187" style="fill: #6cbc6e"/>
    </g>
   </g>
   <g id="PolyCollection_4">
    <defs>
     <path id="mec7462effb" d="M 94.341612 -245.246618 
L 94.341612 -245.254435 
L 99.240529 -245.255754 
L 104.139446 -245.257275 
L 109.038363 -245.259077 
L 113.93728 -245.261354 
L 118.836198 -245.264405 
L 123.735115 -245.268568 
L 128.634032 -245.274105 
L 133.532949 -245.281088 
L 138.431866 -245.289337 
L 143.330783 -245.298458 
L 148.229701 -245.307989 
L 153.128618 -245.31759 
L 158.027535 -245.327215 
L 162.926452 -245.337193 
L 167.825369 -245.348198 
L 172.724286 -245.361126 
L 177.623204 -245.376942 
L 182.522121 -245.396532 
L 187.421038 -245.420607 
L 192.319955 -245.449686 
L 197.218872 -245.484157 
L 202.117789 -245.524412 
L 207.016706 -245.571015 
L 211.915624 -245.624826 
L 216.814541 -245.68701 
L 221.713458 -245.758886 
L 226.612375 -245.841641 
L 231.511292 -245.936024 
L 236.410209 -246.042173 
L 241.309127 -246.159665 
L 246.208044 -246.287802 
L 251.106961 -246.426006 
L 256.005878 -246.574172 
L 260.904795 -246.732878 
L 265.803712 -246.903396 
L 270.70263 -247.087513 
L 275.601547 -247.287146 
L 280.500464 -247.503759 
L 285.399381 -247.737681 
L 290.298298 -247.987562 
L 295.197215 -248.250276 
L 300.096132 -248.521514 
L 304.99505 -248.797016 
L 309.893967 -249.074065 
L 314.792884 -249.352653 
L 319.691801 -249.635731 
L 324.590718 -249.928325 
L 329.489635 -250.235734 
L 334.388553 -250.561459 
L 339.28747 -250.905698 
L 344.186387 -251.265036 
L 349.085304 -251.63344 
L 353.984221 -252.004106 
L 358.883138 -252.371266 
L 363.782055 -252.73113 
L 368.680973 -253.081608 
L 373.57989 -253.421107 
L 378.478807 -253.747141 
L 383.377724 -254.055548 
L 388.276641 -254.340672 
L 393.175558 -254.596346 
L 398.074476 -254.81709 
L 402.973393 -254.998921 
L 407.87231 -255.139438 
L 412.771227 -255.237242 
L 417.670144 -255.29111 
L 422.569061 -255.2994 
L 427.467979 -255.260055 
L 432.366896 -255.171267 
L 437.265813 -255.03253 
L 442.16473 -254.845634 
L 447.063647 -254.615114 
L 451.962564 -254.347883 
L 456.861481 -254.052085 
L 461.760399 -253.735512 
L 466.659316 -253.404131 
L 471.558233 -253.061264 
L 476.45715 -252.707754 
L 481.356067 -252.343067 
L 486.254984 -251.966905 
L 491.153902 -251.580651 
L 496.052819 -251.188021 
L 500.951736 -250.794584 
L 505.850653 -250.406292 
L 510.74957 -250.02749 
L 515.648487 -249.659148 
L 520.547404 -249.297995 
L 525.446322 -248.937096 
L 530.345239 -248.567997 
L 535.244156 -248.184034 
L 540.143073 -247.783791 
L 545.04199 -247.373343 
L 549.940907 -246.966165 
L 554.839825 -246.580446 
L 559.738742 -246.234648 
L 564.637659 -245.942969 
L 569.536576 -245.712316 
L 574.435493 -245.54169 
L 579.33441 -245.423753 
L 579.33441 -245.0773 
L 579.33441 -245.0773 
L 574.435493 -244.959363 
L 569.536576 -244.788737 
L 564.637659 -244.558084 
L 559.738742 -244.266404 
L 554.839825 -243.920607 
L 549.940907 -243.534887 
L 545.04199 -243.12771 
L 540.143073 -242.717261 
L 535.244156 -242.317018 
L 530.345239 -241.933056 
L 525.446322 -241.563957 
L 520.547404 -241.203058 
L 515.648487 -240.841905 
L 510.74957 -240.473563 
L 505.850653 -240.094761 
L 500.951736 -239.706468 
L 496.052819 -239.313032 
L 491.153902 -238.920401 
L 486.254984 -238.534148 
L 481.356067 -238.157986 
L 476.45715 -237.793299 
L 471.558233 -237.439788 
L 466.659316 -237.096922 
L 461.760399 -236.765541 
L 456.861481 -236.448968 
L 451.962564 -236.15317 
L 447.063647 -235.885939 
L 442.16473 -235.655419 
L 437.265813 -235.468523 
L 432.366896 -235.329786 
L 427.467979 -235.240997 
L 422.569061 -235.201653 
L 417.670144 -235.209943 
L 412.771227 -235.263811 
L 407.87231 -235.361615 
L 402.973393 -235.502131 
L 398.074476 -235.683963 
L 393.175558 -235.904707 
L 388.276641 -236.160381 
L 383.377724 -236.445505 
L 378.478807 -236.753911 
L 373.57989 -237.079946 
L 368.680973 -237.419445 
L 363.782055 -237.769923 
L 358.883138 -238.129786 
L 353.984221 -238.496946 
L 349.085304 -238.867613 
L 344.186387 -239.236017 
L 339.28747 -239.595354 
L 334.388553 -239.939594 
L 329.489635 -240.265318 
L 324.590718 -240.572727 
L 319.691801 -240.865322 
L 314.792884 -241.1484 
L 309.893967 -241.426987 
L 304.99505 -241.704037 
L 300.096132 -241.979538 
L 295.197215 -242.250776 
L 290.298298 -242.513491 
L 285.399381 -242.763372 
L 280.500464 -242.997294 
L 275.601547 -243.213907 
L 270.70263 -243.413539 
L 265.803712 -243.597656 
L 260.904795 -243.768174 
L 256.005878 -243.92688 
L 251.106961 -244.075047 
L 246.208044 -244.213251 
L 241.309127 -244.341388 
L 236.410209 -244.45888 
L 231.511292 -244.565028 
L 226.612375 -244.659412 
L 221.713458 -244.742167 
L 216.814541 -244.814042 
L 211.915624 -244.876227 
L 207.016706 -244.930038 
L 202.117789 -244.976641 
L 197.218872 -245.016896 
L 192.319955 -245.051367 
L 187.421038 -245.080445 
L 182.522121 -245.10452 
L 177.623204 -245.12411 
L 172.724286 -245.139927 
L 167.825369 -245.152855 
L 162.926452 -245.163859 
L 158.027535 -245.173838 
L 153.128618 -245.183463 
L 148.229701 -245.193064 
L 143.330783 -245.202594 
L 138.431866 -245.211716 
L 133.532949 -245.219964 
L 128.634032 -245.226948 
L 123.735115 -245.232485 
L 118.836198 -245.236648 
L 113.93728 -245.239699 
L 109.038363 -245.241976 
L 104.139446 -245.243778 
L 99.240529 -245.245298 
L 94.341612 -245.246618 
z
"/>
    </defs>
    <g clip-path="url(#p257f90dfa7)">
     <use xlink:href="#mec7462effb" x="0" y="351.022187" style="fill: #455681"/>
    </g>
   </g>
   <g id="PolyCollection_5">
    <defs>
     <path id="m9aa8604be3" d="M 107.012283 -225.090523 
L 107.012283 -225.103879 
L 111.594633 -225.106761 
L 116.176983 -225.110077 
L 120.759333 -225.11359 
L 125.341684 -225.117029 
L 129.924034 -225.120178 
L 134.506384 -225.122962 
L 139.088734 -225.125497 
L 143.671084 -225.128085 
L 148.253434 -225.131168 
L 152.835784 -225.13525 
L 157.418134 -225.140847 
L 162.000484 -225.14845 
L 166.582834 -225.158488 
L 171.165184 -225.171243 
L 175.747534 -225.186749 
L 180.329884 -225.204713 
L 184.912234 -225.224587 
L 189.494585 -225.245806 
L 194.076935 -225.268115 
L 198.659285 -225.291823 
L 203.241635 -225.31782 
L 207.823985 -225.347325 
L 212.406335 -225.381483 
L 216.988685 -225.420991 
L 221.571035 -225.465939 
L 226.153385 -225.515929 
L 230.735735 -225.570428 
L 235.318085 -225.629196 
L 239.900435 -225.692599 
L 244.482785 -225.761655 
L 249.065135 -225.837762 
L 253.647486 -225.922265 
L 258.229836 -226.016109 
L 262.812186 -226.119746 
L 267.394536 -226.233328 
L 271.976886 -226.35698 
L 276.559236 -226.490946 
L 281.141586 -226.63554 
L 285.723936 -226.791051 
L 290.306286 -226.957768 
L 294.888636 -227.136188 
L 299.470986 -227.327274 
L 304.053336 -227.532578 
L 308.635686 -227.754076 
L 313.218037 -227.99377 
L 317.800387 -228.253135 
L 322.382737 -228.53262 
L 326.965087 -228.831327 
L 331.547437 -229.147075 
L 336.129787 -229.476888 
L 340.712137 -229.817804 
L 345.294487 -230.16761 
L 349.876837 -230.525093 
L 354.459187 -230.88962 
L 359.041537 -231.260333 
L 363.623887 -231.635524 
L 368.206237 -232.0126 
L 372.788587 -232.388541 
L 377.370938 -232.760336 
L 381.953288 -233.124922 
L 386.535638 -233.478601 
L 391.117988 -233.816379 
L 395.700338 -234.131721 
L 400.282688 -234.416877 
L 404.865038 -234.663601 
L 409.447388 -234.864021 
L 414.029738 -235.011629 
L 418.612088 -235.102421 
L 423.194438 -235.135993 
L 427.776788 -235.116131 
L 432.359138 -235.050371 
L 436.941488 -234.948409 
L 441.523839 -234.819766 
L 446.106189 -234.671456 
L 450.688539 -234.506369 
L 455.270889 -234.322837 
L 459.853239 -234.115532 
L 464.435589 -233.877544 
L 469.017939 -233.603093 
L 473.600289 -233.290022 
L 478.182639 -232.941128 
L 482.764989 -232.563766 
L 487.347339 -232.167896 
L 491.929689 -231.763303 
L 496.512039 -231.356915 
L 501.094389 -230.950881 
L 505.67674 -230.541783 
L 510.25909 -230.121225 
L 514.84144 -229.678065 
L 519.42379 -229.202315 
L 524.00614 -228.689975 
L 528.58849 -228.147188 
L 533.17084 -227.591705 
L 537.75319 -227.05038 
L 542.33554 -226.553116 
L 546.91789 -226.125421 
L 551.50024 -225.782479 
L 556.08259 -225.526813 
L 560.66494 -225.349894 
L 560.66494 -224.844508 
L 560.66494 -224.844508 
L 556.08259 -224.667589 
L 551.50024 -224.411923 
L 546.91789 -224.068981 
L 542.33554 -223.641286 
L 537.75319 -223.144022 
L 533.17084 -222.602697 
L 528.58849 -222.047214 
L 524.00614 -221.504427 
L 519.42379 -220.992087 
L 514.84144 -220.516337 
L 510.25909 -220.073177 
L 505.67674 -219.652619 
L 501.094389 -219.243521 
L 496.512039 -218.837487 
L 491.929689 -218.431099 
L 487.347339 -218.026506 
L 482.764989 -217.630636 
L 478.182639 -217.253274 
L 473.600289 -216.904379 
L 469.017939 -216.591309 
L 464.435589 -216.316858 
L 459.853239 -216.07887 
L 455.270889 -215.871565 
L 450.688539 -215.688033 
L 446.106189 -215.522946 
L 441.523839 -215.374636 
L 436.941488 -215.245993 
L 432.359138 -215.144031 
L 427.776788 -215.078271 
L 423.194438 -215.058409 
L 418.612088 -215.091981 
L 414.029738 -215.182773 
L 409.447388 -215.330381 
L 404.865038 -215.530801 
L 400.282688 -215.777525 
L 395.700338 -216.062681 
L 391.117988 -216.378023 
L 386.535638 -216.715801 
L 381.953288 -217.06948 
L 377.370938 -217.434066 
L 372.788587 -217.805861 
L 368.206237 -218.181802 
L 363.623887 -218.558878 
L 359.041537 -218.934069 
L 354.459187 -219.304782 
L 349.876837 -219.669308 
L 345.294487 -220.026792 
L 340.712137 -220.376598 
L 336.129787 -220.717514 
L 331.547437 -221.047327 
L 326.965087 -221.363075 
L 322.382737 -221.661782 
L 317.800387 -221.941267 
L 313.218037 -222.200632 
L 308.635686 -222.440325 
L 304.053336 -222.661824 
L 299.470986 -222.867128 
L 294.888636 -223.058214 
L 290.306286 -223.236634 
L 285.723936 -223.403351 
L 281.141586 -223.558862 
L 276.559236 -223.703456 
L 271.976886 -223.837422 
L 267.394536 -223.961074 
L 262.812186 -224.074656 
L 258.229836 -224.178293 
L 253.647486 -224.272136 
L 249.065135 -224.35664 
L 244.482785 -224.432747 
L 239.900435 -224.501803 
L 235.318085 -224.565206 
L 230.735735 -224.623973 
L 226.153385 -224.678472 
L 221.571035 -224.728463 
L 216.988685 -224.773411 
L 212.406335 -224.812919 
L 207.823985 -224.847077 
L 203.241635 -224.876582 
L 198.659285 -224.902579 
L 194.076935 -224.926287 
L 189.494585 -224.948596 
L 184.912234 -224.969815 
L 180.329884 -224.989689 
L 175.747534 -225.007653 
L 171.165184 -225.023158 
L 166.582834 -225.035914 
L 162.000484 -225.045952 
L 157.418134 -225.053555 
L 152.835784 -225.059152 
L 148.253434 -225.063234 
L 143.671084 -225.066316 
L 139.088734 -225.068905 
L 134.506384 -225.07144 
L 129.924034 -225.074224 
L 125.341684 -225.077373 
L 120.759333 -225.080812 
L 116.176983 -225.084325 
L 111.594633 -225.08764 
L 107.012283 -225.090523 
z
"/>
    </defs>
    <g clip-path="url(#p257f90dfa7)">
     <use xlink:href="#m9aa8604be3" x="0" y="351.022187" style="fill: #2f837f"/>
    </g>
   </g>
   <g id="PolyCollection_6">
    <defs>
     <path id="m834bd4f187" d="M 109.388456 -204.941114 
L 109.388456 -204.946637 
L 113.881702 -204.947795 
L 118.374949 -204.948998 
L 122.868196 -204.950194 
L 127.361442 -204.951427 
L 131.854689 -204.952769 
L 136.347936 -204.954175 
L 140.841182 -204.955412 
L 145.334429 -204.956149 
L 149.827676 -204.956178 
L 154.320922 -204.955639 
L 158.814169 -204.955069 
L 163.307416 -204.955228 
L 167.800662 -204.956753 
L 172.293909 -204.959772 
L 176.787156 -204.963731 
L 181.280402 -204.967567 
L 185.773649 -204.970249 
L 190.266896 -204.971357 
L 194.760142 -204.971325 
L 199.253389 -204.971173 
L 203.746636 -204.971937 
L 208.239882 -204.974206 
L 212.733129 -204.978057 
L 217.226376 -204.983349 
L 221.719622 -204.990074 
L 226.212869 -204.998512 
L 230.706115 -205.009096 
L 235.199362 -205.022124 
L 239.692609 -205.037527 
L 244.185855 -205.054875 
L 248.679102 -205.073748 
L 253.172349 -205.094312 
L 257.665595 -205.11773 
L 262.158842 -205.145908 
L 266.652089 -205.180506 
L 271.145335 -205.221792 
L 275.638582 -205.268339 
L 280.131829 -205.318037 
L 284.625075 -205.369844 
L 289.118322 -205.424996 
L 293.611569 -205.486785 
L 298.104815 -205.559131 
L 302.598062 -205.64501 
L 307.091309 -205.745747 
L 311.584555 -205.861469 
L 316.077802 -205.992199 
L 320.571049 -206.13855 
L 325.064295 -206.301298 
L 329.557542 -206.480109 
L 334.050789 -206.672692 
L 338.544035 -206.875655 
L 343.037282 -207.087098 
L 347.530529 -207.309646 
L 352.023775 -207.551971 
L 356.517022 -207.827346 
L 361.010268 -208.14897 
L 365.503515 -208.523627 
L 369.996762 -208.946973 
L 374.490008 -209.403807 
L 378.983255 -209.874103 
L 383.476502 -210.341424 
L 387.969748 -210.798303 
L 392.462995 -211.245278 
L 396.956242 -211.685074 
L 401.449488 -212.116624 
L 405.942735 -212.53295 
L 410.435982 -212.9236 
L 414.929228 -213.279408 
L 419.422475 -213.596268 
L 423.915722 -213.87546 
L 428.408968 -214.120156 
L 432.902215 -214.330312 
L 437.395462 -214.49949 
L 441.888708 -214.615974 
L 446.381955 -214.66741 
L 450.875202 -214.645602 
L 455.368448 -214.548364 
L 459.861695 -214.378328 
L 464.354942 -214.141395 
L 468.848188 -213.847345 
L 473.341435 -213.511791 
L 477.834681 -213.15584 
L 482.327928 -212.800891 
L 486.821175 -212.460249 
L 491.314421 -212.132155 
L 495.807668 -211.797393 
L 500.300915 -211.421642 
L 504.794161 -210.962246 
L 509.287408 -210.380799 
L 513.780655 -209.66127 
L 518.273901 -208.826604 
L 522.767148 -207.941615 
L 527.260395 -207.095282 
L 531.753641 -206.369641 
L 536.246888 -205.812756 
L 540.740135 -205.429836 
L 545.233381 -205.193286 
L 549.726628 -205.061495 
L 554.219875 -204.994964 
L 554.219875 -204.892788 
L 554.219875 -204.892788 
L 549.726628 -204.826257 
L 545.233381 -204.694465 
L 540.740135 -204.457915 
L 536.246888 -204.074995 
L 531.753641 -203.51811 
L 527.260395 -202.792469 
L 522.767148 -201.946136 
L 518.273901 -201.061148 
L 513.780655 -200.226481 
L 509.287408 -199.506952 
L 504.794161 -198.925505 
L 500.300915 -198.466109 
L 495.807668 -198.090358 
L 491.314421 -197.755596 
L 486.821175 -197.427502 
L 482.327928 -197.08686 
L 477.834681 -196.731911 
L 473.341435 -196.37596 
L 468.848188 -196.040406 
L 464.354942 -195.746356 
L 459.861695 -195.509424 
L 455.368448 -195.339387 
L 450.875202 -195.242149 
L 446.381955 -195.220341 
L 441.888708 -195.271778 
L 437.395462 -195.388261 
L 432.902215 -195.557439 
L 428.408968 -195.767596 
L 423.915722 -196.012292 
L 419.422475 -196.291483 
L 414.929228 -196.608344 
L 410.435982 -196.964151 
L 405.942735 -197.354801 
L 401.449488 -197.771127 
L 396.956242 -198.202677 
L 392.462995 -198.642473 
L 387.969748 -199.089449 
L 383.476502 -199.546328 
L 378.983255 -200.013648 
L 374.490008 -200.483944 
L 369.996762 -200.940779 
L 365.503515 -201.364124 
L 361.010268 -201.738781 
L 356.517022 -202.060405 
L 352.023775 -202.33578 
L 347.530529 -202.578106 
L 343.037282 -202.800653 
L 338.544035 -203.012097 
L 334.050789 -203.215059 
L 329.557542 -203.407643 
L 325.064295 -203.586453 
L 320.571049 -203.749202 
L 316.077802 -203.895552 
L 311.584555 -204.026282 
L 307.091309 -204.142005 
L 302.598062 -204.242741 
L 298.104815 -204.32862 
L 293.611569 -204.400966 
L 289.118322 -204.462755 
L 284.625075 -204.517908 
L 280.131829 -204.569714 
L 275.638582 -204.619412 
L 271.145335 -204.665959 
L 266.652089 -204.707245 
L 262.158842 -204.741843 
L 257.665595 -204.770021 
L 253.172349 -204.793439 
L 248.679102 -204.814003 
L 244.185855 -204.832876 
L 239.692609 -204.850225 
L 235.199362 -204.865627 
L 230.706115 -204.878656 
L 226.212869 -204.88924 
L 221.719622 -204.897678 
L 217.226376 -204.904403 
L 212.733129 -204.909694 
L 208.239882 -204.913545 
L 203.746636 -204.915814 
L 199.253389 -204.916578 
L 194.760142 -204.916426 
L 190.266896 -204.916394 
L 185.773649 -204.917502 
L 181.280402 -204.920185 
L 176.787156 -204.924021 
L 172.293909 -204.927979 
L 167.800662 -204.930999 
L 163.307416 -204.932523 
L 158.814169 -204.932683 
L 154.320922 -204.932112 
L 149.827676 -204.931573 
L 145.334429 -204.931602 
L 140.841182 -204.932339 
L 136.347936 -204.933577 
L 131.854689 -204.934983 
L 127.361442 -204.936324 
L 122.868196 -204.937557 
L 118.374949 -204.938753 
L 113.881702 -204.939956 
L 109.388456 -204.941114 
z
"/>
    </defs>
    <g clip-path="url(#p257f90dfa7)">
     <use xlink:href="#m834bd4f187" x="0" y="351.022187" style="fill: #6cbc6e"/>
    </g>
   </g>
   <g id="patch_3">
    <path d="M 645.39925 50.350016 
L 645.39925 50.350016 
L 645.39925 50.350016 
L 645.39925 50.350016 
z
" clip-path="url(#p257f90dfa7)" style="fill: #455681"/>
   </g>
   <g id="patch_4">
    <path d="M 645.39925 50.350016 
L 645.39925 50.350016 
L 645.39925 50.350016 
L 645.39925 50.350016 
z
" clip-path="url(#p257f90dfa7)" style="fill: #2f837f"/>
   </g>
   <g id="patch_5">
    <path d="M 645.39925 50.350016 
L 645.39925 50.350016 
L 645.39925 50.350016 
L 645.39925 50.350016 
z
" clip-path="url(#p257f90dfa7)" style="fill: #6cbc6e"/>
   </g>
   <g id="matplotlib.axis_1">
    <g id="xtick_1">
     <g id="line2d_12">
      <defs>
       <path id="m4fe0585c41" d="M 0 0 
L 0 3.5 
" style="stroke: #000000; stroke-width: 0.8"/>
      </defs>
      <g>
       <use xlink:href="#m4fe0585c41" x="158.22425" y="162.585937" style="stroke: #000000; stroke-width: 0.8"/>
      </g>
     </g>
     <g id="text_1">
      <!-- $10^{-10}$ -->
      <g transform="translate(144.27425 177.184375) scale(0.1 -0.1)">
       <defs>
        <path id="DejaVuSans-31" d="M 794 531 
L 1825 531 
L 1825 4091 
L 703 3866 
L 703 4441 
L 1819 4666 
L 2450 4666 
L 2450 531 
L 3481 531 
L 3481 0 
L 794 0 
L 794 531 
z
" transform="scale(0.015625)"/>
        <path id="DejaVuSans-30" d="M 2034 4250 
Q 1547 4250 1301 3770 
Q 1056 3291 1056 2328 
Q 1056 1369 1301 889 
Q 1547 409 2034 409 
Q 2525 409 2770 889 
Q 3016 1369 3016 2328 
Q 3016 3291 2770 3770 
Q 2525 4250 2034 4250 
z
M 2034 4750 
Q 2819 4750 3233 4129 
Q 3647 3509 3647 2328 
Q 3647 1150 3233 529 
Q 2819 -91 2034 -91 
Q 1250 -91 836 529 
Q 422 1150 422 2328 
Q 422 3509 836 4129 
Q 1250 4750 2034 4750 
z
" transform="scale(0.015625)"/>
        <path id="DejaVuSans-2212" d="M 678 2272 
L 4684 2272 
L 4684 1741 
L 678 1741 
L 678 2272 
z
" transform="scale(0.015625)"/>
       </defs>
       <use xlink:href="#DejaVuSans-31" transform="translate(0 0.765625)"/>
       <use xlink:href="#DejaVuSans-30" transform="translate(63.623047 0.765625)"/>
       <use xlink:href="#DejaVuSans-2212" transform="translate(128.203125 39.046875) scale(0.7)"/>
       <use xlink:href="#DejaVuSans-31" transform="translate(186.855469 39.046875) scale(0.7)"/>
       <use xlink:href="#DejaVuSans-30" transform="translate(231.391602 39.046875) scale(0.7)"/>
      </g>
     </g>
    </g>
    <g id="xtick_2">
     <g id="line2d_13">
      <g>
       <use xlink:href="#m4fe0585c41" x="255.65925" y="162.585937" style="stroke: #000000; stroke-width: 0.8"/>
      </g>
     </g>
     <g id="text_2">
      <!-- $10^{-8}$ -->
      <g transform="translate(243.90925 177.184375) scale(0.1 -0.1)">
       <defs>
        <path id="DejaVuSans-38" d="M 2034 2216 
Q 1584 2216 1326 1975 
Q 1069 1734 1069 1313 
Q 1069 891 1326 650 
Q 1584 409 2034 409 
Q 2484 409 2743 651 
Q 3003 894 3003 1313 
Q 3003 1734 2745 1975 
Q 2488 2216 2034 2216 
z
M 1403 2484 
Q 997 2584 770 2862 
Q 544 3141 544 3541 
Q 544 4100 942 4425 
Q 1341 4750 2034 4750 
Q 2731 4750 3128 4425 
Q 3525 4100 3525 3541 
Q 3525 3141 3298 2862 
Q 3072 2584 2669 2484 
Q 3125 2378 3379 2068 
Q 3634 1759 3634 1313 
Q 3634 634 3220 271 
Q 2806 -91 2034 -91 
Q 1263 -91 848 271 
Q 434 634 434 1313 
Q 434 1759 690 2068 
Q 947 2378 1403 2484 
z
M 1172 3481 
Q 1172 3119 1398 2916 
Q 1625 2713 2034 2713 
Q 2441 2713 2670 2916 
Q 2900 3119 2900 3481 
Q 2900 3844 2670 4047 
Q 2441 4250 2034 4250 
Q 1625 4250 1398 4047 
Q 1172 3844 1172 3481 
z
" transform="scale(0.015625)"/>
       </defs>
       <use xlink:href="#DejaVuSans-31" transform="translate(0 0.765625)"/>
       <use xlink:href="#DejaVuSans-30" transform="translate(63.623047 0.765625)"/>
       <use xlink:href="#DejaVuSans-2212" transform="translate(128.203125 39.046875) scale(0.7)"/>
       <use xlink:href="#DejaVuSans-38" transform="translate(186.855469 39.046875) scale(0.7)"/>
      </g>
     </g>
    </g>
    <g id="xtick_3">
     <g id="line2d_14">
      <g>
       <use xlink:href="#m4fe0585c41" x="353.09425" y="162.585937" style="stroke: #000000; stroke-width: 0.8"/>
      </g>
     </g>
     <g id="text_3">
      <!-- $10^{-6}$ -->
      <g transform="translate(341.34425 177.184375) scale(0.1 -0.1)">
       <defs>
        <path id="DejaVuSans-36" d="M 2113 2584 
Q 1688 2584 1439 2293 
Q 1191 2003 1191 1497 
Q 1191 994 1439 701 
Q 1688 409 2113 409 
Q 2538 409 2786 701 
Q 3034 994 3034 1497 
Q 3034 2003 2786 2293 
Q 2538 2584 2113 2584 
z
M 3366 4563 
L 3366 3988 
Q 3128 4100 2886 4159 
Q 2644 4219 2406 4219 
Q 1781 4219 1451 3797 
Q 1122 3375 1075 2522 
Q 1259 2794 1537 2939 
Q 1816 3084 2150 3084 
Q 2853 3084 3261 2657 
Q 3669 2231 3669 1497 
Q 3669 778 3244 343 
Q 2819 -91 2113 -91 
Q 1303 -91 875 529 
Q 447 1150 447 2328 
Q 447 3434 972 4092 
Q 1497 4750 2381 4750 
Q 2619 4750 2861 4703 
Q 3103 4656 3366 4563 
z
" transform="scale(0.015625)"/>
       </defs>
       <use xlink:href="#DejaVuSans-31" transform="translate(0 0.765625)"/>
       <use xlink:href="#DejaVuSans-30" transform="translate(63.623047 0.765625)"/>
       <use xlink:href="#DejaVuSans-2212" transform="translate(128.203125 39.046875) scale(0.7)"/>
       <use xlink:href="#DejaVuSans-36" transform="translate(186.855469 39.046875) scale(0.7)"/>
      </g>
     </g>
    </g>
    <g id="xtick_4">
     <g id="line2d_15">
      <g>
       <use xlink:href="#m4fe0585c41" x="450.52925" y="162.585937" style="stroke: #000000; stroke-width: 0.8"/>
      </g>
     </g>
     <g id="text_4">
      <!-- $10^{-4}$ -->
      <g transform="translate(438.77925 177.184375) scale(0.1 -0.1)">
       <defs>
        <path id="DejaVuSans-34" d="M 2419 4116 
L 825 1625 
L 2419 1625 
L 2419 4116 
z
M 2253 4666 
L 3047 4666 
L 3047 1625 
L 3713 1625 
L 3713 1100 
L 3047 1100 
L 3047 0 
L 2419 0 
L 2419 1100 
L 313 1100 
L 313 1709 
L 2253 4666 
z
" transform="scale(0.015625)"/>
       </defs>
       <use xlink:href="#DejaVuSans-31" transform="translate(0 0.684375)"/>
       <use xlink:href="#DejaVuSans-30" transform="translate(63.623047 0.684375)"/>
       <use xlink:href="#DejaVuSans-2212" transform="translate(128.203125 38.965625) scale(0.7)"/>
       <use xlink:href="#DejaVuSans-34" transform="translate(186.855469 38.965625) scale(0.7)"/>
      </g>
     </g>
    </g>
    <g id="xtick_5">
     <g id="line2d_16">
      <g>
       <use xlink:href="#m4fe0585c41" x="547.96425" y="162.585937" style="stroke: #000000; stroke-width: 0.8"/>
      </g>
     </g>
     <g id="text_5">
      <!-- $10^{-2}$ -->
      <g transform="translate(536.21425 177.184375) scale(0.1 -0.1)">
       <defs>
        <path id="DejaVuSans-32" d="M 1228 531 
L 3431 531 
L 3431 0 
L 469 0 
L 469 531 
Q 828 903 1448 1529 
Q 2069 2156 2228 2338 
Q 2531 2678 2651 2914 
Q 2772 3150 2772 3378 
Q 2772 3750 2511 3984 
Q 2250 4219 1831 4219 
Q 1534 4219 1204 4116 
Q 875 4013 500 3803 
L 500 4441 
Q 881 4594 1212 4672 
Q 1544 4750 1819 4750 
Q 2544 4750 2975 4387 
Q 3406 4025 3406 3419 
Q 3406 3131 3298 2873 
Q 3191 2616 2906 2266 
Q 2828 2175 2409 1742 
Q 1991 1309 1228 531 
z
" transform="scale(0.015625)"/>
       </defs>
       <use xlink:href="#DejaVuSans-31" transform="translate(0 0.765625)"/>
       <use xlink:href="#DejaVuSans-30" transform="translate(63.623047 0.765625)"/>
       <use xlink:href="#DejaVuSans-2212" transform="translate(128.203125 39.046875) scale(0.7)"/>
       <use xlink:href="#DejaVuSans-32" transform="translate(186.855469 39.046875) scale(0.7)"/>
      </g>
     </g>
    </g>
    <g id="xtick_6">
     <g id="line2d_17">
      <g>
       <use xlink:href="#m4fe0585c41" x="645.39925" y="162.585937" style="stroke: #000000; stroke-width: 0.8"/>
      </g>
     </g>
     <g id="text_6">
      <!-- 1 -->
      <g transform="translate(642.218 177.184375) scale(0.1 -0.1)">
       <use xlink:href="#DejaVuSans-31"/>
      </g>
     </g>
    </g>
    <g id="text_7">
     <!-- Relative Abundance -->
     <g transform="translate(351.893781 190.8625) scale(0.1 -0.1)">
      <defs>
       <path id="DejaVuSans-52" d="M 2841 2188 
Q 3044 2119 3236 1894 
Q 3428 1669 3622 1275 
L 4263 0 
L 3584 0 
L 2988 1197 
Q 2756 1666 2539 1819 
Q 2322 1972 1947 1972 
L 1259 1972 
L 1259 0 
L 628 0 
L 628 4666 
L 2053 4666 
Q 2853 4666 3247 4331 
Q 3641 3997 3641 3322 
Q 3641 2881 3436 2590 
Q 3231 2300 2841 2188 
z
M 1259 4147 
L 1259 2491 
L 2053 2491 
Q 2509 2491 2742 2702 
Q 2975 2913 2975 3322 
Q 2975 3731 2742 3939 
Q 2509 4147 2053 4147 
L 1259 4147 
z
" transform="scale(0.015625)"/>
       <path id="DejaVuSans-65" d="M 3597 1894 
L 3597 1613 
L 953 1613 
Q 991 1019 1311 708 
Q 1631 397 2203 397 
Q 2534 397 2845 478 
Q 3156 559 3463 722 
L 3463 178 
Q 3153 47 2828 -22 
Q 2503 -91 2169 -91 
Q 1331 -91 842 396 
Q 353 884 353 1716 
Q 353 2575 817 3079 
Q 1281 3584 2069 3584 
Q 2775 3584 3186 3129 
Q 3597 2675 3597 1894 
z
M 3022 2063 
Q 3016 2534 2758 2815 
Q 2500 3097 2075 3097 
Q 1594 3097 1305 2825 
Q 1016 2553 972 2059 
L 3022 2063 
z
" transform="scale(0.015625)"/>
       <path id="DejaVuSans-6c" d="M 603 4863 
L 1178 4863 
L 1178 0 
L 603 0 
L 603 4863 
z
" transform="scale(0.015625)"/>
       <path id="DejaVuSans-61" d="M 2194 1759 
Q 1497 1759 1228 1600 
Q 959 1441 959 1056 
Q 959 750 1161 570 
Q 1363 391 1709 391 
Q 2188 391 2477 730 
Q 2766 1069 2766 1631 
L 2766 1759 
L 2194 1759 
z
M 3341 1997 
L 3341 0 
L 2766 0 
L 2766 531 
Q 2569 213 2275 61 
Q 1981 -91 1556 -91 
Q 1019 -91 701 211 
Q 384 513 384 1019 
Q 384 1609 779 1909 
Q 1175 2209 1959 2209 
L 2766 2209 
L 2766 2266 
Q 2766 2663 2505 2880 
Q 2244 3097 1772 3097 
Q 1472 3097 1187 3025 
Q 903 2953 641 2809 
L 641 3341 
Q 956 3463 1253 3523 
Q 1550 3584 1831 3584 
Q 2591 3584 2966 3190 
Q 3341 2797 3341 1997 
z
" transform="scale(0.015625)"/>
       <path id="DejaVuSans-74" d="M 1172 4494 
L 1172 3500 
L 2356 3500 
L 2356 3053 
L 1172 3053 
L 1172 1153 
Q 1172 725 1289 603 
Q 1406 481 1766 481 
L 2356 481 
L 2356 0 
L 1766 0 
Q 1100 0 847 248 
Q 594 497 594 1153 
L 594 3053 
L 172 3053 
L 172 3500 
L 594 3500 
L 594 4494 
L 1172 4494 
z
" transform="scale(0.015625)"/>
       <path id="DejaVuSans-69" d="M 603 3500 
L 1178 3500 
L 1178 0 
L 603 0 
L 603 3500 
z
M 603 4863 
L 1178 4863 
L 1178 4134 
L 603 4134 
L 603 4863 
z
" transform="scale(0.015625)"/>
       <path id="DejaVuSans-76" d="M 191 3500 
L 800 3500 
L 1894 563 
L 2988 3500 
L 3597 3500 
L 2284 0 
L 1503 0 
L 191 3500 
z
" transform="scale(0.015625)"/>
       <path id="DejaVuSans-20" transform="scale(0.015625)"/>
       <path id="DejaVuSans-41" d="M 2188 4044 
L 1331 1722 
L 3047 1722 
L 2188 4044 
z
M 1831 4666 
L 2547 4666 
L 4325 0 
L 3669 0 
L 3244 1197 
L 1141 1197 
L 716 0 
L 50 0 
L 1831 4666 
z
" transform="scale(0.015625)"/>
       <path id="DejaVuSans-62" d="M 3116 1747 
Q 3116 2381 2855 2742 
Q 2594 3103 2138 3103 
Q 1681 3103 1420 2742 
Q 1159 2381 1159 1747 
Q 1159 1113 1420 752 
Q 1681 391 2138 391 
Q 2594 391 2855 752 
Q 3116 1113 3116 1747 
z
M 1159 2969 
Q 1341 3281 1617 3432 
Q 1894 3584 2278 3584 
Q 2916 3584 3314 3078 
Q 3713 2572 3713 1747 
Q 3713 922 3314 415 
Q 2916 -91 2278 -91 
Q 1894 -91 1617 61 
Q 1341 213 1159 525 
L 1159 0 
L 581 0 
L 581 4863 
L 1159 4863 
L 1159 2969 
z
" transform="scale(0.015625)"/>
       <path id="DejaVuSans-75" d="M 544 1381 
L 544 3500 
L 1119 3500 
L 1119 1403 
Q 1119 906 1312 657 
Q 1506 409 1894 409 
Q 2359 409 2629 706 
Q 2900 1003 2900 1516 
L 2900 3500 
L 3475 3500 
L 3475 0 
L 2900 0 
L 2900 538 
Q 2691 219 2414 64 
Q 2138 -91 1772 -91 
Q 1169 -91 856 284 
Q 544 659 544 1381 
z
M 1991 3584 
L 1991 3584 
z
" transform="scale(0.015625)"/>
       <path id="DejaVuSans-6e" d="M 3513 2113 
L 3513 0 
L 2938 0 
L 2938 2094 
Q 2938 2591 2744 2837 
Q 2550 3084 2163 3084 
Q 1697 3084 1428 2787 
Q 1159 2491 1159 1978 
L 1159 0 
L 581 0 
L 581 3500 
L 1159 3500 
L 1159 2956 
Q 1366 3272 1645 3428 
Q 1925 3584 2291 3584 
Q 2894 3584 3203 3211 
Q 3513 2838 3513 2113 
z
" transform="scale(0.015625)"/>
       <path id="DejaVuSans-64" d="M 2906 2969 
L 2906 4863 
L 3481 4863 
L 3481 0 
L 2906 0 
L 2906 525 
Q 2725 213 2448 61 
Q 2172 -91 1784 -91 
Q 1150 -91 751 415 
Q 353 922 353 1747 
Q 353 2572 751 3078 
Q 1150 3584 1784 3584 
Q 2172 3584 2448 3432 
Q 2725 3281 2906 2969 
z
M 947 1747 
Q 947 1113 1208 752 
Q 1469 391 1925 391 
Q 2381 391 2643 752 
Q 2906 1113 2906 1747 
Q 2906 2381 2643 2742 
Q 2381 3103 1925 3103 
Q 1469 3103 1208 2742 
Q 947 2381 947 1747 
z
" transform="scale(0.015625)"/>
       <path id="DejaVuSans-63" d="M 3122 3366 
L 3122 2828 
Q 2878 2963 2633 3030 
Q 2388 3097 2138 3097 
Q 1578 3097 1268 2742 
Q 959 2388 959 1747 
Q 959 1106 1268 751 
Q 1578 397 2138 397 
Q 2388 397 2633 464 
Q 2878 531 3122 666 
L 3122 134 
Q 2881 22 2623 -34 
Q 2366 -91 2075 -91 
Q 1284 -91 818 406 
Q 353 903 353 1747 
Q 353 2603 823 3093 
Q 1294 3584 2113 3584 
Q 2378 3584 2631 3529 
Q 2884 3475 3122 3366 
z
" transform="scale(0.015625)"/>
      </defs>
      <use xlink:href="#DejaVuSans-52"/>
      <use xlink:href="#DejaVuSans-65" x="64.982422"/>
      <use xlink:href="#DejaVuSans-6c" x="126.505859"/>
      <use xlink:href="#DejaVuSans-61" x="154.289062"/>
      <use xlink:href="#DejaVuSans-74" x="215.568359"/>
      <use xlink:href="#DejaVuSans-69" x="254.777344"/>
      <use xlink:href="#DejaVuSans-76" x="282.560547"/>
      <use xlink:href="#DejaVuSans-65" x="341.740234"/>
      <use xlink:href="#DejaVuSans-20" x="403.263672"/>
      <use xlink:href="#DejaVuSans-41" x="435.050781"/>
      <use xlink:href="#DejaVuSans-62" x="503.458984"/>
      <use xlink:href="#DejaVuSans-75" x="566.935547"/>
      <use xlink:href="#DejaVuSans-6e" x="630.314453"/>
      <use xlink:href="#DejaVuSans-64" x="693.693359"/>
      <use xlink:href="#DejaVuSans-61" x="757.169922"/>
      <use xlink:href="#DejaVuSans-6e" x="818.449219"/>
      <use xlink:href="#DejaVuSans-63" x="881.828125"/>
      <use xlink:href="#DejaVuSans-65" x="936.808594"/>
     </g>
    </g>
   </g>
   <g id="matplotlib.axis_2">
    <g id="ytick_1">
     <g id="text_8">
      <!-- Original Composite -->
      <g transform="translate(55.544562 49.310173) scale(0.1 -0.1)">
       <defs>
        <path id="DejaVuSans-4f" d="M 2522 4238 
Q 1834 4238 1429 3725 
Q 1025 3213 1025 2328 
Q 1025 1447 1429 934 
Q 1834 422 2522 422 
Q 3209 422 3611 934 
Q 4013 1447 4013 2328 
Q 4013 3213 3611 3725 
Q 3209 4238 2522 4238 
z
M 2522 4750 
Q 3503 4750 4090 4092 
Q 4678 3434 4678 2328 
Q 4678 1225 4090 567 
Q 3503 -91 2522 -91 
Q 1538 -91 948 565 
Q 359 1222 359 2328 
Q 359 3434 948 4092 
Q 1538 4750 2522 4750 
z
" transform="scale(0.015625)"/>
        <path id="DejaVuSans-72" d="M 2631 2963 
Q 2534 3019 2420 3045 
Q 2306 3072 2169 3072 
Q 1681 3072 1420 2755 
Q 1159 2438 1159 1844 
L 1159 0 
L 581 0 
L 581 3500 
L 1159 3500 
L 1159 2956 
Q 1341 3275 1631 3429 
Q 1922 3584 2338 3584 
Q 2397 3584 2469 3576 
Q 2541 3569 2628 3553 
L 2631 2963 
z
" transform="scale(0.015625)"/>
        <path id="DejaVuSans-67" d="M 2906 1791 
Q 2906 2416 2648 2759 
Q 2391 3103 1925 3103 
Q 1463 3103 1205 2759 
Q 947 2416 947 1791 
Q 947 1169 1205 825 
Q 1463 481 1925 481 
Q 2391 481 2648 825 
Q 2906 1169 2906 1791 
z
M 3481 434 
Q 3481 -459 3084 -895 
Q 2688 -1331 1869 -1331 
Q 1566 -1331 1297 -1286 
Q 1028 -1241 775 -1147 
L 775 -588 
Q 1028 -725 1275 -790 
Q 1522 -856 1778 -856 
Q 2344 -856 2625 -561 
Q 2906 -266 2906 331 
L 2906 616 
Q 2728 306 2450 153 
Q 2172 0 1784 0 
Q 1141 0 747 490 
Q 353 981 353 1791 
Q 353 2603 747 3093 
Q 1141 3584 1784 3584 
Q 2172 3584 2450 3431 
Q 2728 3278 2906 2969 
L 2906 3500 
L 3481 3500 
L 3481 434 
z
" transform="scale(0.015625)"/>
        <path id="DejaVuSans-43" d="M 4122 4306 
L 4122 3641 
Q 3803 3938 3442 4084 
Q 3081 4231 2675 4231 
Q 1875 4231 1450 3742 
Q 1025 3253 1025 2328 
Q 1025 1406 1450 917 
Q 1875 428 2675 428 
Q 3081 428 3442 575 
Q 3803 722 4122 1019 
L 4122 359 
Q 3791 134 3420 21 
Q 3050 -91 2638 -91 
Q 1578 -91 968 557 
Q 359 1206 359 2328 
Q 359 3453 968 4101 
Q 1578 4750 2638 4750 
Q 3056 4750 3426 4639 
Q 3797 4528 4122 4306 
z
" transform="scale(0.015625)"/>
        <path id="DejaVuSans-6f" d="M 1959 3097 
Q 1497 3097 1228 2736 
Q 959 2375 959 1747 
Q 959 1119 1226 758 
Q 1494 397 1959 397 
Q 2419 397 2687 759 
Q 2956 1122 2956 1747 
Q 2956 2369 2687 2733 
Q 2419 3097 1959 3097 
z
M 1959 3584 
Q 2709 3584 3137 3096 
Q 3566 2609 3566 1747 
Q 3566 888 3137 398 
Q 2709 -91 1959 -91 
Q 1206 -91 779 398 
Q 353 888 353 1747 
Q 353 2609 779 3096 
Q 1206 3584 1959 3584 
z
" transform="scale(0.015625)"/>
        <path id="DejaVuSans-6d" d="M 3328 2828 
Q 3544 3216 3844 3400 
Q 4144 3584 4550 3584 
Q 5097 3584 5394 3201 
Q 5691 2819 5691 2113 
L 5691 0 
L 5113 0 
L 5113 2094 
Q 5113 2597 4934 2840 
Q 4756 3084 4391 3084 
Q 3944 3084 3684 2787 
Q 3425 2491 3425 1978 
L 3425 0 
L 2847 0 
L 2847 2094 
Q 2847 2600 2669 2842 
Q 2491 3084 2119 3084 
Q 1678 3084 1418 2786 
Q 1159 2488 1159 1978 
L 1159 0 
L 581 0 
L 581 3500 
L 1159 3500 
L 1159 2956 
Q 1356 3278 1631 3431 
Q 1906 3584 2284 3584 
Q 2666 3584 2933 3390 
Q 3200 3197 3328 2828 
z
" transform="scale(0.015625)"/>
        <path id="DejaVuSans-70" d="M 1159 525 
L 1159 -1331 
L 581 -1331 
L 581 3500 
L 1159 3500 
L 1159 2969 
Q 1341 3281 1617 3432 
Q 1894 3584 2278 3584 
Q 2916 3584 3314 3078 
Q 3713 2572 3713 1747 
Q 3713 922 3314 415 
Q 2916 -91 2278 -91 
Q 1894 -91 1617 61 
Q 1341 213 1159 525 
z
M 3116 1747 
Q 3116 2381 2855 2742 
Q 2594 3103 2138 3103 
Q 1681 3103 1420 2742 
Q 1159 2381 1159 1747 
Q 1159 1113 1420 752 
Q 1681 391 2138 391 
Q 2594 391 2855 752 
Q 3116 1113 3116 1747 
z
" transform="scale(0.015625)"/>
        <path id="DejaVuSans-73" d="M 2834 3397 
L 2834 2853 
Q 2591 2978 2328 3040 
Q 2066 3103 1784 3103 
Q 1356 3103 1142 2972 
Q 928 2841 928 2578 
Q 928 2378 1081 2264 
Q 1234 2150 1697 2047 
L 1894 2003 
Q 2506 1872 2764 1633 
Q 3022 1394 3022 966 
Q 3022 478 2636 193 
Q 2250 -91 1575 -91 
Q 1294 -91 989 -36 
Q 684 19 347 128 
L 347 722 
Q 666 556 975 473 
Q 1284 391 1588 391 
Q 1994 391 2212 530 
Q 2431 669 2431 922 
Q 2431 1156 2273 1281 
Q 2116 1406 1581 1522 
L 1381 1569 
Q 847 1681 609 1914 
Q 372 2147 372 2553 
Q 372 3047 722 3315 
Q 1072 3584 1716 3584 
Q 2034 3584 2315 3537 
Q 2597 3491 2834 3397 
z
" transform="scale(0.015625)"/>
       </defs>
       <use xlink:href="#DejaVuSans-4f"/>
       <use xlink:href="#DejaVuSans-72" x="78.710938"/>
       <use xlink:href="#DejaVuSans-69" x="119.824219"/>
       <use xlink:href="#DejaVuSans-67" x="147.607422"/>
       <use xlink:href="#DejaVuSans-69" x="211.083984"/>
       <use xlink:href="#DejaVuSans-6e" x="238.867188"/>
       <use xlink:href="#DejaVuSans-61" x="302.246094"/>
       <use xlink:href="#DejaVuSans-6c" x="363.525391"/>
       <use xlink:href="#DejaVuSans-20" x="391.308594"/>
       <use xlink:href="#DejaVuSans-43" x="423.095703"/>
       <use xlink:href="#DejaVuSans-6f" x="492.919922"/>
       <use xlink:href="#DejaVuSans-6d" x="554.101562"/>
       <use xlink:href="#DejaVuSans-70" x="651.513672"/>
       <use xlink:href="#DejaVuSans-6f" x="714.990234"/>
       <use xlink:href="#DejaVuSans-73" x="776.171875"/>
       <use xlink:href="#DejaVuSans-69" x="828.271484"/>
       <use xlink:href="#DejaVuSans-74" x="856.054688"/>
       <use xlink:href="#DejaVuSans-65" x="895.263672"/>
      </g>
      <!-- Data -->
      <g transform="translate(127.347687 60.507985) scale(0.1 -0.1)">
       <defs>
        <path id="DejaVuSans-44" d="M 1259 4147 
L 1259 519 
L 2022 519 
Q 2988 519 3436 956 
Q 3884 1394 3884 2338 
Q 3884 3275 3436 3711 
Q 2988 4147 2022 4147 
L 1259 4147 
z
M 628 4666 
L 1925 4666 
Q 3281 4666 3915 4102 
Q 4550 3538 4550 2338 
Q 4550 1131 3912 565 
Q 3275 0 1925 0 
L 628 0 
L 628 4666 
z
" transform="scale(0.015625)"/>
       </defs>
       <use xlink:href="#DejaVuSans-44"/>
       <use xlink:href="#DejaVuSans-61" x="77.001953"/>
       <use xlink:href="#DejaVuSans-74" x="138.28125"/>
       <use xlink:href="#DejaVuSans-61" x="177.490234"/>
      </g>
     </g>
    </g>
    <g id="ytick_2">
     <g id="text_9">
      <!-- Adjusted Composite -->
      <g transform="translate(50.914875 124.885143) scale(0.1 -0.1)">
       <defs>
        <path id="DejaVuSans-6a" d="M 603 3500 
L 1178 3500 
L 1178 -63 
Q 1178 -731 923 -1031 
Q 669 -1331 103 -1331 
L -116 -1331 
L -116 -844 
L 38 -844 
Q 366 -844 484 -692 
Q 603 -541 603 -63 
L 603 3500 
z
M 603 4863 
L 1178 4863 
L 1178 4134 
L 603 4134 
L 603 4863 
z
" transform="scale(0.015625)"/>
       </defs>
       <use xlink:href="#DejaVuSans-41"/>
       <use xlink:href="#DejaVuSans-64" x="66.658203"/>
       <use xlink:href="#DejaVuSans-6a" x="130.134766"/>
       <use xlink:href="#DejaVuSans-75" x="157.917969"/>
       <use xlink:href="#DejaVuSans-73" x="221.296875"/>
       <use xlink:href="#DejaVuSans-74" x="273.396484"/>
       <use xlink:href="#DejaVuSans-65" x="312.605469"/>
       <use xlink:href="#DejaVuSans-64" x="374.128906"/>
       <use xlink:href="#DejaVuSans-20" x="437.605469"/>
       <use xlink:href="#DejaVuSans-43" x="469.392578"/>
       <use xlink:href="#DejaVuSans-6f" x="539.216797"/>
       <use xlink:href="#DejaVuSans-6d" x="600.398438"/>
       <use xlink:href="#DejaVuSans-70" x="697.810547"/>
       <use xlink:href="#DejaVuSans-6f" x="761.287109"/>
       <use xlink:href="#DejaVuSans-73" x="822.46875"/>
       <use xlink:href="#DejaVuSans-69" x="874.568359"/>
       <use xlink:href="#DejaVuSans-74" x="902.351562"/>
       <use xlink:href="#DejaVuSans-65" x="941.560547"/>
      </g>
      <!-- Data -->
      <g transform="translate(127.347687 136.082955) scale(0.1 -0.1)">
       <use xlink:href="#DejaVuSans-44"/>
       <use xlink:href="#DejaVuSans-61" x="77.001953"/>
       <use xlink:href="#DejaVuSans-74" x="138.28125"/>
       <use xlink:href="#DejaVuSans-61" x="177.490234"/>
      </g>
     </g>
    </g>
   </g>
   <g id="line2d_18">
    <path d="M 223.412678 30.196691 
L 561.206847 30.196691 
" clip-path="url(#p257f90dfa7)" style="fill: none"/>
   </g>
   <g id="line2d_19">
    <path d="M 368.11466 30.196691 
L 464.948547 30.196691 
" clip-path="url(#p257f90dfa7)" style="fill: none"/>
   </g>
   <g id="line2d_20">
    <path d="M 417.720486 30.196691 
" clip-path="url(#p257f90dfa7)" style="fill: none; stroke: #353535; stroke-width: 1.5; stroke-linecap: square"/>
   </g>
   <g id="line2d_21">
    <path d="M 244.376606 50.350016 
L 547.06219 50.350016 
" clip-path="url(#p257f90dfa7)" style="fill: none"/>
   </g>
   <g id="line2d_22">
    <path d="M 378.716327 50.350016 
L 468.427706 50.350016 
" clip-path="url(#p257f90dfa7)" style="fill: none"/>
   </g>
   <g id="line2d_23">
    <path d="M 425.593541 50.350016 
" clip-path="url(#p257f90dfa7)" style="fill: none; stroke: #353535; stroke-width: 1.5; stroke-linecap: square"/>
   </g>
   <g id="line2d_24">
    <path d="M 301.858034 70.503342 
L 532.944303 70.503342 
" clip-path="url(#p257f90dfa7)" style="fill: none"/>
   </g>
   <g id="line2d_25">
    <path d="M 407.003843 70.503342 
L 477.120483 70.503342 
" clip-path="url(#p257f90dfa7)" style="fill: none"/>
   </g>
   <g id="line2d_26">
    <path d="M 443.131062 70.503342 
" clip-path="url(#p257f90dfa7)" style="fill: none; stroke: #353535; stroke-width: 1.5; stroke-linecap: square"/>
   </g>
   <g id="line2d_27">
    <path d="M 216.92427 105.771661 
L 561.129285 105.771661 
" clip-path="url(#p257f90dfa7)" style="fill: none"/>
   </g>
   <g id="line2d_28">
    <path d="M 363.835245 105.771661 
L 461.95081 105.771661 
" clip-path="url(#p257f90dfa7)" style="fill: none"/>
   </g>
   <g id="line2d_29">
    <path d="M 414.815296 105.771661 
" clip-path="url(#p257f90dfa7)" style="fill: none; stroke: #353535; stroke-width: 1.5; stroke-linecap: square"/>
   </g>
   <g id="line2d_30">
    <path d="M 238.913055 125.924987 
L 544.625719 125.924987 
" clip-path="url(#p257f90dfa7)" style="fill: none"/>
   </g>
   <g id="line2d_31">
    <path d="M 374.694494 125.924987 
L 465.488447 125.924987 
" clip-path="url(#p257f90dfa7)" style="fill: none"/>
   </g>
   <g id="line2d_32">
    <path d="M 421.131391 125.924987 
" clip-path="url(#p257f90dfa7)" style="fill: none; stroke: #353535; stroke-width: 1.5; stroke-linecap: square"/>
   </g>
   <g id="line2d_33">
    <path d="M 294.909644 146.078312 
L 541.587033 146.078312 
" clip-path="url(#p257f90dfa7)" style="fill: none"/>
   </g>
   <g id="line2d_34">
    <path d="M 402.31015 146.078312 
L 473.992086 146.078312 
" clip-path="url(#p257f90dfa7)" style="fill: none"/>
   </g>
   <g id="line2d_35">
    <path d="M 440.022107 146.078312 
" clip-path="url(#p257f90dfa7)" style="fill: none; stroke: #353535; stroke-width: 1.5; stroke-linecap: square"/>
   </g>
   <g id="line2d_36">
    <path d="M 374.355194 22.343711 
L 374.355194 38.049671 
" clip-path="url(#p257f90dfa7)" style="fill: none; stroke: #ffffff; stroke-width: 1.5; stroke-linecap: square"/>
   </g>
   <g id="line2d_37">
    <path d="M 416.960019 40.480665 
L 416.960019 60.219367 
" clip-path="url(#p257f90dfa7)" style="fill: none; stroke: #ffffff; stroke-width: 1.5; stroke-linecap: square"/>
   </g>
   <g id="line2d_38">
    <path d="M 442.410047 60.445516 
L 442.410047 80.561167 
" clip-path="url(#p257f90dfa7)" style="fill: none; stroke: #ffffff; stroke-width: 1.5; stroke-linecap: square"/>
   </g>
   <g id="line2d_39">
    <path d="M 369.489541 97.94058 
L 369.489541 113.602743 
" clip-path="url(#p257f90dfa7)" style="fill: none; stroke: #ffffff; stroke-width: 1.5; stroke-linecap: square"/>
   </g>
   <g id="line2d_40">
    <path d="M 412.361465 116.010558 
L 412.361465 135.839415 
" clip-path="url(#p257f90dfa7)" style="fill: none; stroke: #ffffff; stroke-width: 1.5; stroke-linecap: square"/>
   </g>
   <g id="line2d_41">
    <path d="M 439.368485 136.522697 
L 439.368485 155.633926 
" clip-path="url(#p257f90dfa7)" style="fill: none; stroke: #ffffff; stroke-width: 1.5; stroke-linecap: square"/>
   </g>
   <g id="patch_6">
    <path d="M 158.22425 162.585937 
L 645.39925 162.585937 
" style="fill: none; stroke: #000000; stroke-width: 0.8; stroke-linejoin: miter; stroke-linecap: square"/>
   </g>
   <g id="text_10">
    <!-- a (Swabs) -->
    <g transform="translate(7.2 14.798437) scale(0.1 -0.1)">
     <defs>
      <path id="DejaVuSans-Bold-61" d="M 2106 1575 
Q 1756 1575 1579 1456 
Q 1403 1338 1403 1106 
Q 1403 894 1545 773 
Q 1688 653 1941 653 
Q 2256 653 2472 879 
Q 2688 1106 2688 1447 
L 2688 1575 
L 2106 1575 
z
M 3816 1997 
L 3816 0 
L 2688 0 
L 2688 519 
Q 2463 200 2181 54 
Q 1900 -91 1497 -91 
Q 953 -91 614 226 
Q 275 544 275 1050 
Q 275 1666 698 1953 
Q 1122 2241 2028 2241 
L 2688 2241 
L 2688 2328 
Q 2688 2594 2478 2717 
Q 2269 2841 1825 2841 
Q 1466 2841 1156 2769 
Q 847 2697 581 2553 
L 581 3406 
Q 941 3494 1303 3539 
Q 1666 3584 2028 3584 
Q 2975 3584 3395 3211 
Q 3816 2838 3816 1997 
z
" transform="scale(0.015625)"/>
      <path id="DejaVuSans-Bold-20" transform="scale(0.015625)"/>
      <path id="DejaVuSans-Bold-28" d="M 2413 -844 
L 1484 -844 
Q 1006 -72 778 623 
Q 550 1319 550 2003 
Q 550 2688 779 3389 
Q 1009 4091 1484 4856 
L 2413 4856 
Q 2013 4116 1813 3408 
Q 1613 2700 1613 2009 
Q 1613 1319 1811 609 
Q 2009 -100 2413 -844 
z
" transform="scale(0.015625)"/>
      <path id="DejaVuSans-Bold-53" d="M 3834 4519 
L 3834 3531 
Q 3450 3703 3084 3790 
Q 2719 3878 2394 3878 
Q 1963 3878 1756 3759 
Q 1550 3641 1550 3391 
Q 1550 3203 1689 3098 
Q 1828 2994 2194 2919 
L 2706 2816 
Q 3484 2659 3812 2340 
Q 4141 2022 4141 1434 
Q 4141 663 3683 286 
Q 3225 -91 2284 -91 
Q 1841 -91 1394 -6 
Q 947 78 500 244 
L 500 1259 
Q 947 1022 1364 901 
Q 1781 781 2169 781 
Q 2563 781 2772 912 
Q 2981 1044 2981 1288 
Q 2981 1506 2839 1625 
Q 2697 1744 2272 1838 
L 1806 1941 
Q 1106 2091 782 2419 
Q 459 2747 459 3303 
Q 459 4000 909 4375 
Q 1359 4750 2203 4750 
Q 2588 4750 2994 4692 
Q 3400 4634 3834 4519 
z
" transform="scale(0.015625)"/>
      <path id="DejaVuSans-Bold-77" d="M 225 3500 
L 1313 3500 
L 1900 1088 
L 2491 3500 
L 3425 3500 
L 4013 1113 
L 4603 3500 
L 5691 3500 
L 4769 0 
L 3547 0 
L 2956 2406 
L 2369 0 
L 1147 0 
L 225 3500 
z
" transform="scale(0.015625)"/>
      <path id="DejaVuSans-Bold-62" d="M 2400 722 
Q 2759 722 2948 984 
Q 3138 1247 3138 1747 
Q 3138 2247 2948 2509 
Q 2759 2772 2400 2772 
Q 2041 2772 1848 2508 
Q 1656 2244 1656 1747 
Q 1656 1250 1848 986 
Q 2041 722 2400 722 
z
M 1656 2988 
Q 1888 3294 2169 3439 
Q 2450 3584 2816 3584 
Q 3463 3584 3878 3070 
Q 4294 2556 4294 1747 
Q 4294 938 3878 423 
Q 3463 -91 2816 -91 
Q 2450 -91 2169 54 
Q 1888 200 1656 506 
L 1656 0 
L 538 0 
L 538 4863 
L 1656 4863 
L 1656 2988 
z
" transform="scale(0.015625)"/>
      <path id="DejaVuSans-Bold-73" d="M 3272 3391 
L 3272 2541 
Q 2913 2691 2578 2766 
Q 2244 2841 1947 2841 
Q 1628 2841 1473 2761 
Q 1319 2681 1319 2516 
Q 1319 2381 1436 2309 
Q 1553 2238 1856 2203 
L 2053 2175 
Q 2913 2066 3209 1816 
Q 3506 1566 3506 1031 
Q 3506 472 3093 190 
Q 2681 -91 1863 -91 
Q 1516 -91 1145 -36 
Q 775 19 384 128 
L 384 978 
Q 719 816 1070 734 
Q 1422 653 1784 653 
Q 2113 653 2278 743 
Q 2444 834 2444 1013 
Q 2444 1163 2330 1236 
Q 2216 1309 1875 1350 
L 1678 1375 
Q 931 1469 631 1722 
Q 331 1975 331 2491 
Q 331 3047 712 3315 
Q 1094 3584 1881 3584 
Q 2191 3584 2531 3537 
Q 2872 3491 3272 3391 
z
" transform="scale(0.015625)"/>
      <path id="DejaVuSans-Bold-29" d="M 513 -844 
Q 913 -100 1113 609 
Q 1313 1319 1313 2009 
Q 1313 2700 1113 3408 
Q 913 4116 513 4856 
L 1441 4856 
Q 1916 4091 2145 3389 
Q 2375 2688 2375 2003 
Q 2375 1319 2147 623 
Q 1919 -72 1441 -844 
L 513 -844 
z
" transform="scale(0.015625)"/>
     </defs>
     <use xlink:href="#DejaVuSans-Bold-61"/>
     <use xlink:href="#DejaVuSans-Bold-20" x="67.480469"/>
     <use xlink:href="#DejaVuSans-Bold-28" x="102.294922"/>
     <use xlink:href="#DejaVuSans-Bold-53" x="147.998047"/>
     <use xlink:href="#DejaVuSans-Bold-77" x="220.019531"/>
     <use xlink:href="#DejaVuSans-Bold-61" x="312.402344"/>
     <use xlink:href="#DejaVuSans-Bold-62" x="379.882812"/>
     <use xlink:href="#DejaVuSans-Bold-73" x="451.464844"/>
     <use xlink:href="#DejaVuSans-Bold-29" x="510.986328"/>
    </g>
   </g>
   <g id="legend_1">
    <g id="text_11">
     <!-- Number of -->
     <g transform="translate(654.39925 63.104219) scale(0.1 -0.1)">
      <defs>
       <path id="DejaVuSans-4e" d="M 628 4666 
L 1478 4666 
L 3547 763 
L 3547 4666 
L 4159 4666 
L 4159 0 
L 3309 0 
L 1241 3903 
L 1241 0 
L 628 0 
L 628 4666 
z
" transform="scale(0.015625)"/>
       <path id="DejaVuSans-66" d="M 2375 4863 
L 2375 4384 
L 1825 4384 
Q 1516 4384 1395 4259 
Q 1275 4134 1275 3809 
L 1275 3500 
L 2222 3500 
L 2222 3053 
L 1275 3053 
L 1275 0 
L 697 0 
L 697 3053 
L 147 3053 
L 147 3500 
L 697 3500 
L 697 3744 
Q 697 4328 969 4595 
Q 1241 4863 1831 4863 
L 2375 4863 
z
" transform="scale(0.015625)"/>
      </defs>
      <use xlink:href="#DejaVuSans-4e"/>
      <use xlink:href="#DejaVuSans-75" x="74.804688"/>
      <use xlink:href="#DejaVuSans-6d" x="138.183594"/>
      <use xlink:href="#DejaVuSans-62" x="235.595703"/>
      <use xlink:href="#DejaVuSans-65" x="299.072266"/>
      <use xlink:href="#DejaVuSans-72" x="360.595703"/>
      <use xlink:href="#DejaVuSans-20" x="401.708984"/>
      <use xlink:href="#DejaVuSans-6f" x="433.496094"/>
      <use xlink:href="#DejaVuSans-66" x="494.677734"/>
     </g>
     <!-- swabs -->
     <g transform="translate(654.39925 74.302031) scale(0.1 -0.1)">
      <defs>
       <path id="DejaVuSans-77" d="M 269 3500 
L 844 3500 
L 1563 769 
L 2278 3500 
L 2956 3500 
L 3675 769 
L 4391 3500 
L 4966 3500 
L 4050 0 
L 3372 0 
L 2619 2869 
L 1863 0 
L 1184 0 
L 269 3500 
z
" transform="scale(0.015625)"/>
      </defs>
      <use xlink:href="#DejaVuSans-73"/>
      <use xlink:href="#DejaVuSans-77" x="52.099609"/>
      <use xlink:href="#DejaVuSans-61" x="133.886719"/>
      <use xlink:href="#DejaVuSans-62" x="195.166016"/>
      <use xlink:href="#DejaVuSans-73" x="258.642578"/>
     </g>
    </g>
    <g id="patch_7">
     <path d="M 654.39925 88.980156 
L 674.39925 88.980156 
L 674.39925 81.980156 
L 654.39925 81.980156 
z
" style="fill: #455681"/>
    </g>
    <g id="text_12">
     <!-- 100 -->
     <g transform="translate(682.39925 88.980156) scale(0.1 -0.1)">
      <use xlink:href="#DejaVuSans-31"/>
      <use xlink:href="#DejaVuSans-30" x="63.623047"/>
      <use xlink:href="#DejaVuSans-30" x="127.246094"/>
     </g>
    </g>
    <g id="patch_8">
     <path d="M 654.39925 103.658281 
L 674.39925 103.658281 
L 674.39925 96.658281 
L 654.39925 96.658281 
z
" style="fill: #2f837f"/>
    </g>
    <g id="text_13">
     <!-- 200 -->
     <g transform="translate(682.39925 103.658281) scale(0.1 -0.1)">
      <use xlink:href="#DejaVuSans-32"/>
      <use xlink:href="#DejaVuSans-30" x="63.623047"/>
      <use xlink:href="#DejaVuSans-30" x="127.246094"/>
     </g>
    </g>
    <g id="patch_9">
     <path d="M 654.39925 118.336406 
L 674.39925 118.336406 
L 674.39925 111.336406 
L 654.39925 111.336406 
z
" style="fill: #6cbc6e"/>
    </g>
    <g id="text_14">
     <!-- 400 -->
     <g transform="translate(682.39925 118.336406) scale(0.1 -0.1)">
      <use xlink:href="#DejaVuSans-34"/>
      <use xlink:href="#DejaVuSans-30" x="63.623047"/>
      <use xlink:href="#DejaVuSans-30" x="127.246094"/>
     </g>
    </g>
   </g>
  </g>
  <g id="axes_2">
   <g id="patch_10">
    <path d="M 158.22425 313.465937 
L 645.39925 313.465937 
L 645.39925 213.965937 
L 158.22425 213.965937 
z
" style="fill: #ffffff"/>
   </g>
   <g id="line2d_42">
    <path d="M 158.22425 313.465937 
L 158.22425 213.965937 
" clip-path="url(#pd6ab0fe99c)" style="fill: none; stroke-dasharray: 1.11,0.48; stroke-dashoffset: 0; stroke: #000000; stroke-opacity: 0.2; stroke-width: 0.3"/>
   </g>
   <g id="line2d_43">
    <path d="M 206.94175 313.465937 
L 206.94175 213.965937 
" clip-path="url(#pd6ab0fe99c)" style="fill: none; stroke-dasharray: 1.11,0.48; stroke-dashoffset: 0; stroke: #000000; stroke-opacity: 0.2; stroke-width: 0.3"/>
   </g>
   <g id="line2d_44">
    <path d="M 255.65925 313.465937 
L 255.65925 213.965937 
" clip-path="url(#pd6ab0fe99c)" style="fill: none; stroke-dasharray: 1.11,0.48; stroke-dashoffset: 0; stroke: #000000; stroke-opacity: 0.2; stroke-width: 0.3"/>
   </g>
   <g id="line2d_45">
    <path d="M 304.37675 313.465937 
L 304.37675 213.965937 
" clip-path="url(#pd6ab0fe99c)" style="fill: none; stroke-dasharray: 1.11,0.48; stroke-dashoffset: 0; stroke: #000000; stroke-opacity: 0.2; stroke-width: 0.3"/>
   </g>
   <g id="line2d_46">
    <path d="M 353.09425 313.465937 
L 353.09425 213.965937 
" clip-path="url(#pd6ab0fe99c)" style="fill: none; stroke-dasharray: 1.11,0.48; stroke-dashoffset: 0; stroke: #000000; stroke-opacity: 0.2; stroke-width: 0.3"/>
   </g>
   <g id="line2d_47">
    <path d="M 401.81175 313.465937 
L 401.81175 213.965937 
" clip-path="url(#pd6ab0fe99c)" style="fill: none; stroke-dasharray: 1.11,0.48; stroke-dashoffset: 0; stroke: #000000; stroke-opacity: 0.2; stroke-width: 0.3"/>
   </g>
   <g id="line2d_48">
    <path d="M 450.52925 313.465937 
L 450.52925 213.965937 
" clip-path="url(#pd6ab0fe99c)" style="fill: none; stroke-dasharray: 1.11,0.48; stroke-dashoffset: 0; stroke: #000000; stroke-opacity: 0.2; stroke-width: 0.3"/>
   </g>
   <g id="line2d_49">
    <path d="M 499.24675 313.465937 
L 499.24675 213.965937 
" clip-path="url(#pd6ab0fe99c)" style="fill: none; stroke-dasharray: 1.11,0.48; stroke-dashoffset: 0; stroke: #000000; stroke-opacity: 0.2; stroke-width: 0.3"/>
   </g>
   <g id="line2d_50">
    <path d="M 547.96425 313.465937 
L 547.96425 213.965937 
" clip-path="url(#pd6ab0fe99c)" style="fill: none; stroke-dasharray: 1.11,0.48; stroke-dashoffset: 0; stroke: #000000; stroke-opacity: 0.2; stroke-width: 0.3"/>
   </g>
   <g id="line2d_51">
    <path d="M 596.68175 313.465937 
L 596.68175 213.965937 
" clip-path="url(#pd6ab0fe99c)" style="fill: none; stroke-dasharray: 1.11,0.48; stroke-dashoffset: 0; stroke: #000000; stroke-opacity: 0.2; stroke-width: 0.3"/>
   </g>
   <g id="line2d_52">
    <path d="M 645.39925 313.465937 
L 645.39925 213.965937 
" clip-path="url(#pd6ab0fe99c)" style="fill: none; stroke-dasharray: 1.11,0.48; stroke-dashoffset: 0; stroke: #000000; stroke-opacity: 0.2; stroke-width: 0.3"/>
   </g>
   <g id="PolyCollection_7">
    <defs>
     <path id="meabdbcf188" d="M 213.974093 -116.485947 
L 213.974093 -116.490523 
L 215.840564 -116.4933 
L 217.707034 -116.498179 
L 219.573504 -116.505721 
L 221.439974 -116.516081 
L 223.306444 -116.528841 
L 225.172914 -116.543029 
L 227.039384 -116.55738 
L 228.905854 -116.570893 
L 230.772324 -116.583512 
L 232.638794 -116.596453 
L 234.505264 -116.611798 
L 236.371734 -116.6316 
L 238.238205 -116.657324 
L 240.104675 -116.690089 
L 241.971145 -116.73138 
L 243.837615 -116.783503 
L 245.704085 -116.84926 
L 247.570555 -116.930954 
L 249.437025 -117.029535 
L 251.303495 -117.14475 
L 253.169965 -117.276139 
L 255.036435 -117.423658 
L 256.902905 -117.587328 
L 258.769375 -117.766986 
L 260.635846 -117.963837 
L 262.502316 -118.183974 
L 264.368786 -118.442172 
L 266.235256 -118.763274 
L 268.101726 -119.17846 
L 269.968196 -119.714814 
L 271.834666 -120.380973 
L 273.701136 -121.157799 
L 275.567606 -122.004111 
L 277.434076 -122.878308 
L 279.300546 -123.763081 
L 281.167016 -124.675321 
L 283.033486 -125.652876 
L 284.899957 -126.725552 
L 286.766427 -127.886736 
L 288.632897 -129.080675 
L 290.499367 -130.212972 
L 292.365837 -131.180745 
L 294.232307 -131.906669 
L 296.098777 -132.356753 
L 297.965247 -132.533523 
L 299.831717 -132.455534 
L 301.698187 -132.141644 
L 303.564657 -131.60819 
L 305.431127 -130.873924 
L 307.297598 -129.965008 
L 309.164068 -128.917209 
L 311.030538 -127.774761 
L 312.897008 -126.585081 
L 314.763478 -125.390406 
L 316.629948 -124.220914 
L 318.496418 -123.094255 
L 320.362888 -122.022212 
L 322.229358 -121.019931 
L 324.095828 -120.110711 
L 325.962298 -119.321976 
L 327.828768 -118.674313 
L 329.695238 -118.170969 
L 331.561709 -117.795286 
L 333.428179 -117.517997 
L 335.294649 -117.309322 
L 337.161119 -117.148145 
L 339.027589 -117.02355 
L 340.894059 -116.93009 
L 342.760529 -116.862161 
L 344.626999 -116.812013 
L 346.493469 -116.771655 
L 348.359939 -116.735607 
L 350.226409 -116.70182 
L 352.092879 -116.670606 
L 353.95935 -116.642995 
L 355.82582 -116.619687 
L 357.69229 -116.600692 
L 359.55876 -116.585386 
L 361.42523 -116.572788 
L 363.2917 -116.561978 
L 365.15817 -116.552475 
L 367.02464 -116.544274 
L 368.89111 -116.537492 
L 370.75758 -116.531888 
L 372.62405 -116.526723 
L 374.49052 -116.521184 
L 376.35699 -116.515104 
L 378.223461 -116.509342 
L 380.089931 -116.505424 
L 381.956401 -116.504601 
L 383.822871 -116.50691 
L 385.689341 -116.510852 
L 387.555811 -116.513999 
L 389.422281 -116.514274 
L 391.288751 -116.511091 
L 393.155221 -116.505537 
L 395.021691 -116.499505 
L 396.888161 -116.494547 
L 398.754631 -116.491274 
L 398.754631 -116.485196 
L 398.754631 -116.485196 
L 396.888161 -116.481923 
L 395.021691 -116.476965 
L 393.155221 -116.470933 
L 391.288751 -116.465379 
L 389.422281 -116.462197 
L 387.555811 -116.462471 
L 385.689341 -116.465619 
L 383.822871 -116.469561 
L 381.956401 -116.471869 
L 380.089931 -116.471046 
L 378.223461 -116.467128 
L 376.35699 -116.461366 
L 374.49052 -116.455286 
L 372.62405 -116.449747 
L 370.75758 -116.444582 
L 368.89111 -116.438978 
L 367.02464 -116.432196 
L 365.15817 -116.423995 
L 363.2917 -116.414492 
L 361.42523 -116.403683 
L 359.55876 -116.391084 
L 357.69229 -116.375779 
L 355.82582 -116.356783 
L 353.95935 -116.333475 
L 352.092879 -116.305865 
L 350.226409 -116.27465 
L 348.359939 -116.240863 
L 346.493469 -116.204815 
L 344.626999 -116.164457 
L 342.760529 -116.11431 
L 340.894059 -116.04638 
L 339.027589 -115.95292 
L 337.161119 -115.828325 
L 335.294649 -115.667148 
L 333.428179 -115.458474 
L 331.561709 -115.181184 
L 329.695238 -114.805501 
L 327.828768 -114.302157 
L 325.962298 -113.654495 
L 324.095828 -112.865759 
L 322.229358 -111.956539 
L 320.362888 -110.954258 
L 318.496418 -109.882215 
L 316.629948 -108.755556 
L 314.763478 -107.586064 
L 312.897008 -106.391389 
L 311.030538 -105.20171 
L 309.164068 -104.059261 
L 307.297598 -103.011462 
L 305.431127 -102.102546 
L 303.564657 -101.36828 
L 301.698187 -100.834826 
L 299.831717 -100.520936 
L 297.965247 -100.442947 
L 296.098777 -100.619717 
L 294.232307 -101.069801 
L 292.365837 -101.795725 
L 290.499367 -102.763498 
L 288.632897 -103.895795 
L 286.766427 -105.089735 
L 284.899957 -106.250918 
L 283.033486 -107.323594 
L 281.167016 -108.301149 
L 279.300546 -109.213389 
L 277.434076 -110.098162 
L 275.567606 -110.972359 
L 273.701136 -111.818671 
L 271.834666 -112.595497 
L 269.968196 -113.261656 
L 268.101726 -113.798011 
L 266.235256 -114.213196 
L 264.368786 -114.534298 
L 262.502316 -114.792496 
L 260.635846 -115.012634 
L 258.769375 -115.209484 
L 256.902905 -115.389143 
L 255.036435 -115.552812 
L 253.169965 -115.700331 
L 251.303495 -115.83172 
L 249.437025 -115.946936 
L 247.570555 -116.045516 
L 245.704085 -116.12721 
L 243.837615 -116.192967 
L 241.971145 -116.24509 
L 240.104675 -116.286381 
L 238.238205 -116.319146 
L 236.371734 -116.344871 
L 234.505264 -116.364672 
L 232.638794 -116.380017 
L 230.772324 -116.392959 
L 228.905854 -116.405577 
L 227.039384 -116.41909 
L 225.172914 -116.433442 
L 223.306444 -116.447629 
L 221.439974 -116.460389 
L 219.573504 -116.470749 
L 217.707034 -116.478291 
L 215.840564 -116.48317 
L 213.974093 -116.485947 
z
"/>
    </defs>
    <g clip-path="url(#pd6ab0fe99c)">
     <use xlink:href="#meabdbcf188" x="0" y="351.022187" style="fill: #a4c746"/>
    </g>
   </g>
   <g id="PolyCollection_8">
    <defs>
     <path id="ma8d46fad34" d="M 113.481051 -52.306023 
L 113.481051 -52.308146 
L 116.8974 -52.309367 
L 120.31375 -52.311169 
L 123.730099 -52.313165 
L 127.146448 -52.314617 
L 130.562797 -52.314849 
L 133.979146 -52.313744 
L 137.395495 -52.311838 
L 140.811845 -52.309913 
L 144.228194 -52.308506 
L 147.644543 -52.307773 
L 151.060892 -52.307687 
L 154.477241 -52.308353 
L 157.89359 -52.310152 
L 161.30994 -52.313609 
L 164.726289 -52.318961 
L 168.142638 -52.325677 
L 171.558987 -52.33243 
L 174.975336 -52.337766 
L 178.391685 -52.341063 
L 181.808035 -52.342956 
L 185.224384 -52.344877 
L 188.640733 -52.348269 
L 192.057082 -52.354167 
L 195.473431 -52.363171 
L 198.88978 -52.375511 
L 202.30613 -52.391443 
L 205.722479 -52.412282 
L 209.138828 -52.441158 
L 212.555177 -52.482 
L 215.971526 -52.536875 
L 219.387875 -52.603809 
L 222.804225 -52.677079 
L 226.220574 -52.749833 
L 229.636923 -52.817287 
L 233.053272 -52.87887 
L 236.469621 -52.93865 
L 239.88597 -53.004088 
L 243.30232 -53.083934 
L 246.718669 -53.186797 
L 250.135018 -53.321044 
L 253.551367 -53.494825 
L 256.967716 -53.715173 
L 260.384065 -53.98682 
L 263.800415 -54.311596 
L 267.216764 -54.68849 
L 270.633113 -55.114603 
L 274.049462 -55.586809 
L 277.465811 -56.102765 
L 280.88216 -56.660613 
L 284.298509 -57.258197 
L 287.714859 -57.892264 
L 291.131208 -58.557699 
L 294.547557 -59.247159 
L 297.963906 -59.949751 
L 301.380255 -60.646382 
L 304.796604 -61.30403 
L 308.212954 -61.875161 
L 311.629303 -62.304002 
L 315.045652 -62.535192 
L 318.462001 -62.521235 
L 321.87835 -62.228949 
L 325.294699 -61.646248 
L 328.711049 -60.79107 
L 332.127398 -59.721533 
L 335.543747 -58.537295 
L 338.960096 -57.359447 
L 342.376445 -56.293486 
L 345.792794 -55.400059 
L 349.209144 -54.69218 
L 352.625493 -54.152014 
L 356.041842 -53.748441 
L 359.458191 -53.447298 
L 362.87454 -53.217489 
L 366.290889 -53.035267 
L 369.707239 -52.885462 
L 373.123588 -52.75985 
L 376.539937 -52.654769 
L 379.956286 -52.569077 
L 383.372635 -52.502443 
L 386.788984 -52.453916 
L 390.205334 -52.420846 
L 393.621683 -52.398538 
L 397.038032 -52.381391 
L 400.454381 -52.365228 
L 403.87073 -52.348965 
L 407.287079 -52.334129 
L 410.703429 -52.32286 
L 414.119778 -52.31625 
L 417.536127 -52.313991 
L 420.952476 -52.314868 
L 424.368825 -52.317312 
L 427.785174 -52.319763 
L 431.201524 -52.320989 
L 434.617873 -52.320393 
L 438.034222 -52.318152 
L 441.450571 -52.315042 
L 444.86692 -52.311998 
L 448.283269 -52.309672 
L 451.699619 -52.308239 
L 451.699619 -52.30593 
L 451.699619 -52.30593 
L 448.283269 -52.304497 
L 444.86692 -52.302171 
L 441.450571 -52.299127 
L 438.034222 -52.296017 
L 434.617873 -52.293776 
L 431.201524 -52.29318 
L 427.785174 -52.294406 
L 424.368825 -52.296857 
L 420.952476 -52.299301 
L 417.536127 -52.300178 
L 414.119778 -52.297919 
L 410.703429 -52.291309 
L 407.287079 -52.28004 
L 403.87073 -52.265204 
L 400.454381 -52.248941 
L 397.038032 -52.232778 
L 393.621683 -52.215631 
L 390.205334 -52.193323 
L 386.788984 -52.160253 
L 383.372635 -52.111726 
L 379.956286 -52.045092 
L 376.539937 -51.9594 
L 373.123588 -51.854319 
L 369.707239 -51.728707 
L 366.290889 -51.578902 
L 362.87454 -51.39668 
L 359.458191 -51.166871 
L 356.041842 -50.865728 
L 352.625493 -50.462154 
L 349.209144 -49.921989 
L 345.792794 -49.21411 
L 342.376445 -48.320683 
L 338.960096 -47.254722 
L 335.543747 -46.076874 
L 332.127398 -44.892636 
L 328.711049 -43.823098 
L 325.294699 -42.967921 
L 321.87835 -42.38522 
L 318.462001 -42.092934 
L 315.045652 -42.078977 
L 311.629303 -42.310167 
L 308.212954 -42.739008 
L 304.796604 -43.310139 
L 301.380255 -43.967787 
L 297.963906 -44.664418 
L 294.547557 -45.367009 
L 291.131208 -46.05647 
L 287.714859 -46.721905 
L 284.298509 -47.355972 
L 280.88216 -47.953556 
L 277.465811 -48.511404 
L 274.049462 -49.02736 
L 270.633113 -49.499566 
L 267.216764 -49.925679 
L 263.800415 -50.302573 
L 260.384065 -50.627348 
L 256.967716 -50.898996 
L 253.551367 -51.119344 
L 250.135018 -51.293125 
L 246.718669 -51.427371 
L 243.30232 -51.530235 
L 239.88597 -51.610081 
L 236.469621 -51.675519 
L 233.053272 -51.735299 
L 229.636923 -51.796882 
L 226.220574 -51.864336 
L 222.804225 -51.93709 
L 219.387875 -52.01036 
L 215.971526 -52.077294 
L 212.555177 -52.132169 
L 209.138828 -52.173011 
L 205.722479 -52.201886 
L 202.30613 -52.222726 
L 198.88978 -52.238658 
L 195.473431 -52.250998 
L 192.057082 -52.260002 
L 188.640733 -52.2659 
L 185.224384 -52.269292 
L 181.808035 -52.271213 
L 178.391685 -52.273105 
L 174.975336 -52.276403 
L 171.558987 -52.281738 
L 168.142638 -52.288492 
L 164.726289 -52.295208 
L 161.30994 -52.300559 
L 157.89359 -52.304017 
L 154.477241 -52.305816 
L 151.060892 -52.306482 
L 147.644543 -52.306396 
L 144.228194 -52.305663 
L 140.811845 -52.304256 
L 137.395495 -52.30233 
L 133.979146 -52.300424 
L 130.562797 -52.29932 
L 127.146448 -52.299552 
L 123.730099 -52.301004 
L 120.31375 -52.303 
L 116.8974 -52.304802 
L 113.481051 -52.306023 
z
"/>
    </defs>
    <g clip-path="url(#pd6ab0fe99c)">
     <use xlink:href="#ma8d46fad34" x="0" y="351.022187" style="fill: #a4c746"/>
    </g>
   </g>
   <g id="matplotlib.axis_3">
    <g id="xtick_7">
     <g id="line2d_53">
      <g>
       <use xlink:href="#m4fe0585c41" x="158.22425" y="313.465937" style="stroke: #000000; stroke-width: 0.8"/>
      </g>
     </g>
     <g id="text_15">
      <!-- $10^{-10}$ -->
      <g transform="translate(144.27425 328.064375) scale(0.1 -0.1)">
       <use xlink:href="#DejaVuSans-31" transform="translate(0 0.765625)"/>
       <use xlink:href="#DejaVuSans-30" transform="translate(63.623047 0.765625)"/>
       <use xlink:href="#DejaVuSans-2212" transform="translate(128.203125 39.046875) scale(0.7)"/>
       <use xlink:href="#DejaVuSans-31" transform="translate(186.855469 39.046875) scale(0.7)"/>
       <use xlink:href="#DejaVuSans-30" transform="translate(231.391602 39.046875) scale(0.7)"/>
      </g>
     </g>
    </g>
    <g id="xtick_8">
     <g id="line2d_54">
      <g>
       <use xlink:href="#m4fe0585c41" x="255.65925" y="313.465937" style="stroke: #000000; stroke-width: 0.8"/>
      </g>
     </g>
     <g id="text_16">
      <!-- $10^{-8}$ -->
      <g transform="translate(243.90925 328.064375) scale(0.1 -0.1)">
       <use xlink:href="#DejaVuSans-31" transform="translate(0 0.765625)"/>
       <use xlink:href="#DejaVuSans-30" transform="translate(63.623047 0.765625)"/>
       <use xlink:href="#DejaVuSans-2212" transform="translate(128.203125 39.046875) scale(0.7)"/>
       <use xlink:href="#DejaVuSans-38" transform="translate(186.855469 39.046875) scale(0.7)"/>
      </g>
     </g>
    </g>
    <g id="xtick_9">
     <g id="line2d_55">
      <g>
       <use xlink:href="#m4fe0585c41" x="353.09425" y="313.465937" style="stroke: #000000; stroke-width: 0.8"/>
      </g>
     </g>
     <g id="text_17">
      <!-- $10^{-6}$ -->
      <g transform="translate(341.34425 328.064375) scale(0.1 -0.1)">
       <use xlink:href="#DejaVuSans-31" transform="translate(0 0.765625)"/>
       <use xlink:href="#DejaVuSans-30" transform="translate(63.623047 0.765625)"/>
       <use xlink:href="#DejaVuSans-2212" transform="translate(128.203125 39.046875) scale(0.7)"/>
       <use xlink:href="#DejaVuSans-36" transform="translate(186.855469 39.046875) scale(0.7)"/>
      </g>
     </g>
    </g>
    <g id="xtick_10">
     <g id="line2d_56">
      <g>
       <use xlink:href="#m4fe0585c41" x="450.52925" y="313.465937" style="stroke: #000000; stroke-width: 0.8"/>
      </g>
     </g>
     <g id="text_18">
      <!-- $10^{-4}$ -->
      <g transform="translate(438.77925 328.064375) scale(0.1 -0.1)">
       <use xlink:href="#DejaVuSans-31" transform="translate(0 0.684375)"/>
       <use xlink:href="#DejaVuSans-30" transform="translate(63.623047 0.684375)"/>
       <use xlink:href="#DejaVuSans-2212" transform="translate(128.203125 38.965625) scale(0.7)"/>
       <use xlink:href="#DejaVuSans-34" transform="translate(186.855469 38.965625) scale(0.7)"/>
      </g>
     </g>
    </g>
    <g id="xtick_11">
     <g id="line2d_57">
      <g>
       <use xlink:href="#m4fe0585c41" x="547.96425" y="313.465937" style="stroke: #000000; stroke-width: 0.8"/>
      </g>
     </g>
     <g id="text_19">
      <!-- $10^{-2}$ -->
      <g transform="translate(536.21425 328.064375) scale(0.1 -0.1)">
       <use xlink:href="#DejaVuSans-31" transform="translate(0 0.765625)"/>
       <use xlink:href="#DejaVuSans-30" transform="translate(63.623047 0.765625)"/>
       <use xlink:href="#DejaVuSans-2212" transform="translate(128.203125 39.046875) scale(0.7)"/>
       <use xlink:href="#DejaVuSans-32" transform="translate(186.855469 39.046875) scale(0.7)"/>
      </g>
     </g>
    </g>
    <g id="xtick_12">
     <g id="line2d_58">
      <g>
       <use xlink:href="#m4fe0585c41" x="645.39925" y="313.465937" style="stroke: #000000; stroke-width: 0.8"/>
      </g>
     </g>
     <g id="text_20">
      <!-- 1 -->
      <g transform="translate(642.218 328.064375) scale(0.1 -0.1)">
       <use xlink:href="#DejaVuSans-31"/>
      </g>
     </g>
    </g>
    <g id="text_21">
     <!-- Relative Abundance -->
     <g transform="translate(351.893781 341.7425) scale(0.1 -0.1)">
      <use xlink:href="#DejaVuSans-52"/>
      <use xlink:href="#DejaVuSans-65" x="64.982422"/>
      <use xlink:href="#DejaVuSans-6c" x="126.505859"/>
      <use xlink:href="#DejaVuSans-61" x="154.289062"/>
      <use xlink:href="#DejaVuSans-74" x="215.568359"/>
      <use xlink:href="#DejaVuSans-69" x="254.777344"/>
      <use xlink:href="#DejaVuSans-76" x="282.560547"/>
      <use xlink:href="#DejaVuSans-65" x="341.740234"/>
      <use xlink:href="#DejaVuSans-20" x="403.263672"/>
      <use xlink:href="#DejaVuSans-41" x="435.050781"/>
      <use xlink:href="#DejaVuSans-62" x="503.458984"/>
      <use xlink:href="#DejaVuSans-75" x="566.935547"/>
      <use xlink:href="#DejaVuSans-6e" x="630.314453"/>
      <use xlink:href="#DejaVuSans-64" x="693.693359"/>
      <use xlink:href="#DejaVuSans-61" x="757.169922"/>
      <use xlink:href="#DejaVuSans-6e" x="818.449219"/>
      <use xlink:href="#DejaVuSans-63" x="881.828125"/>
      <use xlink:href="#DejaVuSans-65" x="936.808594"/>
     </g>
    </g>
   </g>
   <g id="matplotlib.axis_4">
    <g id="ytick_3">
     <g id="text_22">
      <!-- Rothman et al. -->
      <g transform="translate(77.628937 233.494109) scale(0.1 -0.1)">
       <defs>
        <path id="DejaVuSans-68" d="M 3513 2113 
L 3513 0 
L 2938 0 
L 2938 2094 
Q 2938 2591 2744 2837 
Q 2550 3084 2163 3084 
Q 1697 3084 1428 2787 
Q 1159 2491 1159 1978 
L 1159 0 
L 581 0 
L 581 4863 
L 1159 4863 
L 1159 2956 
Q 1366 3272 1645 3428 
Q 1925 3584 2291 3584 
Q 2894 3584 3203 3211 
Q 3513 2838 3513 2113 
z
" transform="scale(0.015625)"/>
        <path id="DejaVuSans-2e" d="M 684 794 
L 1344 794 
L 1344 0 
L 684 0 
L 684 794 
z
" transform="scale(0.015625)"/>
       </defs>
       <use xlink:href="#DejaVuSans-52"/>
       <use xlink:href="#DejaVuSans-6f" x="64.982422"/>
       <use xlink:href="#DejaVuSans-74" x="126.164062"/>
       <use xlink:href="#DejaVuSans-68" x="165.373047"/>
       <use xlink:href="#DejaVuSans-6d" x="228.751953"/>
       <use xlink:href="#DejaVuSans-61" x="326.164062"/>
       <use xlink:href="#DejaVuSans-6e" x="387.443359"/>
       <use xlink:href="#DejaVuSans-20" x="450.822266"/>
       <use xlink:href="#DejaVuSans-65" x="482.609375"/>
       <use xlink:href="#DejaVuSans-74" x="544.132812"/>
       <use xlink:href="#DejaVuSans-20" x="583.341797"/>
       <use xlink:href="#DejaVuSans-61" x="615.128906"/>
       <use xlink:href="#DejaVuSans-6c" x="676.408203"/>
       <use xlink:href="#DejaVuSans-2e" x="704.191406"/>
      </g>
      <!-- 2021 -->
      <g transform="translate(125.77425 244.691921) scale(0.1 -0.1)">
       <use xlink:href="#DejaVuSans-32"/>
       <use xlink:href="#DejaVuSans-30" x="63.623047"/>
       <use xlink:href="#DejaVuSans-32" x="127.246094"/>
       <use xlink:href="#DejaVuSans-31" x="190.869141"/>
      </g>
     </g>
    </g>
    <g id="ytick_4">
     <g id="text_23">
      <!-- Crits-Christoph et al. -->
      <g transform="translate(47.957062 297.675259) scale(0.1 -0.1)">
       <defs>
        <path id="DejaVuSans-2d" d="M 313 2009 
L 1997 2009 
L 1997 1497 
L 313 1497 
L 313 2009 
z
" transform="scale(0.015625)"/>
       </defs>
       <use xlink:href="#DejaVuSans-43"/>
       <use xlink:href="#DejaVuSans-72" x="69.824219"/>
       <use xlink:href="#DejaVuSans-69" x="110.9375"/>
       <use xlink:href="#DejaVuSans-74" x="138.720703"/>
       <use xlink:href="#DejaVuSans-73" x="177.929688"/>
       <use xlink:href="#DejaVuSans-2d" x="230.029297"/>
       <use xlink:href="#DejaVuSans-43" x="266.113281"/>
       <use xlink:href="#DejaVuSans-68" x="335.9375"/>
       <use xlink:href="#DejaVuSans-72" x="399.316406"/>
       <use xlink:href="#DejaVuSans-69" x="440.429688"/>
       <use xlink:href="#DejaVuSans-73" x="468.212891"/>
       <use xlink:href="#DejaVuSans-74" x="520.3125"/>
       <use xlink:href="#DejaVuSans-6f" x="559.521484"/>
       <use xlink:href="#DejaVuSans-70" x="620.703125"/>
       <use xlink:href="#DejaVuSans-68" x="684.179688"/>
       <use xlink:href="#DejaVuSans-20" x="747.558594"/>
       <use xlink:href="#DejaVuSans-65" x="779.345703"/>
       <use xlink:href="#DejaVuSans-74" x="840.869141"/>
       <use xlink:href="#DejaVuSans-20" x="880.078125"/>
       <use xlink:href="#DejaVuSans-61" x="911.865234"/>
       <use xlink:href="#DejaVuSans-6c" x="973.144531"/>
       <use xlink:href="#DejaVuSans-2e" x="1000.927734"/>
      </g>
      <!-- 2021 -->
      <g transform="translate(125.77425 308.873072) scale(0.1 -0.1)">
       <use xlink:href="#DejaVuSans-32"/>
       <use xlink:href="#DejaVuSans-30" x="63.623047"/>
       <use xlink:href="#DejaVuSans-32" x="127.246094"/>
       <use xlink:href="#DejaVuSans-31" x="190.869141"/>
      </g>
     </g>
    </g>
   </g>
   <g id="line2d_59">
    <path d="M 258.153683 234.533952 
L 337.572346 234.533952 
" clip-path="url(#pd6ab0fe99c)" style="fill: none"/>
   </g>
   <g id="line2d_60">
    <path d="M 287.861973 234.533952 
L 307.828315 234.533952 
" clip-path="url(#pd6ab0fe99c)" style="fill: none"/>
   </g>
   <g id="line2d_61">
    <path d="M 297.996224 234.533952 
" clip-path="url(#pd6ab0fe99c)" style="fill: none; stroke: #515151; stroke-width: 1.5; stroke-linecap: square"/>
   </g>
   <g id="line2d_62">
    <path d="M 244.514209 298.715103 
L 374.33868 298.715103 
" clip-path="url(#pd6ab0fe99c)" style="fill: none"/>
   </g>
   <g id="line2d_63">
    <path d="M 293.224744 298.715103 
L 325.79965 298.715103 
" clip-path="url(#pd6ab0fe99c)" style="fill: none"/>
   </g>
   <g id="line2d_64">
    <path d="M 311.37734 298.715103 
" clip-path="url(#pd6ab0fe99c)" style="fill: none; stroke: #515151; stroke-width: 1.5; stroke-linecap: square"/>
   </g>
   <g id="line2d_65">
    <path d="M 297.996224 218.488665 
L 297.996224 250.57924 
" clip-path="url(#pd6ab0fe99c)" style="fill: none; stroke: #ffffff; stroke-width: 1.5; stroke-linecap: square"/>
   </g>
   <g id="line2d_66">
    <path d="M 311.37734 288.718186 
L 311.37734 308.712021 
" clip-path="url(#pd6ab0fe99c)" style="fill: none; stroke: #ffffff; stroke-width: 1.5; stroke-linecap: square"/>
   </g>
   <g id="patch_11">
    <path d="M 158.22425 313.465937 
L 645.39925 313.465937 
" style="fill: none; stroke: #000000; stroke-width: 0.8; stroke-linejoin: miter; stroke-linecap: square"/>
   </g>
   <g id="text_24">
    <!-- b (Wastewater) -->
    <g transform="translate(7.2 212.940937) scale(0.1 -0.1)">
     <defs>
      <path id="DejaVuSans-Bold-57" d="M 191 4666 
L 1344 4666 
L 2150 1275 
L 2950 4666 
L 4109 4666 
L 4909 1275 
L 5716 4666 
L 6859 4666 
L 5759 0 
L 4372 0 
L 3525 3547 
L 2688 0 
L 1300 0 
L 191 4666 
z
" transform="scale(0.015625)"/>
      <path id="DejaVuSans-Bold-74" d="M 1759 4494 
L 1759 3500 
L 2913 3500 
L 2913 2700 
L 1759 2700 
L 1759 1216 
Q 1759 972 1856 886 
Q 1953 800 2241 800 
L 2816 800 
L 2816 0 
L 1856 0 
Q 1194 0 917 276 
Q 641 553 641 1216 
L 641 2700 
L 84 2700 
L 84 3500 
L 641 3500 
L 641 4494 
L 1759 4494 
z
" transform="scale(0.015625)"/>
      <path id="DejaVuSans-Bold-65" d="M 4031 1759 
L 4031 1441 
L 1416 1441 
Q 1456 1047 1700 850 
Q 1944 653 2381 653 
Q 2734 653 3104 758 
Q 3475 863 3866 1075 
L 3866 213 
Q 3469 63 3072 -14 
Q 2675 -91 2278 -91 
Q 1328 -91 801 392 
Q 275 875 275 1747 
Q 275 2603 792 3093 
Q 1309 3584 2216 3584 
Q 3041 3584 3536 3087 
Q 4031 2591 4031 1759 
z
M 2881 2131 
Q 2881 2450 2695 2645 
Q 2509 2841 2209 2841 
Q 1884 2841 1681 2658 
Q 1478 2475 1428 2131 
L 2881 2131 
z
" transform="scale(0.015625)"/>
      <path id="DejaVuSans-Bold-72" d="M 3138 2547 
Q 2991 2616 2845 2648 
Q 2700 2681 2553 2681 
Q 2122 2681 1889 2404 
Q 1656 2128 1656 1613 
L 1656 0 
L 538 0 
L 538 3500 
L 1656 3500 
L 1656 2925 
Q 1872 3269 2151 3426 
Q 2431 3584 2822 3584 
Q 2878 3584 2943 3579 
Q 3009 3575 3134 3559 
L 3138 2547 
z
" transform="scale(0.015625)"/>
     </defs>
     <use xlink:href="#DejaVuSans-Bold-62"/>
     <use xlink:href="#DejaVuSans-Bold-20" x="71.582031"/>
     <use xlink:href="#DejaVuSans-Bold-28" x="106.396484"/>
     <use xlink:href="#DejaVuSans-Bold-57" x="152.099609"/>
     <use xlink:href="#DejaVuSans-Bold-61" x="258.777344"/>
     <use xlink:href="#DejaVuSans-Bold-73" x="326.257812"/>
     <use xlink:href="#DejaVuSans-Bold-74" x="385.779297"/>
     <use xlink:href="#DejaVuSans-Bold-65" x="433.582031"/>
     <use xlink:href="#DejaVuSans-Bold-77" x="501.404297"/>
     <use xlink:href="#DejaVuSans-Bold-61" x="593.787109"/>
     <use xlink:href="#DejaVuSans-Bold-74" x="661.267578"/>
     <use xlink:href="#DejaVuSans-Bold-65" x="709.070312"/>
     <use xlink:href="#DejaVuSans-Bold-72" x="776.892578"/>
     <use xlink:href="#DejaVuSans-Bold-29" x="826.208984"/>
    </g>
   </g>
  </g>
 </g>
 <defs>
  <clipPath id="p257f90dfa7">
   <rect x="158.22425" y="13.335937" width="487.175" height="149.25"/>
  </clipPath>
  <clipPath id="pd6ab0fe99c">
   <rect x="158.22425" y="213.965937" width="487.175" height="99.5"/>
  </clipPath>
 </defs>
</svg>
